<svg width="14" height="18" viewBox="0 0 14 18" fill="none" xmlns="http://www.w3.org/2000/svg">
<path d="M12.5641 0.0037452L9.45189 0C5.95537 0 3.69576 1.73871 3.69576 4.42982V6.47227H0.566521C0.296118 6.47227 0.0771484 6.63668 0.0771484 6.83949V9.79876C0.0771484 10.0016 0.296368 10.1658 0.566521 10.1658H3.69576V17.633C3.69576 17.8358 3.91473 18 4.18513 18H8.2679C8.53831 18 8.75728 17.8356 8.75728 17.633V10.1658H12.4161C12.6865 10.1658 12.9055 10.0016 12.9055 9.79876L12.907 6.83949C12.907 6.74211 12.8553 6.64886 12.7636 6.57994C12.672 6.51103 12.5472 6.47227 12.4173 6.47227H8.75728V4.74086C8.75728 3.90868 9.02169 3.48622 10.4671 3.48622L12.5637 3.48566C12.8338 3.48566 13.0528 3.32124 13.0528 3.11863V0.370775C13.0528 0.168347 12.8341 0.00411972 12.5641 0.0037452Z" fill="white"/>
</svg>
