<svg width="26" height="26" viewBox="0 0 26 26" fill="none" xmlns="http://www.w3.org/2000/svg">
<g opacity="0.5" clip-path="url(#clip0)">
<path d="M0.459359 12.5362L6.45028 14.7722L8.76913 22.2296C8.91751 22.7072 9.50155 22.8837 9.88921 22.5668L13.2287 19.8444C13.5787 19.5592 14.0773 19.545 14.4431 19.8105L20.4663 24.1835C20.881 24.4849 21.4685 24.2577 21.5725 23.7565L25.9848 2.53266C26.0983 1.98527 25.5605 1.52863 25.0392 1.73021L0.452339 11.2151C-0.154415 11.4491 -0.149128 12.3081 0.459359 12.5362ZM8.39543 13.5819L20.1039 6.37061C20.3143 6.24139 20.5308 6.52591 20.3501 6.69353L10.6872 15.6757C10.3476 15.9918 10.1285 16.4149 10.0664 16.8742L9.73729 19.3135C9.69369 19.6392 9.23618 19.6715 9.14631 19.3563L7.88037 14.9081C7.73537 14.4008 7.94667 13.8589 8.39543 13.5819Z" fill="#F6FCFA"/>
</g>
<defs>
<clipPath id="clip0">
<rect width="26" height="26" fill="white"/>
</clipPath>
</defs>
</svg>
