<svg width="1695" height="1105" viewBox="0 0 1695 1105" fill="none" xmlns="http://www.w3.org/2000/svg">
<g clip-path="url(#clip0)">
<rect width="1695" height="1105" fill="#A1C3D1"/>
<g filter="url(#filter0_d)">
<rect x="887" y="433" width="854" height="725" rx="40" fill="#A1C3D1"/>
</g>
<g filter="url(#filter1_d)">
<rect x="1316" y="-170" width="322" height="505" rx="40" fill="white"/>
</g>
<path d="M1346 238H1608V294C1608 299.523 1603.52 304 1598 304H1356C1350.48 304 1346 299.523 1346 294V238Z" fill="#2C856B"/>
<g filter="url(#filter2_d)">
<rect x="67" y="433" width="322" height="611" rx="40" fill="white"/>
</g>
<rect x="897" y="433" width="854" height="725" rx="40" fill="white"/>
<g filter="url(#filter3_d)">
<rect x="554" y="465" width="162" height="189" rx="40" fill="#A1C3D1"/>
</g>
<rect x="564" y="465" width="162" height="189" rx="40" fill="white"/>
<rect width="150" height="46" transform="translate(153 486)" fill="black" fill-opacity="0.01"/>
<path d="M189.29 506.393C181.954 502.004 169.854 501.6 162.85 503.741C162.582 503.822 162.3 503.849 162.021 503.821C161.742 503.793 161.472 503.71 161.225 503.577C160.978 503.445 160.76 503.264 160.584 503.047C160.407 502.83 160.276 502.581 160.196 502.313C160.031 501.771 160.087 501.185 160.352 500.684C160.618 500.183 161.071 499.807 161.614 499.637C169.652 497.178 183.017 497.653 191.464 502.704C192.475 503.309 192.808 504.624 192.208 505.642C192.067 505.884 191.88 506.095 191.656 506.264C191.433 506.433 191.178 506.556 190.907 506.626C190.635 506.696 190.353 506.711 190.075 506.671C189.798 506.631 189.531 506.537 189.29 506.393ZM189.05 512.895C188.93 513.094 188.771 513.268 188.583 513.406C188.394 513.544 188.18 513.643 187.953 513.697C187.726 513.752 187.491 513.761 187.26 513.725C187.029 513.688 186.808 513.606 186.61 513.483C180.494 509.694 171.167 508.597 163.931 510.811C163.707 510.879 163.472 510.901 163.239 510.878C163.007 510.854 162.781 510.785 162.575 510.674C162.369 510.563 162.188 510.413 162.041 510.232C161.893 510.051 161.784 509.843 161.717 509.619C161.581 509.167 161.628 508.68 161.85 508.263C162.071 507.845 162.448 507.532 162.9 507.39C171.165 504.862 181.442 506.087 188.467 510.437C189.3 510.955 189.564 512.055 189.05 512.895ZM186.265 519.137C186.17 519.297 186.043 519.437 185.893 519.547C185.743 519.658 185.572 519.738 185.39 519.782C185.209 519.826 185.02 519.834 184.836 519.805C184.651 519.776 184.474 519.711 184.315 519.613C178.969 516.322 172.244 515.578 164.321 517.403C164.139 517.444 163.95 517.449 163.766 517.417C163.582 517.385 163.405 517.317 163.248 517.217C163.09 517.117 162.953 516.987 162.846 516.835C162.739 516.682 162.663 516.509 162.623 516.327C162.538 515.959 162.602 515.573 162.802 515.252C163.002 514.931 163.322 514.702 163.69 514.616C172.36 512.619 179.796 513.479 185.796 517.173C186.118 517.373 186.347 517.691 186.435 518.059C186.523 518.427 186.462 518.814 186.265 519.137ZM175.829 486.065C163.258 486.065 153.069 496.331 153.069 508.994C153.069 521.66 163.258 531.923 175.829 531.923C188.398 531.923 198.589 521.66 198.589 508.994C198.589 496.331 188.398 486.065 175.827 486.065H175.829ZM214.989 507.233C211.06 506.288 210.36 505.627 210.36 504.233C210.36 502.918 211.59 502.033 213.417 502.033C215.189 502.033 216.946 502.706 218.789 504.089C218.844 504.132 218.914 504.147 218.983 504.137C219.017 504.132 219.049 504.12 219.078 504.102C219.107 504.084 219.132 504.06 219.152 504.032L221.071 501.306C221.109 501.252 221.125 501.186 221.116 501.121C221.107 501.055 221.074 500.996 221.023 500.954C218.831 499.181 216.362 498.32 213.475 498.32C209.233 498.32 206.269 500.885 206.269 504.555C206.269 508.492 208.827 509.884 213.244 510.961C217.004 511.833 217.639 512.565 217.639 513.872C217.639 515.319 216.356 516.22 214.29 516.22C211.996 516.22 210.125 515.442 208.033 513.615C208.007 513.593 207.977 513.575 207.945 513.564C207.912 513.554 207.878 513.549 207.844 513.552C207.81 513.555 207.777 513.564 207.746 513.58C207.716 513.596 207.689 513.618 207.667 513.644L205.515 516.224C205.472 516.275 205.45 516.342 205.454 516.409C205.459 516.476 205.49 516.539 205.54 516.584C207.977 518.775 210.971 519.931 214.202 519.931C218.775 519.931 221.729 517.414 221.729 513.519C221.729 510.227 219.777 508.406 214.989 507.233ZM235.392 511.645C235.392 514.424 233.692 516.366 231.258 516.366C228.854 516.366 227.039 514.338 227.039 511.645C227.039 508.954 228.852 506.926 231.26 506.926C233.654 506.926 235.392 508.91 235.392 511.645ZM232.073 503.327C230.092 503.327 228.465 504.114 227.125 505.726V503.913C227.126 503.845 227.099 503.779 227.051 503.73C227.003 503.681 226.938 503.653 226.869 503.652H223.35C223.316 503.653 223.282 503.66 223.251 503.673C223.22 503.686 223.191 503.705 223.167 503.73C223.143 503.754 223.124 503.782 223.111 503.814C223.099 503.845 223.092 503.879 223.092 503.913V524.065C223.092 524.209 223.208 524.326 223.35 524.326H226.869C226.938 524.325 227.003 524.297 227.051 524.248C227.099 524.199 227.126 524.133 227.125 524.065V517.704C228.467 519.22 230.092 519.959 232.073 519.959C235.756 519.959 239.483 517.104 239.483 511.645C239.483 506.184 235.756 503.327 232.073 503.327ZM249.039 516.394C246.515 516.394 244.616 514.353 244.616 511.645C244.616 508.927 246.45 506.953 248.981 506.953C251.519 506.953 253.433 508.996 253.433 511.706C253.433 514.422 251.587 516.394 249.039 516.394ZM249.039 503.329C244.296 503.329 240.581 507.009 240.581 511.704C240.581 516.35 244.271 519.992 248.981 519.992C253.739 519.992 257.465 516.325 257.465 511.645C257.465 506.982 253.765 503.327 249.039 503.327V503.329ZM267.592 503.652H263.721V499.666C263.722 499.632 263.715 499.598 263.703 499.566C263.69 499.535 263.671 499.506 263.647 499.482C263.623 499.457 263.595 499.438 263.563 499.425C263.532 499.412 263.498 499.405 263.464 499.405H259.944C259.876 499.406 259.811 499.434 259.763 499.482C259.715 499.531 259.689 499.596 259.689 499.664V503.652H257.996C257.962 503.653 257.929 503.66 257.897 503.673C257.866 503.686 257.838 503.706 257.814 503.73C257.79 503.754 257.771 503.783 257.759 503.814C257.746 503.846 257.74 503.879 257.741 503.913V506.961C257.741 507.102 257.856 507.219 257.996 507.219H259.689V515.103C259.689 518.288 261.262 519.904 264.366 519.904C265.627 519.904 266.673 519.641 267.662 519.076C267.701 519.053 267.734 519.021 267.757 518.981C267.78 518.942 267.792 518.897 267.792 518.852V515.95C267.792 515.906 267.781 515.862 267.759 515.824C267.738 515.785 267.707 515.753 267.669 515.729C267.632 515.706 267.59 515.693 267.546 515.691C267.502 515.689 267.459 515.698 267.419 515.718C266.741 516.063 266.087 516.22 265.354 516.22C264.225 516.22 263.719 515.703 263.719 514.547V507.217H267.592C267.627 507.217 267.66 507.21 267.692 507.197C267.723 507.184 267.752 507.165 267.775 507.14C267.799 507.116 267.818 507.087 267.831 507.056C267.844 507.024 267.85 506.991 267.85 506.957V503.909C267.85 503.875 267.844 503.842 267.831 503.81C267.818 503.779 267.799 503.751 267.775 503.726C267.751 503.702 267.723 503.683 267.691 503.67C267.66 503.657 267.626 503.651 267.592 503.651V503.652ZM281.083 503.668V503.179C281.083 501.738 281.631 501.094 282.862 501.094C283.594 501.094 284.185 501.241 284.844 501.464C284.883 501.476 284.924 501.479 284.964 501.472C285.005 501.466 285.042 501.45 285.075 501.425C285.109 501.401 285.136 501.37 285.155 501.333C285.173 501.296 285.183 501.256 285.183 501.214V498.228C285.183 498.173 285.166 498.118 285.133 498.074C285.1 498.029 285.053 497.996 285 497.979C284.054 497.689 283.067 497.546 282.077 497.557C278.827 497.557 277.108 499.401 277.108 502.886V503.637H275.417C275.349 503.638 275.283 503.665 275.235 503.714C275.187 503.762 275.16 503.828 275.16 503.896V506.959C275.16 507.102 275.275 507.219 275.417 507.219H277.11V519.379C277.11 519.522 277.223 519.637 277.365 519.637H280.885C281.025 519.637 281.141 519.522 281.141 519.379V507.217H284.427L289.46 519.373C288.889 520.651 288.325 520.906 287.56 520.906C286.939 520.906 286.287 520.718 285.617 520.35C285.586 520.334 285.552 520.323 285.517 520.32C285.482 520.317 285.447 520.321 285.414 520.331C285.38 520.343 285.349 520.362 285.323 520.386C285.297 520.41 285.276 520.439 285.262 520.471L284.069 523.107C284.042 523.166 284.038 523.234 284.058 523.296C284.078 523.358 284.122 523.41 284.179 523.442C285.322 524.096 286.621 524.431 287.939 524.412C290.535 524.412 291.971 523.193 293.239 519.912L299.342 504.02C299.358 503.981 299.363 503.938 299.359 503.896C299.354 503.854 299.339 503.814 299.315 503.779C299.292 503.744 299.261 503.716 299.224 503.696C299.187 503.676 299.146 503.666 299.104 503.666H295.44C295.387 503.666 295.334 503.683 295.29 503.714C295.247 503.746 295.214 503.79 295.196 503.84L291.444 514.639L287.335 503.833C287.317 503.784 287.284 503.741 287.241 503.712C287.198 503.682 287.147 503.666 287.094 503.666H281.083V503.668ZM273.262 503.652H269.742C269.674 503.653 269.609 503.681 269.561 503.73C269.513 503.779 269.486 503.845 269.487 503.913V519.379C269.487 519.522 269.602 519.637 269.744 519.637H273.264C273.404 519.637 273.519 519.522 273.519 519.379V503.911C273.519 503.843 273.492 503.777 273.444 503.729C273.396 503.68 273.33 503.653 273.262 503.652ZM271.519 496.611C270.847 496.615 270.203 496.885 269.73 497.361C269.257 497.838 268.993 498.482 268.996 499.152C268.994 499.484 269.058 499.814 269.184 500.121C269.31 500.429 269.496 500.709 269.73 500.945C269.965 501.181 270.244 501.369 270.551 501.498C270.858 501.627 271.188 501.694 271.521 501.696C272.194 501.692 272.838 501.421 273.311 500.944C273.784 500.467 274.048 499.823 274.044 499.152C274.044 497.747 272.914 496.611 271.521 496.611H271.519ZM302.49 505.192H301.846V506.02H302.49C302.812 506.02 303.004 505.86 303.004 505.606C303.004 505.335 302.812 505.192 302.49 505.192ZM302.908 506.372L303.61 507.361H303.017L302.389 506.455H301.846V507.361H301.352V504.741H302.51C303.114 504.741 303.512 505.054 303.512 505.577C303.52 505.759 303.464 505.938 303.354 506.083C303.244 506.229 303.086 506.331 302.908 506.372ZM302.36 503.871C301.09 503.871 300.131 504.887 300.131 506.131C300.131 507.373 301.085 508.375 302.346 508.375C303.616 508.375 304.577 507.359 304.577 506.115C304.577 504.873 303.621 503.871 302.36 503.871ZM302.346 508.624C302.019 508.624 301.695 508.558 301.394 508.432C301.092 508.307 300.818 508.122 300.588 507.891C300.358 507.659 300.177 507.384 300.053 507.082C299.93 506.78 299.868 506.457 299.871 506.131C299.871 504.762 300.967 503.622 302.36 503.622C302.687 503.623 303.011 503.688 303.312 503.814C303.614 503.94 303.888 504.124 304.118 504.355C304.348 504.587 304.529 504.862 304.653 505.164C304.776 505.466 304.838 505.789 304.835 506.115C304.835 507.484 303.739 508.626 302.346 508.626V508.624Z" fill="#2C856B"/>
<rect width="150" height="46" transform="translate(961 498)" fill="black" fill-opacity="0.01"/>
<path d="M997.29 518.393C989.954 514.004 977.854 513.6 970.85 515.741C970.582 515.822 970.3 515.849 970.021 515.821C969.742 515.793 969.472 515.71 969.225 515.577C968.978 515.445 968.76 515.264 968.584 515.047C968.407 514.83 968.275 514.581 968.196 514.313C968.031 513.771 968.087 513.185 968.352 512.684C968.618 512.183 969.071 511.807 969.613 511.637C977.652 509.178 991.017 509.653 999.463 514.704C1000.47 515.309 1000.81 516.624 1000.21 517.642C1000.07 517.884 999.88 518.095 999.656 518.264C999.433 518.433 999.178 518.556 998.907 518.626C998.635 518.696 998.353 518.711 998.075 518.671C997.798 518.631 997.531 518.537 997.29 518.393ZM997.05 524.895C996.93 525.094 996.771 525.268 996.582 525.406C996.394 525.544 996.18 525.643 995.953 525.697C995.726 525.752 995.491 525.761 995.26 525.725C995.029 525.688 994.808 525.606 994.61 525.483C988.494 521.694 979.167 520.597 971.931 522.811C971.707 522.879 971.472 522.901 971.239 522.878C971.007 522.854 970.781 522.785 970.575 522.674C970.369 522.563 970.188 522.413 970.04 522.232C969.893 522.051 969.783 521.843 969.717 521.619C969.581 521.167 969.628 520.68 969.849 520.263C970.071 519.845 970.448 519.532 970.9 519.39C979.165 516.862 989.442 518.087 996.467 522.437C997.3 522.955 997.563 524.055 997.05 524.895ZM994.265 531.137C994.17 531.297 994.043 531.437 993.893 531.547C993.743 531.658 993.572 531.738 993.39 531.782C993.209 531.826 993.02 531.834 992.836 531.805C992.651 531.776 992.474 531.711 992.315 531.613C986.969 528.322 980.244 527.578 972.321 529.403C972.139 529.444 971.95 529.449 971.766 529.417C971.581 529.385 971.405 529.317 971.247 529.217C971.09 529.117 970.953 528.987 970.846 528.835C970.739 528.682 970.663 528.509 970.623 528.327C970.538 527.959 970.602 527.573 970.802 527.252C971.002 526.931 971.322 526.702 971.69 526.616C980.36 524.619 987.796 525.479 993.796 529.173C994.118 529.373 994.347 529.691 994.435 530.059C994.523 530.427 994.462 530.814 994.265 531.137ZM983.829 498.065C971.258 498.065 961.069 508.331 961.069 520.994C961.069 533.66 971.258 543.923 983.829 543.923C996.398 543.923 1006.59 533.66 1006.59 520.994C1006.59 508.331 996.398 498.065 983.827 498.065H983.829ZM1022.99 519.233C1019.06 518.288 1018.36 517.627 1018.36 516.233C1018.36 514.918 1019.59 514.033 1021.42 514.033C1023.19 514.033 1024.95 514.706 1026.79 516.089C1026.84 516.132 1026.91 516.147 1026.98 516.137C1027.02 516.132 1027.05 516.12 1027.08 516.102C1027.11 516.084 1027.13 516.06 1027.15 516.032L1029.07 513.306C1029.11 513.252 1029.13 513.186 1029.12 513.121C1029.11 513.055 1029.07 512.996 1029.02 512.954C1026.83 511.181 1024.36 510.32 1021.47 510.32C1017.23 510.32 1014.27 512.885 1014.27 516.555C1014.27 520.492 1016.83 521.884 1021.24 522.961C1025 523.833 1025.64 524.565 1025.64 525.872C1025.64 527.319 1024.36 528.22 1022.29 528.22C1020 528.22 1018.12 527.442 1016.03 525.615C1016.01 525.593 1015.98 525.575 1015.94 525.564C1015.91 525.554 1015.88 525.549 1015.84 525.552C1015.81 525.555 1015.78 525.564 1015.75 525.58C1015.72 525.596 1015.69 525.618 1015.67 525.644L1013.52 528.224C1013.47 528.275 1013.45 528.342 1013.45 528.409C1013.46 528.476 1013.49 528.539 1013.54 528.584C1015.98 530.775 1018.97 531.931 1022.2 531.931C1026.77 531.931 1029.73 529.414 1029.73 525.519C1029.73 522.227 1027.78 520.406 1022.99 519.233ZM1043.39 523.645C1043.39 526.424 1041.69 528.366 1039.26 528.366C1036.85 528.366 1035.04 526.338 1035.04 523.645C1035.04 520.954 1036.85 518.926 1039.26 518.926C1041.65 518.926 1043.39 520.91 1043.39 523.645ZM1040.07 515.327C1038.09 515.327 1036.47 516.114 1035.12 517.726V515.913C1035.13 515.845 1035.1 515.779 1035.05 515.73C1035 515.681 1034.94 515.653 1034.87 515.652H1031.35C1031.32 515.653 1031.28 515.66 1031.25 515.673C1031.22 515.686 1031.19 515.705 1031.17 515.73C1031.14 515.754 1031.12 515.782 1031.11 515.814C1031.1 515.845 1031.09 515.879 1031.09 515.913V536.065C1031.09 536.209 1031.21 536.326 1031.35 536.326H1034.87C1034.94 536.325 1035 536.297 1035.05 536.248C1035.1 536.199 1035.13 536.133 1035.12 536.065V529.704C1036.47 531.22 1038.09 531.959 1040.07 531.959C1043.76 531.959 1047.48 529.104 1047.48 523.645C1047.48 518.184 1043.76 515.327 1040.07 515.327ZM1057.04 528.394C1054.52 528.394 1052.62 526.353 1052.62 523.645C1052.62 520.927 1054.45 518.953 1056.98 518.953C1059.52 518.953 1061.43 520.996 1061.43 523.706C1061.43 526.422 1059.59 528.394 1057.04 528.394ZM1057.04 515.329C1052.3 515.329 1048.58 519.009 1048.58 523.704C1048.58 528.35 1052.27 531.992 1056.98 531.992C1061.74 531.992 1065.47 528.325 1065.47 523.645C1065.47 518.982 1061.77 515.327 1057.04 515.327V515.329ZM1075.59 515.652H1071.72V511.666C1071.72 511.632 1071.72 511.598 1071.7 511.566C1071.69 511.535 1071.67 511.506 1071.65 511.482C1071.62 511.457 1071.59 511.438 1071.56 511.425C1071.53 511.412 1071.5 511.405 1071.46 511.405H1067.94C1067.88 511.406 1067.81 511.434 1067.76 511.482C1067.72 511.531 1067.69 511.596 1067.69 511.664V515.652H1066C1065.96 515.653 1065.93 515.66 1065.9 515.673C1065.87 515.686 1065.84 515.706 1065.81 515.73C1065.79 515.754 1065.77 515.783 1065.76 515.814C1065.75 515.846 1065.74 515.879 1065.74 515.913V518.961C1065.74 519.102 1065.86 519.219 1066 519.219H1067.69V527.103C1067.69 530.288 1069.26 531.904 1072.37 531.904C1073.63 531.904 1074.67 531.641 1075.66 531.076C1075.7 531.053 1075.73 531.021 1075.76 530.981C1075.78 530.942 1075.79 530.897 1075.79 530.852V527.95C1075.79 527.906 1075.78 527.862 1075.76 527.824C1075.74 527.785 1075.71 527.753 1075.67 527.729C1075.63 527.706 1075.59 527.693 1075.55 527.691C1075.5 527.689 1075.46 527.698 1075.42 527.718C1074.74 528.063 1074.09 528.22 1073.35 528.22C1072.22 528.22 1071.72 527.703 1071.72 526.547V519.217H1075.59C1075.63 519.217 1075.66 519.21 1075.69 519.197C1075.72 519.184 1075.75 519.165 1075.78 519.14C1075.8 519.116 1075.82 519.087 1075.83 519.056C1075.84 519.024 1075.85 518.991 1075.85 518.957V515.909C1075.85 515.875 1075.84 515.842 1075.83 515.81C1075.82 515.779 1075.8 515.751 1075.78 515.726C1075.75 515.702 1075.72 515.683 1075.69 515.67C1075.66 515.657 1075.63 515.651 1075.59 515.651V515.652ZM1089.08 515.668V515.179C1089.08 513.738 1089.63 513.094 1090.86 513.094C1091.59 513.094 1092.18 513.241 1092.84 513.464C1092.88 513.476 1092.92 513.479 1092.96 513.472C1093 513.466 1093.04 513.45 1093.07 513.425C1093.11 513.401 1093.14 513.37 1093.15 513.333C1093.17 513.296 1093.18 513.256 1093.18 513.214V510.228C1093.18 510.173 1093.17 510.118 1093.13 510.074C1093.1 510.029 1093.05 509.996 1093 509.979C1092.05 509.689 1091.07 509.546 1090.08 509.557C1086.83 509.557 1085.11 511.401 1085.11 514.886V515.637H1083.42C1083.35 515.638 1083.28 515.665 1083.23 515.714C1083.19 515.762 1083.16 515.828 1083.16 515.896V518.959C1083.16 519.102 1083.28 519.219 1083.42 519.219H1085.11V531.379C1085.11 531.522 1085.22 531.637 1085.37 531.637H1088.88C1089.02 531.637 1089.14 531.522 1089.14 531.379V519.217H1092.43L1097.46 531.373C1096.89 532.651 1096.32 532.906 1095.56 532.906C1094.94 532.906 1094.29 532.718 1093.62 532.35C1093.59 532.334 1093.55 532.323 1093.52 532.32C1093.48 532.317 1093.45 532.321 1093.41 532.331C1093.38 532.343 1093.35 532.362 1093.32 532.386C1093.3 532.41 1093.28 532.439 1093.26 532.471L1092.07 535.107C1092.04 535.166 1092.04 535.234 1092.06 535.296C1092.08 535.358 1092.12 535.41 1092.18 535.442C1093.32 536.096 1094.62 536.431 1095.94 536.412C1098.53 536.412 1099.97 535.193 1101.24 531.912L1107.34 516.02C1107.36 515.981 1107.36 515.938 1107.36 515.896C1107.35 515.854 1107.34 515.814 1107.32 515.779C1107.29 515.744 1107.26 515.716 1107.22 515.696C1107.19 515.676 1107.15 515.666 1107.1 515.666H1103.44C1103.39 515.666 1103.33 515.683 1103.29 515.714C1103.25 515.746 1103.21 515.79 1103.2 515.84L1099.44 526.639L1095.33 515.833C1095.32 515.784 1095.28 515.741 1095.24 515.712C1095.2 515.682 1095.15 515.666 1095.09 515.666H1089.08V515.668ZM1081.26 515.652H1077.74C1077.67 515.653 1077.61 515.681 1077.56 515.73C1077.51 515.779 1077.49 515.845 1077.49 515.913V531.379C1077.49 531.522 1077.6 531.637 1077.74 531.637H1081.26C1081.4 531.637 1081.52 531.522 1081.52 531.379V515.911C1081.52 515.843 1081.49 515.777 1081.44 515.729C1081.4 515.68 1081.33 515.653 1081.26 515.652ZM1079.52 508.611C1078.85 508.615 1078.2 508.885 1077.73 509.361C1077.26 509.838 1076.99 510.482 1077 511.152C1076.99 511.484 1077.06 511.814 1077.18 512.121C1077.31 512.429 1077.5 512.709 1077.73 512.945C1077.96 513.181 1078.24 513.369 1078.55 513.498C1078.86 513.627 1079.19 513.694 1079.52 513.696C1080.19 513.692 1080.84 513.421 1081.31 512.944C1081.78 512.467 1082.05 511.823 1082.04 511.152C1082.04 509.747 1080.91 508.611 1079.52 508.611H1079.52ZM1110.49 517.192H1109.85V518.02H1110.49C1110.81 518.02 1111 517.86 1111 517.606C1111 517.335 1110.81 517.192 1110.49 517.192ZM1110.91 518.372L1111.61 519.361H1111.02L1110.39 518.455H1109.85V519.361H1109.35V516.741H1110.51C1111.11 516.741 1111.51 517.054 1111.51 517.577C1111.52 517.759 1111.46 517.938 1111.35 518.083C1111.24 518.229 1111.09 518.331 1110.91 518.372ZM1110.36 515.871C1109.09 515.871 1108.13 516.887 1108.13 518.131C1108.13 519.373 1109.08 520.375 1110.35 520.375C1111.62 520.375 1112.58 519.359 1112.58 518.115C1112.58 516.873 1111.62 515.871 1110.36 515.871ZM1110.35 520.624C1110.02 520.624 1109.7 520.558 1109.39 520.432C1109.09 520.307 1108.82 520.122 1108.59 519.891C1108.36 519.659 1108.18 519.384 1108.05 519.082C1107.93 518.78 1107.87 518.457 1107.87 518.131C1107.87 516.762 1108.97 515.622 1110.36 515.622C1110.69 515.623 1111.01 515.688 1111.31 515.814C1111.61 515.94 1111.89 516.124 1112.12 516.355C1112.35 516.587 1112.53 516.862 1112.65 517.164C1112.78 517.466 1112.84 517.789 1112.83 518.115C1112.83 519.484 1111.74 520.626 1110.35 520.626V520.624Z" fill="#2C856B"/>
<path d="M595 484C587.821 484 582 489.82 582 497C582 504.18 587.821 510 595 510C602.18 510 608 504.18 608 497C608 489.82 602.18 484 595 484ZM601.342 502.74C601.134 503.11 600.75 503.318 600.354 503.318C600.167 503.318 599.977 503.272 599.803 503.174C598.179 502.264 596.41 501.707 594.542 501.517C592.668 501.33 590.818 501.52 589.042 502.087C588.448 502.276 587.811 501.949 587.621 501.355C587.431 500.76 587.759 500.124 588.354 499.934C590.427 499.272 592.587 499.047 594.77 499.268C596.948 499.49 599.013 500.14 600.908 501.202C601.453 501.506 601.647 502.195 601.342 502.74ZM602.899 498.792C602.698 499.178 602.304 499.4 601.896 499.4C601.719 499.4 601.541 499.359 601.374 499.272C599.379 498.233 597.223 497.589 594.964 497.36C592.688 497.127 590.433 497.33 588.258 497.957C587.657 498.128 587.031 497.784 586.859 497.184C586.686 496.584 587.032 495.958 587.631 495.785C590.086 495.077 592.63 494.85 595.193 495.11C597.738 495.369 600.169 496.094 602.419 497.267C602.972 497.556 603.188 498.238 602.899 498.792ZM603.461 495.507C603.292 495.507 603.12 495.468 602.958 495.388C600.59 494.207 598.043 493.472 595.387 493.202C592.726 492.93 590.077 493.141 587.516 493.825C586.913 493.985 586.293 493.627 586.132 493.024C585.971 492.421 586.33 491.801 586.933 491.64C589.761 490.885 592.683 490.655 595.616 490.953C598.545 491.25 601.355 492.062 603.967 493.364C604.526 493.643 604.752 494.322 604.474 494.88C604.276 495.278 603.877 495.507 603.461 495.507Z" fill="#2C856B"/>
<rect x="993" y="611" width="185" height="185" fill="#2C856B"/>
<rect x="993" y="900" width="185" height="185" fill="#2C856B"/>
<rect x="1213" y="611" width="185" height="185" fill="#2C856B"/>
<rect x="1213" y="900" width="185" height="185" fill="#2C856B"/>
<rect x="1540" y="611" width="185" height="185" fill="#2C856B"/>
<rect x="1540" y="900" width="185" height="185" fill="#2C856B"/>
<path d="M1377.5 254C1368.39 254 1361 261.387 1361 270.5C1361 279.613 1368.39 287 1377.5 287C1386.61 287 1394 279.613 1394 270.5C1394 261.387 1386.61 254 1377.5 254ZM1385.55 277.786C1385.29 278.255 1384.8 278.519 1384.3 278.519C1384.06 278.519 1383.82 278.46 1383.6 278.336C1381.54 277.181 1379.29 276.474 1376.92 276.234C1374.54 275.996 1372.19 276.237 1369.94 276.957C1369.18 277.197 1368.38 276.781 1368.13 276.028C1367.89 275.273 1368.31 274.465 1369.06 274.224C1371.7 273.383 1374.44 273.098 1377.21 273.379C1379.97 273.661 1382.59 274.486 1385 275.834C1385.69 276.219 1385.94 277.094 1385.55 277.786ZM1387.53 272.774C1387.27 273.265 1386.77 273.546 1386.25 273.546C1386.03 273.546 1385.8 273.495 1385.59 273.383C1383.06 272.064 1380.32 271.248 1377.45 270.957C1374.57 270.661 1371.7 270.919 1368.94 271.715C1368.18 271.931 1367.39 271.495 1367.17 270.733C1366.95 269.972 1367.39 269.177 1368.15 268.957C1371.26 268.059 1374.49 267.771 1377.75 268.101C1380.98 268.43 1384.06 269.35 1386.92 270.839C1387.62 271.205 1387.89 272.072 1387.53 272.774ZM1388.24 268.605C1388.02 268.605 1387.81 268.556 1387.6 268.454C1384.6 266.956 1381.36 266.022 1377.99 265.68C1374.61 265.334 1371.25 265.602 1368 266.47C1367.24 266.673 1366.45 266.219 1366.24 265.453C1366.04 264.688 1366.5 263.901 1367.26 263.697C1370.85 262.739 1374.56 262.447 1378.28 262.825C1382 263.202 1385.57 264.232 1388.88 265.885C1389.59 266.239 1389.88 267.101 1389.52 267.809C1389.27 268.314 1388.77 268.605 1388.24 268.605Z" fill="white"/>
<rect x="1346" y="-96" width="262" height="337" fill="#D5E7E1"/>
<g filter="url(#filter4_d)">
<rect x="121" y="802" width="181" height="17" rx="8.5" fill="#2C856B"/>
</g>
<g filter="url(#filter5_d)">
<rect x="121" y="827" width="153" height="19" rx="9.5" fill="#2C856B"/>
</g>
<g filter="url(#filter6_d)">
<rect x="121" y="855" width="174" height="18" rx="9" fill="#2C856B"/>
</g>
<rect x="121" y="560" width="214" height="223" fill="#2C856B"/>
<path fill-rule="evenodd" clip-rule="evenodd" d="M267 963C267 984.539 249.539 1002 228 1002C206.461 1002 189 984.539 189 963C189 941.461 206.461 924 228 924C249.539 924 267 941.461 267 963ZM241.754 964.055L220.078 976.57C219.265 977.039 218.25 976.453 218.25 975.514V950.486C218.25 949.547 219.265 948.961 220.078 949.43L241.754 961.945C242.567 962.414 242.567 963.586 241.754 964.055Z" fill="#2C856B"/>
<path fill-rule="evenodd" clip-rule="evenodd" d="M1595 271C1595 280.941 1586.94 289 1577 289C1567.06 289 1559 280.941 1559 271C1559 261.059 1567.06 253 1577 253C1586.94 253 1595 261.059 1595 271ZM1583.35 271.487L1573.34 277.263C1572.97 277.479 1572.5 277.209 1572.5 276.776V265.224C1572.5 264.791 1572.97 264.521 1573.34 264.737L1583.35 270.513C1583.72 270.729 1583.72 271.271 1583.35 271.487Z" fill="white"/>
<g filter="url(#filter7_d)">
<rect x="1412" y="258" width="110" height="10" rx="5" fill="white"/>
</g>
<g filter="url(#filter8_d)">
<rect x="1412" y="273" width="93" height="11" rx="5.5" fill="white"/>
</g>
<g filter="url(#filter9_d)">
<rect x="583" y="522" width="124" height="16" rx="8" fill="#2C856B"/>
</g>
<g filter="url(#filter10_d)">
<rect x="583" y="547" width="104" height="17" rx="8.5" fill="#2C856B"/>
</g>
<path fill-rule="evenodd" clip-rule="evenodd" d="M667 606C667 618.703 656.703 629 644 629C631.297 629 621 618.703 621 606C621 593.297 631.297 583 644 583C656.703 583 667 593.297 667 606ZM652.111 606.622L639.328 614.003C638.849 614.279 638.25 613.934 638.25 613.38V598.62C638.25 598.066 638.849 597.721 639.328 597.997L652.111 605.378C652.59 605.654 652.59 606.346 652.111 606.622Z" fill="#2C856B"/>
<g filter="url(#filter11_d)">
<rect x="993" y="813" width="140" height="13" rx="6.5" fill="#D5E7E1"/>
</g>
<g filter="url(#filter12_d)">
<rect x="1213" y="813" width="140" height="13" rx="6.5" fill="#D5E7E1"/>
</g>
<g filter="url(#filter13_d)">
<rect x="1540" y="813" width="140" height="13" rx="6.5" fill="#D5E7E1"/>
</g>
<g filter="url(#filter14_d)">
<rect x="993" y="832" width="118" height="14" rx="7" fill="#D5E7E1"/>
</g>
<g filter="url(#filter15_d)">
<rect x="1213" y="832" width="118" height="14" rx="7" fill="#D5E7E1"/>
</g>
<g filter="url(#filter16_d)">
<rect x="1540" y="832" width="118" height="14" rx="7" fill="#D5E7E1"/>
</g>
<g filter="url(#filter17_d)">
<rect x="485" y="738" width="322" height="611" rx="40" fill="white"/>
</g>
<path d="M777 841L515 841L515 785C515 779.477 519.477 775 525 775L767 775C772.523 775 777 779.477 777 785L777 841Z" fill="#2C856B"/>
<path fill-rule="evenodd" clip-rule="evenodd" d="M646.5 827C656.717 827 665 818.717 665 808.5C665 798.283 656.717 790 646.5 790C636.283 790 628 798.283 628 808.5C628 818.717 636.283 827 646.5 827Z" fill="#393939" fill-opacity="0.2"/>
<rect x="532" y="797.355" width="30.2021" height="5.05555" rx="2.52778" fill="#393939" fill-opacity="0.2"/>
<rect x="532" y="807" width="30.2021" height="5.05555" rx="2.52778" fill="#393939" fill-opacity="0.2"/>
<rect x="532" y="816.944" width="30.2021" height="5.05555" rx="2.52778" fill="#393939" fill-opacity="0.2"/>
<path fill-rule="evenodd" clip-rule="evenodd" d="M772.461 909.757C772.461 910.019 772.437 915.81 772.437 915.81C772.437 918.988 774.306 921.722 777 922.993C773.481 922.928 770.199 921.902 767.401 920.166C765.149 921.939 762.311 923 759.223 923C751.912 923 745.985 917.07 745.985 909.756C745.985 902.442 751.912 897.27 759.223 897.27C766.534 897.27 772.461 902.443 772.461 909.757Z" fill="#D5E7E1"/>
<rect width="200.461" height="56" rx="17" transform="matrix(-1 0 0 1 772.461 867)" fill="#D5E7E1"/>
<rect x="633.273" y="881.378" width="117.251" height="6.81081" rx="3.40541" fill="#2F7661" fill-opacity="0.2"/>
<rect x="674.878" y="898.784" width="75.6458" height="6.81081" rx="3.40541" fill="#2F7661" fill-opacity="0.2"/>
<rect x="515" y="945" width="214" height="82" rx="17" fill="#2C856B"/>
<path d="M611.022 999.14V997.11H612.112C612.802 997.11 613.222 997.5 613.222 998.13C613.222 998.74 612.802 999.14 612.112 999.14H611.022ZM612.282 1000.33C613.682 1000.33 614.612 999.41 614.612 998.12C614.612 996.84 613.682 995.91 612.282 995.91H609.632V1003H611.012V1000.33H612.282ZM621.226 1003V1001.68H618.066V995.91H616.686V1003H621.226ZM627.994 1003H629.494L626.794 995.91H625.194L622.474 1003H623.934L624.524 1001.38H627.404L627.994 1003ZM625.964 997.44L626.944 1000.12H624.984L625.964 997.44ZM632.41 1000.02V1003H633.79V1000.02L636.29 995.91H634.74L633.15 998.72L631.56 995.91H629.94L632.41 1000.02ZM642.263 999.45C642.263 997.85 643.383 997.09 644.473 997.09C645.573 997.09 646.693 997.85 646.693 999.45C646.693 1001.05 645.573 1001.81 644.473 1001.81C643.383 1001.81 642.263 1001.05 642.263 999.45ZM640.833 999.46C640.833 1001.74 642.553 1003.15 644.473 1003.15C646.403 1003.15 648.123 1001.74 648.123 999.46C648.123 997.17 646.403 995.76 644.473 995.76C642.553 995.76 640.833 997.17 640.833 999.46ZM656.408 1003V995.91H655.028V1000.6L652.078 995.91H650.358V1003H651.738V997.97L654.958 1003H656.408ZM667.216 997.6C667.056 996.8 666.396 995.76 664.676 995.76C663.336 995.76 662.206 996.72 662.206 997.98C662.206 999.05 662.936 999.78 664.066 1000.01L665.056 1000.21C665.606 1000.32 665.916 1000.64 665.916 1001.05C665.916 1001.55 665.506 1001.92 664.766 1001.92C663.766 1001.92 663.276 1001.29 663.216 1000.59L661.936 1000.93C662.046 1001.94 662.876 1003.15 664.756 1003.15C666.406 1003.15 667.316 1002.05 667.316 1000.96C667.316 999.96 666.626 999.12 665.336 998.87L664.346 998.68C663.826 998.58 663.576 998.27 663.576 997.88C663.576 997.41 664.016 996.98 664.686 996.98C665.586 996.98 665.906 997.59 665.976 997.98L667.216 997.6ZM670.94 999.14V997.11H672.03C672.72 997.11 673.14 997.5 673.14 998.13C673.14 998.74 672.72 999.14 672.03 999.14H670.94ZM672.2 1000.33C673.6 1000.33 674.53 999.41 674.53 998.12C674.53 996.84 673.6 995.91 672.2 995.91H669.55V1003H670.93V1000.33H672.2ZM677.614 999.45C677.614 997.85 678.734 997.09 679.824 997.09C680.924 997.09 682.044 997.85 682.044 999.45C682.044 1001.05 680.924 1001.81 679.824 1001.81C678.734 1001.81 677.614 1001.05 677.614 999.45ZM676.184 999.46C676.184 1001.74 677.904 1003.15 679.824 1003.15C681.754 1003.15 683.474 1001.74 683.474 999.46C683.474 997.17 681.754 995.76 679.824 995.76C677.904 995.76 676.184 997.17 676.184 999.46ZM690.695 997.22V995.91H684.825V997.22H687.065V1003H688.455V997.22H690.695ZM694.086 1003V995.91H692.686V1003H694.086ZM698.133 1003V1000.24H700.883V998.97H698.123V997.22H701.223V995.91H696.743V1003H698.133ZM705.206 1000.02V1003H706.586V1000.02L709.086 995.91H707.536L705.946 998.72L704.356 995.91H702.736L705.206 1000.02Z" fill="white"/>
<g filter="url(#filter18_d)">
<rect x="585" y="965" width="77" height="7" rx="3.5" fill="white"/>
</g>
<g filter="url(#filter19_d)">
<rect x="585" y="975" width="65" height="8" rx="4" fill="white"/>
</g>
<rect x="529" y="960" width="49" height="51" fill="white"/>
<path d="M594 989C589.03 989 585 993.029 585 998C585 1002.97 589.03 1007 594 1007C598.971 1007 603 1002.97 603 998C603 993.029 598.971 989 594 989ZM598.39 1001.97C598.247 1002.23 597.981 1002.37 597.707 1002.37C597.578 1002.37 597.446 1002.34 597.325 1002.27C596.201 1001.64 594.976 1001.26 593.683 1001.13C592.386 1001 591.105 1001.13 589.875 1001.52C589.464 1001.65 589.023 1001.43 588.891 1001.02C588.76 1000.6 588.987 1000.16 589.399 1000.03C590.834 999.573 592.329 999.417 593.841 999.57C595.348 999.724 596.778 1000.17 598.09 1000.91C598.467 1001.12 598.602 1001.6 598.39 1001.97ZM599.469 999.24C599.329 999.508 599.056 999.662 598.774 999.662C598.652 999.662 598.528 999.634 598.413 999.573C597.032 998.853 595.539 998.408 593.975 998.249C592.4 998.088 590.838 998.228 589.332 998.663C588.917 998.781 588.483 998.543 588.364 998.127C588.244 997.712 588.484 997.278 588.899 997.158C590.598 996.669 592.359 996.512 594.134 996.692C595.896 996.871 597.579 997.373 599.136 998.185C599.519 998.385 599.668 998.857 599.469 999.24ZM599.858 996.966C599.741 996.966 599.622 996.94 599.509 996.884C597.87 996.067 596.107 995.558 594.268 995.371C592.426 995.182 590.592 995.328 588.819 995.802C588.401 995.913 587.972 995.665 587.861 995.247C587.75 994.83 587.998 994.401 588.415 994.289C590.373 993.767 592.396 993.607 594.426 993.814C596.454 994.019 598.399 994.581 600.208 995.483C600.595 995.676 600.752 996.146 600.559 996.532C600.422 996.807 600.145 996.966 599.858 996.966Z" fill="white"/>
<g filter="url(#filter20_d)">
<rect x="67" y="-135" width="749" height="478" rx="40" fill="#A1C3D1"/>
</g>
<rect x="77" y="-135" width="749" height="478" rx="40" fill="white"/>
<rect x="118" y="117" width="323" height="185" rx="10" fill="#2C856B" fill-opacity="0.2"/>
<rect x="118" y="-83" width="323" height="185" rx="10" fill="#2C856B" fill-opacity="0.2"/>
<rect x="456" y="-83" width="323" height="185" rx="10" fill="#2C856B" fill-opacity="0.2"/>
<rect x="456" y="117" width="323" height="183" rx="10" fill="#2C856B"/>
<rect opacity="0.3" x="487" y="271" width="261" height="5" fill="white"/>
<rect x="487" y="271" width="117" height="5" fill="white"/>
<rect width="101" height="30" transform="translate(588 164)" fill="black" fill-opacity="0.01"/>
<path d="M612.436 177.3C607.496 174.437 599.348 174.174 594.632 175.57C594.452 175.623 594.262 175.641 594.074 175.622C593.886 175.604 593.704 175.55 593.538 175.463C593.372 175.377 593.225 175.259 593.106 175.118C592.988 174.976 592.899 174.814 592.845 174.639C592.734 174.285 592.772 173.903 592.95 173.577C593.129 173.25 593.434 173.004 593.8 172.894C599.212 171.29 608.212 171.6 613.899 174.894C614.58 175.289 614.804 176.146 614.4 176.81C614.305 176.968 614.179 177.106 614.029 177.216C613.878 177.326 613.707 177.406 613.524 177.452C613.341 177.497 613.151 177.507 612.964 177.481C612.777 177.455 612.597 177.394 612.436 177.3ZM612.274 181.54C612.193 181.67 612.086 181.783 611.959 181.873C611.832 181.963 611.688 182.028 611.535 182.064C611.382 182.099 611.224 182.105 611.068 182.081C610.913 182.057 610.764 182.004 610.63 181.924C606.513 179.452 600.233 178.737 595.36 180.181C595.209 180.225 595.051 180.24 594.894 180.225C594.738 180.209 594.586 180.164 594.447 180.092C594.309 180.02 594.186 179.922 594.087 179.804C593.988 179.685 593.914 179.55 593.87 179.404C593.778 179.109 593.81 178.791 593.959 178.519C594.108 178.247 594.362 178.042 594.666 177.95C600.231 176.301 607.151 177.1 611.881 179.937C612.442 180.275 612.619 180.992 612.274 181.54ZM610.399 185.611C610.334 185.716 610.249 185.807 610.148 185.879C610.047 185.951 609.932 186.003 609.81 186.032C609.687 186.061 609.56 186.066 609.436 186.047C609.312 186.028 609.193 185.985 609.086 185.921C605.486 183.775 600.958 183.29 595.623 184.48C595.5 184.507 595.373 184.51 595.249 184.489C595.125 184.469 595.006 184.424 594.9 184.359C594.794 184.294 594.702 184.209 594.63 184.11C594.558 184.01 594.507 183.897 594.48 183.779C594.422 183.539 594.465 183.287 594.6 183.077C594.735 182.868 594.95 182.719 595.198 182.662C601.035 181.36 606.043 181.921 610.083 184.33C610.299 184.461 610.454 184.668 610.513 184.908C610.572 185.148 610.531 185.4 610.399 185.611ZM603.371 164.042C594.907 164.042 588.047 170.737 588.047 178.996C588.047 187.256 594.907 193.95 603.371 193.95C611.835 193.95 618.696 187.256 618.696 178.996C618.696 170.737 611.835 164.042 603.37 164.042H603.371ZM629.739 177.847C627.093 177.231 626.622 176.8 626.622 175.891C626.622 175.034 627.451 174.456 628.681 174.456C629.874 174.456 631.057 174.895 632.298 175.797C632.335 175.825 632.382 175.835 632.428 175.829C632.451 175.825 632.473 175.817 632.493 175.806C632.512 175.794 632.529 175.778 632.542 175.76L633.835 173.982C633.86 173.947 633.871 173.904 633.865 173.861C633.859 173.819 633.837 173.78 633.802 173.752C632.326 172.596 630.663 172.035 628.72 172.035C625.863 172.035 623.868 173.707 623.868 176.101C623.868 178.669 625.59 179.576 628.564 180.279C631.096 180.847 631.523 181.325 631.523 182.177C631.523 183.121 630.66 183.709 629.269 183.709C627.724 183.709 626.464 183.201 625.055 182.01C625.038 181.995 625.018 181.984 624.996 181.977C624.974 181.97 624.951 181.967 624.928 181.969C624.905 181.97 624.883 181.977 624.862 181.987C624.842 181.997 624.824 182.012 624.809 182.029L623.36 183.711C623.331 183.745 623.316 183.788 623.319 183.832C623.322 183.876 623.343 183.917 623.377 183.946C625.018 185.375 627.034 186.129 629.209 186.129C632.289 186.129 634.277 184.487 634.277 181.947C634.277 179.8 632.963 178.612 629.739 177.847ZM643.478 180.725C643.478 182.537 642.333 183.804 640.694 183.804C639.075 183.804 637.853 182.481 637.853 180.725C637.853 178.97 639.074 177.647 640.695 177.647C642.307 177.647 643.478 178.941 643.478 180.725ZM641.243 175.3C639.909 175.3 638.813 175.814 637.911 176.865V175.682C637.911 175.638 637.893 175.595 637.861 175.563C637.829 175.531 637.785 175.513 637.739 175.512H635.369C635.346 175.513 635.323 175.517 635.302 175.526C635.281 175.534 635.262 175.547 635.246 175.563C635.23 175.579 635.217 175.597 635.208 175.618C635.2 175.638 635.195 175.66 635.196 175.682V188.825C635.196 188.919 635.273 188.995 635.369 188.995H637.739C637.785 188.994 637.829 188.976 637.861 188.944C637.893 188.912 637.911 188.87 637.911 188.825V184.676C638.815 185.665 639.909 186.147 641.243 186.147C643.722 186.147 646.232 184.285 646.232 180.725C646.232 177.164 643.722 175.3 641.243 175.3ZM652.666 183.822C650.967 183.822 649.688 182.491 649.688 180.725C649.688 178.952 650.923 177.665 652.627 177.665C654.336 177.665 655.625 178.997 655.625 180.765C655.625 182.536 654.382 183.822 652.666 183.822ZM652.666 175.301C649.473 175.301 646.971 177.701 646.971 180.764C646.971 183.794 649.456 186.169 652.627 186.169C655.831 186.169 658.34 183.777 658.34 180.725C658.34 177.684 655.849 175.3 652.666 175.3V175.301ZM665.159 175.512H662.552V172.912C662.553 172.89 662.548 172.868 662.54 172.848C662.531 172.827 662.519 172.808 662.502 172.792C662.486 172.777 662.467 172.764 662.446 172.755C662.425 172.747 662.402 172.742 662.379 172.742H660.009C659.963 172.743 659.919 172.761 659.887 172.793C659.855 172.824 659.837 172.867 659.837 172.911V175.512H658.697C658.675 175.513 658.652 175.517 658.631 175.526C658.61 175.534 658.591 175.547 658.575 175.563C658.559 175.579 658.546 175.597 658.538 175.618C658.529 175.638 658.525 175.66 658.525 175.682V177.67C658.525 177.762 658.603 177.839 658.697 177.839H659.837V182.98C659.837 185.057 660.896 186.111 662.986 186.111C663.835 186.111 664.54 185.94 665.205 185.571C665.232 185.557 665.254 185.535 665.27 185.51C665.285 185.484 665.293 185.455 665.294 185.425V183.532C665.293 183.504 665.286 183.475 665.271 183.45C665.257 183.425 665.236 183.404 665.211 183.389C665.186 183.374 665.157 183.365 665.127 183.364C665.098 183.362 665.069 183.368 665.042 183.381C664.585 183.606 664.145 183.709 663.652 183.709C662.892 183.709 662.551 183.371 662.551 182.617V177.837H665.159C665.182 177.837 665.205 177.833 665.226 177.824C665.247 177.816 665.266 177.803 665.282 177.787C665.298 177.771 665.311 177.753 665.32 177.732C665.328 177.712 665.333 177.69 665.332 177.667V175.68C665.333 175.658 665.328 175.636 665.32 175.616C665.311 175.595 665.298 175.576 665.282 175.561C665.266 175.545 665.247 175.533 665.226 175.524C665.204 175.516 665.182 175.511 665.159 175.511V175.512ZM674.242 175.522V175.204C674.242 174.264 674.611 173.844 675.44 173.844C675.933 173.844 676.331 173.94 676.775 174.085C676.801 174.093 676.829 174.095 676.856 174.091C676.883 174.086 676.909 174.076 676.931 174.06C676.953 174.044 676.971 174.024 676.984 174C676.997 173.976 677.003 173.949 677.003 173.922V171.975C677.003 171.939 676.992 171.903 676.969 171.874C676.947 171.845 676.916 171.823 676.88 171.812C676.243 171.623 675.579 171.53 674.912 171.537C672.723 171.537 671.566 172.74 671.566 175.012V175.502H670.428C670.382 175.503 670.337 175.521 670.305 175.552C670.272 175.584 670.254 175.627 670.254 175.671V177.669C670.254 177.762 670.332 177.839 670.428 177.839H671.567V185.769C671.567 185.862 671.644 185.937 671.739 185.937H674.109C674.204 185.937 674.281 185.862 674.281 185.769V177.837H676.494L679.883 185.765C679.498 186.599 679.119 186.765 678.604 186.765C678.185 186.765 677.746 186.642 677.296 186.402C677.275 186.392 677.252 186.385 677.228 186.383C677.205 186.381 677.181 186.383 677.158 186.39C677.136 186.398 677.115 186.41 677.098 186.425C677.08 186.441 677.066 186.46 677.056 186.481L676.253 188.2C676.235 188.239 676.232 188.283 676.246 188.323C676.259 188.364 676.288 188.398 676.327 188.419C677.097 188.845 677.971 189.063 678.859 189.051C680.607 189.051 681.574 188.256 682.427 186.116L686.537 175.752C686.548 175.727 686.551 175.699 686.548 175.672C686.545 175.644 686.535 175.618 686.519 175.595C686.503 175.572 686.482 175.554 686.457 175.541C686.433 175.528 686.405 175.521 686.377 175.521H683.91C683.874 175.521 683.838 175.532 683.809 175.553C683.779 175.573 683.757 175.602 683.745 175.635L681.219 182.677L678.452 175.63C678.44 175.598 678.418 175.57 678.389 175.551C678.36 175.532 678.325 175.521 678.29 175.521H674.242V175.522ZM668.976 175.512H666.607C666.56 175.513 666.516 175.531 666.484 175.563C666.452 175.595 666.434 175.638 666.434 175.682V185.769C666.434 185.862 666.512 185.937 666.608 185.937H668.977C669.072 185.937 669.15 185.862 669.15 185.769V175.681C669.15 175.637 669.131 175.594 669.099 175.562C669.066 175.531 669.022 175.513 668.976 175.512ZM667.803 170.92C667.35 170.923 666.917 171.099 666.598 171.409C666.28 171.72 666.102 172.14 666.104 172.577C666.103 172.794 666.146 173.009 666.231 173.21C666.316 173.41 666.44 173.593 666.598 173.747C666.756 173.901 666.944 174.023 667.151 174.107C667.358 174.191 667.58 174.235 667.804 174.236C668.257 174.234 668.691 174.057 669.009 173.746C669.328 173.435 669.506 173.015 669.503 172.577C669.503 171.661 668.742 170.92 667.804 170.92H667.803ZM688.657 176.516H688.223V177.056H688.657C688.873 177.056 689.003 176.952 689.003 176.786C689.003 176.61 688.873 176.516 688.657 176.516ZM688.938 177.286L689.411 177.931H689.012L688.588 177.34H688.223V177.931H687.89V176.222H688.67C689.076 176.222 689.344 176.426 689.344 176.767C689.35 176.886 689.313 177.003 689.238 177.098C689.164 177.193 689.058 177.259 688.938 177.286ZM688.569 175.655C687.714 175.655 687.068 176.317 687.068 177.129C687.068 177.939 687.71 178.592 688.56 178.592C689.414 178.592 690.062 177.93 690.062 177.119C690.062 176.309 689.418 175.655 688.569 175.655ZM688.56 178.755C688.34 178.755 688.122 178.712 687.918 178.63C687.715 178.548 687.531 178.428 687.376 178.277C687.221 178.125 687.099 177.946 687.016 177.749C686.933 177.552 686.891 177.341 686.893 177.129C686.893 176.236 687.631 175.492 688.569 175.492C688.789 175.493 689.007 175.536 689.21 175.618C689.413 175.7 689.598 175.82 689.753 175.971C689.907 176.122 690.03 176.301 690.113 176.498C690.196 176.695 690.237 176.906 690.235 177.119C690.235 178.011 689.497 178.756 688.56 178.756V178.755Z" fill="white"/>
<g filter="url(#filter21_d)">
<rect x="591" y="209" width="135" height="12" rx="6" fill="white"/>
</g>
<g filter="url(#filter22_d)">
<rect x="591" y="227" width="114" height="14" rx="7" fill="white"/>
</g>
<rect x="484" y="159" width="86" height="89" fill="white"/>
<g filter="url(#filter23_d)">
<circle cx="1059" cy="202" r="119" fill="#A1C3D1"/>
</g>
<circle cx="1069" cy="202" r="119" fill="white"/>
<path d="M1146.62 187.452V199.057L1125.78 187.264C1124.82 186.721 1123.62 187.399 1123.62 188.484V214.596C1123.62 215.681 1124.82 216.359 1125.78 215.816L1146.62 204.023V215.627C1146.62 216.406 1147.27 217.036 1148.06 217.036H1150.94C1151.73 217.036 1152.37 216.406 1152.37 215.627V187.452C1152.37 186.674 1151.73 186.044 1150.94 186.044H1148.06C1147.27 186.044 1146.62 186.674 1146.62 187.452Z" fill="#27856A"/>
<path d="M1011.52 186.166L989.313 199.246V186.375C989.313 185.512 988.628 184.812 987.782 184.812H984.719C983.873 184.812 983.188 185.512 983.188 186.375V217.625C983.188 218.488 983.873 219.188 984.719 219.188H987.782C988.628 219.188 989.313 218.488 989.313 217.625V204.754L1011.52 217.834C1012.54 218.436 1013.81 217.684 1013.81 216.481V187.519C1013.81 186.316 1012.54 185.564 1011.52 186.166Z" fill="#27856A"/>
<path fill-rule="evenodd" clip-rule="evenodd" d="M1097 202C1097 217.464 1084.46 230 1069 230C1053.54 230 1041 217.464 1041 202C1041 186.536 1053.54 174 1069 174C1084.46 174 1097 186.536 1097 202ZM1078.87 202.758L1063.31 211.742C1062.73 212.079 1062 211.658 1062 210.985V193.015C1062 192.342 1062.73 191.921 1063.31 192.258L1078.87 201.242C1079.46 201.579 1079.46 202.421 1078.87 202.758Z" fill="#2C856B"/>
<g filter="url(#filter24_d)">
<rect x="988" y="140" width="89" height="14" rx="7" fill="#2C856B"/>
</g>
<g filter="url(#filter25_d)">
<rect x="1083" y="140" width="68" height="15" rx="7.5" fill="#2C856B"/>
</g>
<path d="M1069 97C1061.82 97 1056 102.82 1056 110C1056 117.18 1061.82 123 1069 123C1076.18 123 1082 117.18 1082 110C1082 102.82 1076.18 97 1069 97ZM1075.34 115.74C1075.13 116.11 1074.75 116.318 1074.35 116.318C1074.17 116.318 1073.98 116.272 1073.8 116.174C1072.18 115.264 1070.41 114.707 1068.54 114.517C1066.67 114.33 1064.82 114.52 1063.04 115.087C1062.45 115.276 1061.81 114.949 1061.62 114.355C1061.43 113.76 1061.76 113.124 1062.35 112.934C1064.43 112.272 1066.59 112.047 1068.77 112.268C1070.95 112.49 1073.01 113.14 1074.91 114.202C1075.45 114.506 1075.65 115.195 1075.34 115.74ZM1076.9 111.792C1076.7 112.178 1076.3 112.4 1075.9 112.4C1075.72 112.4 1075.54 112.359 1075.37 112.272C1073.38 111.233 1071.22 110.589 1068.96 110.36C1066.69 110.127 1064.43 110.33 1062.26 110.957C1061.66 111.128 1061.03 110.784 1060.86 110.184C1060.69 109.584 1061.03 108.958 1061.63 108.785C1064.09 108.077 1066.63 107.85 1069.19 108.11C1071.74 108.369 1074.17 109.094 1076.42 110.267C1076.97 110.556 1077.19 111.238 1076.9 111.792ZM1077.46 108.507C1077.29 108.507 1077.12 108.468 1076.96 108.388C1074.59 107.207 1072.04 106.472 1069.39 106.202C1066.73 105.93 1064.08 106.141 1061.52 106.825C1060.91 106.985 1060.29 106.627 1060.13 106.024C1059.97 105.421 1060.33 104.801 1060.93 104.64C1063.76 103.885 1066.68 103.655 1069.62 103.953C1072.54 104.25 1075.35 105.062 1077.97 106.364C1078.53 106.643 1078.75 107.322 1078.47 107.88C1078.28 108.278 1077.88 108.507 1077.46 108.507Z" fill="#2C856B"/>
<path d="M1084.57 258.745C1080.67 254.836 1074.52 254.553 1070.26 258.089C1070.26 258.093 1069.71 258.543 1069 258.543C1068.27 258.543 1067.75 258.102 1067.73 258.085C1063.48 254.553 1057.33 254.836 1053.43 258.745C1051.42 260.752 1050.31 263.421 1050.31 266.261C1050.31 269.101 1051.42 271.77 1053.39 273.736L1065.72 288.175C1066.54 289.136 1067.74 289.687 1069 289.687C1070.26 289.687 1071.46 289.136 1072.28 288.176L1084.57 273.779C1088.72 269.634 1088.72 262.89 1084.57 258.745ZM1083.52 272.803L1071.19 287.242C1070.64 287.882 1069.84 288.25 1069 288.25C1068.16 288.25 1067.36 287.883 1066.81 287.242L1054.44 272.762C1052.71 271.025 1051.75 268.717 1051.75 266.261C1051.75 263.805 1052.71 261.497 1054.44 259.761C1056.24 257.961 1058.59 257.05 1060.94 257.05C1063.01 257.05 1065.08 257.753 1066.79 259.173C1066.88 259.256 1067.73 259.981 1069 259.981C1070.23 259.981 1071.1 259.264 1071.19 259.19C1074.86 256.136 1080.18 256.381 1083.56 259.761C1087.14 263.345 1087.14 269.177 1083.52 272.803Z" fill="#27856A"/>
</g>
<defs>
<filter id="filter0_d" x="806" y="397" width="962" height="833" filterUnits="userSpaceOnUse" color-interpolation-filters="sRGB">
<feFlood flood-opacity="0" result="BackgroundImageFix"/>
<feColorMatrix in="SourceAlpha" type="matrix" values="0 0 0 0 0 0 0 0 0 0 0 0 0 0 0 0 0 0 127 0"/>
<feOffset dx="-27" dy="18"/>
<feGaussianBlur stdDeviation="27"/>
<feColorMatrix type="matrix" values="0 0 0 0 0 0 0 0 0 0 0 0 0 0 0 0 0 0 0.1 0"/>
<feBlend mode="normal" in2="BackgroundImageFix" result="effect1_dropShadow"/>
<feBlend mode="normal" in="SourceGraphic" in2="effect1_dropShadow" result="shape"/>
</filter>
<filter id="filter1_d" x="1235" y="-206" width="430" height="613" filterUnits="userSpaceOnUse" color-interpolation-filters="sRGB">
<feFlood flood-opacity="0" result="BackgroundImageFix"/>
<feColorMatrix in="SourceAlpha" type="matrix" values="0 0 0 0 0 0 0 0 0 0 0 0 0 0 0 0 0 0 127 0"/>
<feOffset dx="-27" dy="18"/>
<feGaussianBlur stdDeviation="27"/>
<feColorMatrix type="matrix" values="0 0 0 0 0 0 0 0 0 0 0 0 0 0 0 0 0 0 0.1 0"/>
<feBlend mode="normal" in2="BackgroundImageFix" result="effect1_dropShadow"/>
<feBlend mode="normal" in="SourceGraphic" in2="effect1_dropShadow" result="shape"/>
</filter>
<filter id="filter2_d" x="-14" y="397" width="430" height="719" filterUnits="userSpaceOnUse" color-interpolation-filters="sRGB">
<feFlood flood-opacity="0" result="BackgroundImageFix"/>
<feColorMatrix in="SourceAlpha" type="matrix" values="0 0 0 0 0 0 0 0 0 0 0 0 0 0 0 0 0 0 127 0"/>
<feOffset dx="-27" dy="18"/>
<feGaussianBlur stdDeviation="27"/>
<feColorMatrix type="matrix" values="0 0 0 0 0 0 0 0 0 0 0 0 0 0 0 0 0 0 0.1 0"/>
<feBlend mode="normal" in2="BackgroundImageFix" result="effect1_dropShadow"/>
<feBlend mode="normal" in="SourceGraphic" in2="effect1_dropShadow" result="shape"/>
</filter>
<filter id="filter3_d" x="473" y="429" width="270" height="297" filterUnits="userSpaceOnUse" color-interpolation-filters="sRGB">
<feFlood flood-opacity="0" result="BackgroundImageFix"/>
<feColorMatrix in="SourceAlpha" type="matrix" values="0 0 0 0 0 0 0 0 0 0 0 0 0 0 0 0 0 0 127 0"/>
<feOffset dx="-27" dy="18"/>
<feGaussianBlur stdDeviation="27"/>
<feColorMatrix type="matrix" values="0 0 0 0 0 0 0 0 0 0 0 0 0 0 0 0 0 0 0.1 0"/>
<feBlend mode="normal" in2="BackgroundImageFix" result="effect1_dropShadow"/>
<feBlend mode="normal" in="SourceGraphic" in2="effect1_dropShadow" result="shape"/>
</filter>
<filter id="filter4_d" x="40" y="766" width="289" height="125" filterUnits="userSpaceOnUse" color-interpolation-filters="sRGB">
<feFlood flood-opacity="0" result="BackgroundImageFix"/>
<feColorMatrix in="SourceAlpha" type="matrix" values="0 0 0 0 0 0 0 0 0 0 0 0 0 0 0 0 0 0 127 0"/>
<feOffset dx="-27" dy="18"/>
<feGaussianBlur stdDeviation="27"/>
<feColorMatrix type="matrix" values="0 0 0 0 0 0 0 0 0 0 0 0 0 0 0 0 0 0 0.1 0"/>
<feBlend mode="normal" in2="BackgroundImageFix" result="effect1_dropShadow"/>
<feBlend mode="normal" in="SourceGraphic" in2="effect1_dropShadow" result="shape"/>
</filter>
<filter id="filter5_d" x="40" y="791" width="261" height="127" filterUnits="userSpaceOnUse" color-interpolation-filters="sRGB">
<feFlood flood-opacity="0" result="BackgroundImageFix"/>
<feColorMatrix in="SourceAlpha" type="matrix" values="0 0 0 0 0 0 0 0 0 0 0 0 0 0 0 0 0 0 127 0"/>
<feOffset dx="-27" dy="18"/>
<feGaussianBlur stdDeviation="27"/>
<feColorMatrix type="matrix" values="0 0 0 0 0 0 0 0 0 0 0 0 0 0 0 0 0 0 0.1 0"/>
<feBlend mode="normal" in2="BackgroundImageFix" result="effect1_dropShadow"/>
<feBlend mode="normal" in="SourceGraphic" in2="effect1_dropShadow" result="shape"/>
</filter>
<filter id="filter6_d" x="40" y="819" width="282" height="126" filterUnits="userSpaceOnUse" color-interpolation-filters="sRGB">
<feFlood flood-opacity="0" result="BackgroundImageFix"/>
<feColorMatrix in="SourceAlpha" type="matrix" values="0 0 0 0 0 0 0 0 0 0 0 0 0 0 0 0 0 0 127 0"/>
<feOffset dx="-27" dy="18"/>
<feGaussianBlur stdDeviation="27"/>
<feColorMatrix type="matrix" values="0 0 0 0 0 0 0 0 0 0 0 0 0 0 0 0 0 0 0.1 0"/>
<feBlend mode="normal" in2="BackgroundImageFix" result="effect1_dropShadow"/>
<feBlend mode="normal" in="SourceGraphic" in2="effect1_dropShadow" result="shape"/>
</filter>
<filter id="filter7_d" x="1331" y="222" width="218" height="118" filterUnits="userSpaceOnUse" color-interpolation-filters="sRGB">
<feFlood flood-opacity="0" result="BackgroundImageFix"/>
<feColorMatrix in="SourceAlpha" type="matrix" values="0 0 0 0 0 0 0 0 0 0 0 0 0 0 0 0 0 0 127 0"/>
<feOffset dx="-27" dy="18"/>
<feGaussianBlur stdDeviation="27"/>
<feColorMatrix type="matrix" values="0 0 0 0 0 0 0 0 0 0 0 0 0 0 0 0 0 0 0.1 0"/>
<feBlend mode="normal" in2="BackgroundImageFix" result="effect1_dropShadow"/>
<feBlend mode="normal" in="SourceGraphic" in2="effect1_dropShadow" result="shape"/>
</filter>
<filter id="filter8_d" x="1331" y="237" width="201" height="119" filterUnits="userSpaceOnUse" color-interpolation-filters="sRGB">
<feFlood flood-opacity="0" result="BackgroundImageFix"/>
<feColorMatrix in="SourceAlpha" type="matrix" values="0 0 0 0 0 0 0 0 0 0 0 0 0 0 0 0 0 0 127 0"/>
<feOffset dx="-27" dy="18"/>
<feGaussianBlur stdDeviation="27"/>
<feColorMatrix type="matrix" values="0 0 0 0 0 0 0 0 0 0 0 0 0 0 0 0 0 0 0.1 0"/>
<feBlend mode="normal" in2="BackgroundImageFix" result="effect1_dropShadow"/>
<feBlend mode="normal" in="SourceGraphic" in2="effect1_dropShadow" result="shape"/>
</filter>
<filter id="filter9_d" x="502" y="486" width="232" height="124" filterUnits="userSpaceOnUse" color-interpolation-filters="sRGB">
<feFlood flood-opacity="0" result="BackgroundImageFix"/>
<feColorMatrix in="SourceAlpha" type="matrix" values="0 0 0 0 0 0 0 0 0 0 0 0 0 0 0 0 0 0 127 0"/>
<feOffset dx="-27" dy="18"/>
<feGaussianBlur stdDeviation="27"/>
<feColorMatrix type="matrix" values="0 0 0 0 0 0 0 0 0 0 0 0 0 0 0 0 0 0 0.1 0"/>
<feBlend mode="normal" in2="BackgroundImageFix" result="effect1_dropShadow"/>
<feBlend mode="normal" in="SourceGraphic" in2="effect1_dropShadow" result="shape"/>
</filter>
<filter id="filter10_d" x="502" y="511" width="212" height="125" filterUnits="userSpaceOnUse" color-interpolation-filters="sRGB">
<feFlood flood-opacity="0" result="BackgroundImageFix"/>
<feColorMatrix in="SourceAlpha" type="matrix" values="0 0 0 0 0 0 0 0 0 0 0 0 0 0 0 0 0 0 127 0"/>
<feOffset dx="-27" dy="18"/>
<feGaussianBlur stdDeviation="27"/>
<feColorMatrix type="matrix" values="0 0 0 0 0 0 0 0 0 0 0 0 0 0 0 0 0 0 0.1 0"/>
<feBlend mode="normal" in2="BackgroundImageFix" result="effect1_dropShadow"/>
<feBlend mode="normal" in="SourceGraphic" in2="effect1_dropShadow" result="shape"/>
</filter>
<filter id="filter11_d" x="912" y="777" width="248" height="121" filterUnits="userSpaceOnUse" color-interpolation-filters="sRGB">
<feFlood flood-opacity="0" result="BackgroundImageFix"/>
<feColorMatrix in="SourceAlpha" type="matrix" values="0 0 0 0 0 0 0 0 0 0 0 0 0 0 0 0 0 0 127 0"/>
<feOffset dx="-27" dy="18"/>
<feGaussianBlur stdDeviation="27"/>
<feColorMatrix type="matrix" values="0 0 0 0 0 0 0 0 0 0 0 0 0 0 0 0 0 0 0.1 0"/>
<feBlend mode="normal" in2="BackgroundImageFix" result="effect1_dropShadow"/>
<feBlend mode="normal" in="SourceGraphic" in2="effect1_dropShadow" result="shape"/>
</filter>
<filter id="filter12_d" x="1132" y="777" width="248" height="121" filterUnits="userSpaceOnUse" color-interpolation-filters="sRGB">
<feFlood flood-opacity="0" result="BackgroundImageFix"/>
<feColorMatrix in="SourceAlpha" type="matrix" values="0 0 0 0 0 0 0 0 0 0 0 0 0 0 0 0 0 0 127 0"/>
<feOffset dx="-27" dy="18"/>
<feGaussianBlur stdDeviation="27"/>
<feColorMatrix type="matrix" values="0 0 0 0 0 0 0 0 0 0 0 0 0 0 0 0 0 0 0.1 0"/>
<feBlend mode="normal" in2="BackgroundImageFix" result="effect1_dropShadow"/>
<feBlend mode="normal" in="SourceGraphic" in2="effect1_dropShadow" result="shape"/>
</filter>
<filter id="filter13_d" x="1459" y="777" width="248" height="121" filterUnits="userSpaceOnUse" color-interpolation-filters="sRGB">
<feFlood flood-opacity="0" result="BackgroundImageFix"/>
<feColorMatrix in="SourceAlpha" type="matrix" values="0 0 0 0 0 0 0 0 0 0 0 0 0 0 0 0 0 0 127 0"/>
<feOffset dx="-27" dy="18"/>
<feGaussianBlur stdDeviation="27"/>
<feColorMatrix type="matrix" values="0 0 0 0 0 0 0 0 0 0 0 0 0 0 0 0 0 0 0.1 0"/>
<feBlend mode="normal" in2="BackgroundImageFix" result="effect1_dropShadow"/>
<feBlend mode="normal" in="SourceGraphic" in2="effect1_dropShadow" result="shape"/>
</filter>
<filter id="filter14_d" x="912" y="796" width="226" height="122" filterUnits="userSpaceOnUse" color-interpolation-filters="sRGB">
<feFlood flood-opacity="0" result="BackgroundImageFix"/>
<feColorMatrix in="SourceAlpha" type="matrix" values="0 0 0 0 0 0 0 0 0 0 0 0 0 0 0 0 0 0 127 0"/>
<feOffset dx="-27" dy="18"/>
<feGaussianBlur stdDeviation="27"/>
<feColorMatrix type="matrix" values="0 0 0 0 0 0 0 0 0 0 0 0 0 0 0 0 0 0 0.1 0"/>
<feBlend mode="normal" in2="BackgroundImageFix" result="effect1_dropShadow"/>
<feBlend mode="normal" in="SourceGraphic" in2="effect1_dropShadow" result="shape"/>
</filter>
<filter id="filter15_d" x="1132" y="796" width="226" height="122" filterUnits="userSpaceOnUse" color-interpolation-filters="sRGB">
<feFlood flood-opacity="0" result="BackgroundImageFix"/>
<feColorMatrix in="SourceAlpha" type="matrix" values="0 0 0 0 0 0 0 0 0 0 0 0 0 0 0 0 0 0 127 0"/>
<feOffset dx="-27" dy="18"/>
<feGaussianBlur stdDeviation="27"/>
<feColorMatrix type="matrix" values="0 0 0 0 0 0 0 0 0 0 0 0 0 0 0 0 0 0 0.1 0"/>
<feBlend mode="normal" in2="BackgroundImageFix" result="effect1_dropShadow"/>
<feBlend mode="normal" in="SourceGraphic" in2="effect1_dropShadow" result="shape"/>
</filter>
<filter id="filter16_d" x="1459" y="796" width="226" height="122" filterUnits="userSpaceOnUse" color-interpolation-filters="sRGB">
<feFlood flood-opacity="0" result="BackgroundImageFix"/>
<feColorMatrix in="SourceAlpha" type="matrix" values="0 0 0 0 0 0 0 0 0 0 0 0 0 0 0 0 0 0 127 0"/>
<feOffset dx="-27" dy="18"/>
<feGaussianBlur stdDeviation="27"/>
<feColorMatrix type="matrix" values="0 0 0 0 0 0 0 0 0 0 0 0 0 0 0 0 0 0 0.1 0"/>
<feBlend mode="normal" in2="BackgroundImageFix" result="effect1_dropShadow"/>
<feBlend mode="normal" in="SourceGraphic" in2="effect1_dropShadow" result="shape"/>
</filter>
<filter id="filter17_d" x="404" y="702" width="430" height="719" filterUnits="userSpaceOnUse" color-interpolation-filters="sRGB">
<feFlood flood-opacity="0" result="BackgroundImageFix"/>
<feColorMatrix in="SourceAlpha" type="matrix" values="0 0 0 0 0 0 0 0 0 0 0 0 0 0 0 0 0 0 127 0"/>
<feOffset dx="-27" dy="18"/>
<feGaussianBlur stdDeviation="27"/>
<feColorMatrix type="matrix" values="0 0 0 0 0 0 0 0 0 0 0 0 0 0 0 0 0 0 0.1 0"/>
<feBlend mode="normal" in2="BackgroundImageFix" result="effect1_dropShadow"/>
<feBlend mode="normal" in="SourceGraphic" in2="effect1_dropShadow" result="shape"/>
</filter>
<filter id="filter18_d" x="504" y="929" width="185" height="115" filterUnits="userSpaceOnUse" color-interpolation-filters="sRGB">
<feFlood flood-opacity="0" result="BackgroundImageFix"/>
<feColorMatrix in="SourceAlpha" type="matrix" values="0 0 0 0 0 0 0 0 0 0 0 0 0 0 0 0 0 0 127 0"/>
<feOffset dx="-27" dy="18"/>
<feGaussianBlur stdDeviation="27"/>
<feColorMatrix type="matrix" values="0 0 0 0 0 0 0 0 0 0 0 0 0 0 0 0 0 0 0.1 0"/>
<feBlend mode="normal" in2="BackgroundImageFix" result="effect1_dropShadow"/>
<feBlend mode="normal" in="SourceGraphic" in2="effect1_dropShadow" result="shape"/>
</filter>
<filter id="filter19_d" x="504" y="939" width="173" height="116" filterUnits="userSpaceOnUse" color-interpolation-filters="sRGB">
<feFlood flood-opacity="0" result="BackgroundImageFix"/>
<feColorMatrix in="SourceAlpha" type="matrix" values="0 0 0 0 0 0 0 0 0 0 0 0 0 0 0 0 0 0 127 0"/>
<feOffset dx="-27" dy="18"/>
<feGaussianBlur stdDeviation="27"/>
<feColorMatrix type="matrix" values="0 0 0 0 0 0 0 0 0 0 0 0 0 0 0 0 0 0 0.1 0"/>
<feBlend mode="normal" in2="BackgroundImageFix" result="effect1_dropShadow"/>
<feBlend mode="normal" in="SourceGraphic" in2="effect1_dropShadow" result="shape"/>
</filter>
<filter id="filter20_d" x="-14" y="-171" width="857" height="586" filterUnits="userSpaceOnUse" color-interpolation-filters="sRGB">
<feFlood flood-opacity="0" result="BackgroundImageFix"/>
<feColorMatrix in="SourceAlpha" type="matrix" values="0 0 0 0 0 0 0 0 0 0 0 0 0 0 0 0 0 0 127 0"/>
<feOffset dx="-27" dy="18"/>
<feGaussianBlur stdDeviation="27"/>
<feColorMatrix type="matrix" values="0 0 0 0 0 0 0 0 0 0 0 0 0 0 0 0 0 0 0.1 0"/>
<feBlend mode="normal" in2="BackgroundImageFix" result="effect1_dropShadow"/>
<feBlend mode="normal" in="SourceGraphic" in2="effect1_dropShadow" result="shape"/>
</filter>
<filter id="filter21_d" x="510" y="173" width="243" height="120" filterUnits="userSpaceOnUse" color-interpolation-filters="sRGB">
<feFlood flood-opacity="0" result="BackgroundImageFix"/>
<feColorMatrix in="SourceAlpha" type="matrix" values="0 0 0 0 0 0 0 0 0 0 0 0 0 0 0 0 0 0 127 0"/>
<feOffset dx="-27" dy="18"/>
<feGaussianBlur stdDeviation="27"/>
<feColorMatrix type="matrix" values="0 0 0 0 0 0 0 0 0 0 0 0 0 0 0 0 0 0 0.1 0"/>
<feBlend mode="normal" in2="BackgroundImageFix" result="effect1_dropShadow"/>
<feBlend mode="normal" in="SourceGraphic" in2="effect1_dropShadow" result="shape"/>
</filter>
<filter id="filter22_d" x="510" y="191" width="222" height="122" filterUnits="userSpaceOnUse" color-interpolation-filters="sRGB">
<feFlood flood-opacity="0" result="BackgroundImageFix"/>
<feColorMatrix in="SourceAlpha" type="matrix" values="0 0 0 0 0 0 0 0 0 0 0 0 0 0 0 0 0 0 127 0"/>
<feOffset dx="-27" dy="18"/>
<feGaussianBlur stdDeviation="27"/>
<feColorMatrix type="matrix" values="0 0 0 0 0 0 0 0 0 0 0 0 0 0 0 0 0 0 0.1 0"/>
<feBlend mode="normal" in2="BackgroundImageFix" result="effect1_dropShadow"/>
<feBlend mode="normal" in="SourceGraphic" in2="effect1_dropShadow" result="shape"/>
</filter>
<filter id="filter23_d" x="859" y="47" width="346" height="346" filterUnits="userSpaceOnUse" color-interpolation-filters="sRGB">
<feFlood flood-opacity="0" result="BackgroundImageFix"/>
<feColorMatrix in="SourceAlpha" type="matrix" values="0 0 0 0 0 0 0 0 0 0 0 0 0 0 0 0 0 0 127 0"/>
<feOffset dx="-27" dy="18"/>
<feGaussianBlur stdDeviation="27"/>
<feColorMatrix type="matrix" values="0 0 0 0 0 0 0 0 0 0 0 0 0 0 0 0 0 0 0.1 0"/>
<feBlend mode="normal" in2="BackgroundImageFix" result="effect1_dropShadow"/>
<feBlend mode="normal" in="SourceGraphic" in2="effect1_dropShadow" result="shape"/>
</filter>
<filter id="filter24_d" x="907" y="104" width="197" height="122" filterUnits="userSpaceOnUse" color-interpolation-filters="sRGB">
<feFlood flood-opacity="0" result="BackgroundImageFix"/>
<feColorMatrix in="SourceAlpha" type="matrix" values="0 0 0 0 0 0 0 0 0 0 0 0 0 0 0 0 0 0 127 0"/>
<feOffset dx="-27" dy="18"/>
<feGaussianBlur stdDeviation="27"/>
<feColorMatrix type="matrix" values="0 0 0 0 0 0 0 0 0 0 0 0 0 0 0 0 0 0 0.1 0"/>
<feBlend mode="normal" in2="BackgroundImageFix" result="effect1_dropShadow"/>
<feBlend mode="normal" in="SourceGraphic" in2="effect1_dropShadow" result="shape"/>
</filter>
<filter id="filter25_d" x="1002" y="104" width="176" height="123" filterUnits="userSpaceOnUse" color-interpolation-filters="sRGB">
<feFlood flood-opacity="0" result="BackgroundImageFix"/>
<feColorMatrix in="SourceAlpha" type="matrix" values="0 0 0 0 0 0 0 0 0 0 0 0 0 0 0 0 0 0 127 0"/>
<feOffset dx="-27" dy="18"/>
<feGaussianBlur stdDeviation="27"/>
<feColorMatrix type="matrix" values="0 0 0 0 0 0 0 0 0 0 0 0 0 0 0 0 0 0 0.1 0"/>
<feBlend mode="normal" in2="BackgroundImageFix" result="effect1_dropShadow"/>
<feBlend mode="normal" in="SourceGraphic" in2="effect1_dropShadow" result="shape"/>
</filter>
<clipPath id="clip0">
<rect width="1695" height="1105" fill="white"/>
</clipPath>
</defs>
</svg>
