<svg width="1780" height="660" viewBox="0 0 1780 660" fill="none" xmlns="http://www.w3.org/2000/svg">
<g clip-path="url(#clip0)">
<rect width="1780" height="660" fill="white"/>
<g clip-path="url(#clip1)">
<path d="M1785.75 -2.14014H-52.6099V694.19H1785.75V-2.14014Z" fill="#55AFD2"/>
<path opacity="0.91" d="M1769.23 102.82H1618.66V101.16C1618.66 99.2199 1617.09 97.6499 1615.15 97.6499H1604.82C1602.88 97.6499 1601.31 99.2199 1601.31 101.16V111.49C1601.31 113.43 1602.88 115 1604.82 115H1615.15C1617.09 115 1618.66 113.43 1618.66 111.49V109.83H1769.23C1771.94 109.83 1774.15 112.04 1774.15 114.75V164.05C1774.15 165.98 1775.72 167.55 1777.65 167.55C1779.58 167.55 1781.15 165.98 1781.15 164.05V114.75C1781.16 108.17 1775.81 102.82 1769.23 102.82Z" fill="#4D9FBE"/>
<g opacity="0.79">
<path opacity="0.79" d="M1660.19 455.25C1658.26 455.25 1656.69 453.68 1656.69 451.75V409.22C1656.69 406.2 1654.23 403.73 1651.2 403.73H1483.68C1476.8 403.73 1471.19 398.13 1471.19 391.24V306.35C1471.19 304.42 1472.76 302.85 1474.69 302.85C1476.62 302.85 1478.19 304.42 1478.19 306.35V391.24C1478.19 394.26 1480.65 396.73 1483.68 396.73H1651.2C1658.08 396.73 1663.69 402.33 1663.69 409.22V451.75C1663.69 453.68 1662.12 455.25 1660.19 455.25Z" fill="#4D9FBE"/>
</g>
<g opacity="0.72">
<path opacity="0.72" d="M1551.91 497.74H1368.47C1366.54 497.74 1364.97 496.17 1364.97 494.24C1364.97 492.31 1366.54 490.74 1368.47 490.74H1551.91C1554.93 490.74 1557.4 488.28 1557.4 485.26V378.8C1557.4 376.87 1558.97 375.3 1560.9 375.3C1562.83 375.3 1564.4 376.87 1564.4 378.8V485.26C1564.4 492.14 1558.8 497.74 1551.91 497.74Z" fill="#4D9FBE"/>
</g>
<path d="M1352.79 500.53H1395.69C1398.3 500.53 1400.41 498.42 1400.41 495.81V475.43C1400.41 472.82 1398.3 470.71 1395.69 470.71H1352.79C1350.18 470.71 1348.07 472.82 1348.07 475.43V495.81C1348.07 498.41 1350.18 500.53 1352.79 500.53Z" fill="#475362"/>
<path d="M1374.24 494.4C1379.27 494.4 1383.35 490.321 1383.35 485.29C1383.35 480.258 1379.27 476.18 1374.24 476.18C1369.21 476.18 1365.13 480.258 1365.13 485.29C1365.13 490.321 1369.21 494.4 1374.24 494.4Z" fill="#616C7A"/>
<path d="M1353.96 479.9C1355.66 479.9 1357.03 478.525 1357.03 476.83C1357.03 475.134 1355.66 473.76 1353.96 473.76C1352.26 473.76 1350.89 475.134 1350.89 476.83C1350.89 478.525 1352.26 479.9 1353.96 479.9Z" fill="#616C7A"/>
<path d="M1394.51 497.47C1396.21 497.47 1397.58 496.095 1397.58 494.4C1397.58 492.704 1396.21 491.33 1394.51 491.33C1392.81 491.33 1391.44 492.704 1391.44 494.4C1391.44 496.095 1392.81 497.47 1394.51 497.47Z" fill="#616C7A"/>
<g opacity="0.79">
<path opacity="0.79" d="M1776.45 643.79H1709.78C1702.9 643.79 1697.29 638.19 1697.29 631.3V412.39C1697.29 405.51 1702.89 399.9 1709.78 399.9H1782.61C1785.63 399.9 1788.09 397.44 1788.09 394.41V215.6C1788.09 213.67 1789.66 212.1 1791.59 212.1C1793.52 212.1 1795.09 213.67 1795.09 215.6V394.42C1795.09 401.3 1789.49 406.91 1782.61 406.91H1709.78C1706.76 406.91 1704.29 409.37 1704.29 412.4V631.3C1704.29 634.32 1706.75 636.79 1709.78 636.79H1776.45C1779.47 636.79 1781.94 634.33 1781.94 631.3V597.88C1781.94 591 1787.54 585.4 1794.43 585.4H1855.72C1857.65 585.4 1859.22 586.97 1859.22 588.9C1859.22 590.83 1857.65 592.4 1855.72 592.4H1794.43C1791.41 592.4 1788.94 594.86 1788.94 597.88V631.3C1788.93 638.19 1783.33 643.79 1776.45 643.79Z" fill="#4D9FBE"/>
</g>
<path opacity="0.39" d="M1325.95 519.12C1330.15 519.12 1333.55 515.717 1333.55 511.52C1333.55 507.323 1330.15 503.92 1325.95 503.92C1321.75 503.92 1318.35 507.323 1318.35 511.52C1318.35 515.717 1321.75 519.12 1325.95 519.12Z" fill="#515B64"/>
<g opacity="0.76">
<path opacity="0.76" d="M1563.77 115.72C1565.71 115.72 1567.28 114.15 1567.28 112.21V101.88C1567.28 99.9401 1565.71 98.3701 1563.77 98.3701H1553.44C1551.5 98.3701 1549.93 99.9401 1549.93 101.88V112.21C1549.93 114.15 1551.5 115.72 1553.44 115.72H1555.1V266.53H1553.44C1551.5 266.53 1549.93 268.1 1549.93 270.04V280.37C1549.93 282.31 1551.5 283.88 1553.44 283.88H1563.77C1565.71 283.88 1567.28 282.31 1567.28 280.37V270.04C1567.28 268.1 1565.71 266.53 1563.77 266.53H1562.11V115.72H1563.77Z" fill="#4D9FBE"/>
<path opacity="0.76" d="M1648.91 176.62H1481.39C1474.51 176.62 1468.91 182.22 1468.91 189.1V248.26C1461.88 249.85 1456.63 256.13 1456.63 263.64C1456.63 272.35 1463.69 279.42 1472.41 279.42C1481.12 279.42 1488.19 272.36 1488.19 263.64C1488.19 256.13 1482.94 249.86 1475.91 248.26V189.1C1475.91 186.08 1478.37 183.62 1481.39 183.62H1648.91C1651.93 183.62 1654.4 186.08 1654.4 189.1V375.7C1654.4 377.63 1655.97 379.2 1657.9 379.2C1659.83 379.2 1661.4 377.63 1661.4 375.7V189.1C1661.4 182.22 1655.8 176.62 1648.91 176.62ZM1478.37 260.93H1475.36C1475.15 259.53 1474.25 258.84 1472.67 258.84C1471.19 258.84 1470.23 259.49 1470.23 260.57C1470.23 261.49 1470.88 261.93 1472.21 262.2L1473.96 262.55C1476.86 263.13 1478.3 264.28 1478.3 266.56C1478.3 268.9 1476.65 270.57 1473.96 270.99V273.18H1471.43V270.99C1468.57 270.57 1466.63 268.82 1466.44 266.08H1469.43C1469.66 267.52 1470.95 268.42 1472.81 268.42C1474.31 268.42 1475.17 267.88 1475.17 266.9C1475.17 266.15 1474.56 265.67 1473.37 265.44L1471.07 265C1468.36 264.48 1467 263.06 1467 260.82C1467 258.4 1468.73 256.66 1471.43 256.33V254.1H1473.96V256.4C1476.3 256.82 1478.1 258.19 1478.37 260.93Z" fill="#4D9FBE"/>
</g>
<g opacity="0.21">
<path opacity="0.21" d="M139.21 444.67C143.407 444.67 146.81 441.268 146.81 437.07C146.81 432.873 143.407 429.47 139.21 429.47C135.013 429.47 131.61 432.873 131.61 437.07C131.61 441.268 135.013 444.67 139.21 444.67Z" fill="#616C7A"/>
<path opacity="0.21" d="M-58.01 576.19V509.32C-58.01 504.36 -62.03 500.33 -67 500.33H-180.51C-185.47 500.33 -189.5 496.31 -189.5 491.34V355.34C-189.5 350.38 -185.48 346.35 -180.51 346.35H33.93C38.89 346.35 42.92 350.37 42.92 355.34V428.54C42.92 433.5 46.94 437.53 51.91 437.53H139.22" stroke="#616C7A" stroke-width="7" stroke-miterlimit="10" stroke-linecap="round"/>
</g>
<g opacity="0.75">
<path opacity="0.75" d="M540.04 91.3599C535.19 91.3599 530.62 89.4799 527.16 86.0699C523.68 82.6299 521.75 78.0399 521.73 73.1499L521.07 -46.9001C521.04 -53.1201 515.97 -58.1501 509.76 -58.1501C509.74 -58.1501 509.72 -58.1501 509.7 -58.1501L214.91 -56.5401C214.9 -56.5401 214.9 -56.5401 214.89 -56.5401C212.97 -56.5401 211.4 -58.0901 211.39 -60.0201C211.38 -61.9501 212.94 -63.5301 214.87 -63.5401L509.66 -65.1501C519.74 -65.2201 528.02 -57.0301 528.07 -46.9401L528.73 73.1099C528.75 76.1299 529.94 78.9699 532.09 81.0899C534.24 83.2099 537.08 84.3399 540.11 84.3599L901 82.3899C904.02 82.3699 906.86 81.1799 908.98 79.0299C911.1 76.8799 912.27 74.0299 912.25 71.0099L911.65 -38.8901C911.63 -41.9101 910.44 -44.7501 908.29 -46.8701C906.14 -49.0001 903.31 -50.1601 900.27 -50.1401L845.18 -49.8401C835.05 -49.8101 826.82 -57.9601 826.77 -68.0501L826.22 -169.1C826.21 -171.03 827.77 -172.61 829.7 -172.62C829.71 -172.62 829.71 -172.62 829.72 -172.62C831.64 -172.62 833.21 -171.07 833.22 -169.14L833.77 -68.0901C833.8 -61.8501 838.95 -56.7801 845.14 -56.8401L900.23 -57.1401C905.13 -57.1301 909.73 -55.2901 913.21 -51.8501C916.69 -48.4101 918.62 -43.8201 918.64 -38.9301L919.24 70.9699C919.27 75.8599 917.39 80.4699 913.95 83.9499C910.51 87.4299 905.92 89.3599 901.03 89.3799L540.14 91.3499C540.11 91.3599 540.07 91.3599 540.04 91.3599Z" fill="#4D9FBE"/>
</g>
<path d="M763.94 -14.87L653.71 -14.27C645.53 -14.23 638.93 -7.56001 638.98 0.619995L640 187.77C640.04 195.95 633.45 202.62 625.27 202.66L401.07 203.88C392.89 203.92 386.22 197.33 386.18 189.15L384.25 -164.37C384.21 -172.55 390.8 -179.22 398.98 -179.26L519.66 -179.92C527.84 -179.96 534.44 -186.63 534.39 -194.81L533.6 -338.75" stroke="#616C7A" stroke-width="7" stroke-miterlimit="10" stroke-linecap="round"/>
<path opacity="0.73" d="M871.81 141.52C873.75 141.52 875.32 139.95 875.32 138.01V127.68C875.32 125.74 873.75 124.17 871.81 124.17H861.48C859.54 124.17 857.97 125.74 857.97 127.68V138.01C857.97 139.95 859.54 141.52 861.48 141.52H863.14V292.33H861.48C859.54 292.33 857.97 293.9 857.97 295.84V306.17C857.97 308.11 859.54 309.68 861.48 309.68H871.81C873.75 309.68 875.32 308.11 875.32 306.17V295.84C875.32 293.9 873.75 292.33 871.81 292.33H870.15V141.52H871.81Z" fill="#4D9FBE"/>
<g opacity="0.76">
<path opacity="0.76" d="M1432.25 488.46H1071.36C1061.26 488.46 1053.05 480.25 1053.05 470.15V350.09C1053.05 343.85 1047.97 338.78 1041.74 338.78H746.94C745.01 338.78 743.44 337.21 743.44 335.28C743.44 333.35 745.01 331.78 746.94 331.78H1041.73C1051.83 331.78 1060.04 339.99 1060.04 350.09V470.15C1060.04 476.39 1065.12 481.46 1071.35 481.46H1432.24C1438.48 481.46 1443.55 476.38 1443.55 470.15V360.24C1443.55 354 1438.47 348.93 1432.24 348.93H1377.15C1367.05 348.93 1358.84 340.72 1358.84 330.62V229.57C1358.84 227.64 1360.41 226.07 1362.34 226.07C1364.27 226.07 1365.84 227.64 1365.84 229.57V330.62C1365.84 336.86 1370.92 341.93 1377.15 341.93H1432.24C1442.34 341.93 1450.55 350.15 1450.55 360.24V470.15C1450.56 480.25 1442.35 488.46 1432.25 488.46Z" fill="#4D9FBE"/>
</g>
<g opacity="0.81">
<path opacity="0.81" d="M1155.87 603.73H931.66C921.56 603.73 913.35 595.52 913.35 585.42V221.89C913.35 219.96 914.92 218.39 916.85 218.39C918.78 218.39 920.35 219.96 920.35 221.89V585.42C920.35 591.66 925.43 596.73 931.66 596.73H1155.87C1162.11 596.73 1167.18 591.65 1167.18 585.42V398.27C1167.18 388.17 1175.39 379.96 1185.49 379.96H1295.73C1297.66 379.96 1299.23 381.53 1299.23 383.46C1299.23 385.39 1297.66 386.96 1295.73 386.96H1185.5C1179.26 386.96 1174.19 392.04 1174.19 398.27V585.41C1174.19 595.51 1165.97 603.73 1155.87 603.73Z" fill="#4D9FBE"/>
</g>
<path d="M299.72 329.25H238.43C233.47 329.25 229.44 333.27 229.44 338.24V371.66C229.44 376.62 225.42 380.65 220.45 380.65H153.78C148.82 380.65 144.79 376.63 144.79 371.66V152.74C144.79 147.78 148.81 143.75 153.78 143.75H226.6C231.56 143.75 235.59 139.73 235.59 134.76V-44.0498" stroke="#43515A" stroke-width="7" stroke-miterlimit="10" stroke-linecap="round"/>
<path d="M403.59 157.33C407.788 157.33 411.19 153.927 411.19 149.73C411.19 145.532 407.788 142.13 403.59 142.13C399.393 142.13 395.99 145.532 395.99 149.73C395.99 153.927 399.393 157.33 403.59 157.33Z" fill="#616C7A"/>
<g opacity="0.5">
<path opacity="0.5" d="M319.87 437.95H155.16" stroke="#616C7A" stroke-width="7" stroke-miterlimit="10"/>
<path opacity="0.5" d="M314.64 443.11V432.78C314.64 430.84 316.21 429.27 318.15 429.27H328.48C330.42 429.27 331.99 430.84 331.99 432.78V443.11C331.99 445.05 330.42 446.62 328.48 446.62H318.15C316.21 446.62 314.64 445.05 314.64 443.11Z" fill="#616C7A"/>
<path opacity="0.5" d="M146.49 443.11V432.78C146.49 430.84 148.06 429.27 150 429.27H160.33C162.27 429.27 163.84 430.84 163.84 432.78V443.11C163.84 445.05 162.27 446.62 160.33 446.62H150C148.06 446.62 146.49 445.05 146.49 443.11Z" fill="#616C7A"/>
</g>
<path opacity="0.25" d="M176.84 277.85V210.98C176.84 206.02 172.82 201.99 167.85 201.99H54.3401C49.3801 201.99 45.3501 197.97 45.3501 193V56.9998C45.3501 52.0398 49.3701 48.0098 54.3401 48.0098H268.78C273.74 48.0098 277.77 52.0298 277.77 56.9998V130.2C277.77 135.16 281.79 139.19 286.76 139.19H374.07" stroke="#616C7A" stroke-width="7" stroke-miterlimit="10" stroke-linecap="round"/>
<g opacity="0.45">
<path opacity="0.45" d="M312.64 933.65H211.59C203.41 933.65 196.78 940.28 196.78 948.46V1003.55C196.78 1011.73 190.15 1018.36 181.97 1018.36H72.06C63.88 1018.36 57.25 1011.73 57.25 1003.55V642.66C57.25 634.48 63.88 627.85 72.06 627.85H192.12C200.3 627.85 206.93 621.22 206.93 613.04V318.25" stroke="#43515A" stroke-width="7" stroke-miterlimit="10" stroke-linecap="round"/>
<path opacity="0.45" d="M158.75 867.04V756.8C158.75 748.62 152.12 741.99 143.94 741.99H-43.21C-51.39 741.99 -58.02 735.36 -58.02 727.18V502.97C-58.02 494.79 -51.39 488.16 -43.21 488.16H310.32C318.5 488.16 325.13 494.79 325.13 502.97V623.65C325.13 631.83 331.76 638.46 339.94 638.46H483.88" stroke="#616C7A" stroke-width="7" stroke-miterlimit="10" stroke-linecap="round"/>
</g>
<g opacity="0.78">
<path opacity="0.78" d="M1931.35 340.36H1712.44C1705.56 340.36 1699.96 334.76 1699.96 327.87V261.2C1699.96 254.32 1705.56 248.71 1712.44 248.71H1745.86C1748.88 248.71 1751.35 246.25 1751.35 243.23V181.94C1751.35 180.01 1752.92 178.44 1754.85 178.44C1756.78 178.44 1758.35 180.01 1758.35 181.94V243.23C1758.35 250.11 1752.75 255.71 1745.86 255.71H1712.44C1709.42 255.71 1706.96 258.17 1706.96 261.2V327.87C1706.96 330.89 1709.42 333.36 1712.44 333.36H1931.35C1934.37 333.36 1936.83 330.9 1936.83 327.87V255.05C1936.83 248.17 1942.43 242.57 1949.32 242.57H2128.14C2130.07 242.57 2131.64 244.14 2131.64 246.07C2131.64 248 2130.07 249.57 2128.14 249.57H1949.32C1946.3 249.57 1943.83 252.03 1943.83 255.05V327.87C1943.84 334.76 1938.23 340.36 1931.35 340.36Z" fill="#4D9FBE"/>
</g>
<path d="M1697.29 -141.65C1699.23 -141.65 1700.8 -143.22 1700.8 -145.16V-155.49C1700.8 -157.43 1699.23 -159 1697.29 -159H1686.96C1685.02 -159 1683.45 -157.43 1683.45 -155.49V-145.16C1683.45 -143.22 1685.02 -141.65 1686.96 -141.65H1688.62V9.16H1686.96C1685.02 9.16 1683.45 10.73 1683.45 12.67V23C1683.45 24.94 1685.02 26.51 1686.96 26.51H1697.29C1699.23 26.51 1700.8 24.94 1700.8 23V12.67C1700.8 10.73 1699.23 9.16 1697.29 9.16H1695.63V-141.65H1697.29Z" fill="#4D9FBE"/>
<g opacity="0.82">
<path opacity="0.82" d="M1445.39 110.55C1443.46 110.55 1441.89 108.98 1441.89 107.05V34.47C1441.89 24.37 1450.1 16.16 1460.2 16.16H1627.09C1633.33 16.16 1638.4 11.08 1638.4 4.85001V-348.69C1638.4 -354.93 1633.32 -360 1627.09 -360H1402.88C1396.64 -360 1391.57 -354.93 1391.57 -348.69V-161.55C1391.57 -151.45 1383.36 -143.24 1373.26 -143.24H1263.02C1261.09 -143.24 1259.52 -144.81 1259.52 -146.74C1259.52 -148.67 1261.09 -150.24 1263.02 -150.24H1373.26C1379.5 -150.24 1384.57 -155.31 1384.57 -161.55V-348.69C1384.57 -358.79 1392.78 -367 1402.88 -367H1627.09C1637.19 -367 1645.4 -358.79 1645.4 -348.69V4.84C1645.4 14.94 1637.19 23.15 1627.09 23.15H1460.2C1453.96 23.15 1448.89 28.22 1448.89 34.46V107.04C1448.89 108.98 1447.33 110.55 1445.39 110.55Z" fill="#4D9FBE"/>
</g>
<path d="M540.48 477.56C544.677 477.56 548.08 474.157 548.08 469.96C548.08 465.763 544.677 462.36 540.48 462.36C536.282 462.36 532.88 465.763 532.88 469.96C532.88 474.157 536.282 477.56 540.48 477.56Z" fill="#616C7A"/>
<path opacity="0.41" d="M679.59 667.19H612.72C607.76 667.19 603.73 671.21 603.73 676.18V789.7C603.73 794.66 599.71 798.69 594.74 798.69H458.74C453.78 798.69 449.75 794.67 449.75 789.7V575.24C449.75 570.28 453.77 566.25 458.74 566.25H531.94C536.9 566.25 540.93 562.23 540.93 557.26V469.95" stroke="#616C7A" stroke-width="7" stroke-miterlimit="10" stroke-linecap="round"/>
<g opacity="0.71">
<path opacity="0.71" d="M1398.31 774.02H1037.42C1027.32 774.02 1019.11 765.81 1019.11 755.71V635.65C1019.11 629.41 1014.03 624.34 1007.8 624.34H713C711.07 624.34 709.5 622.77 709.5 620.84C709.5 618.91 711.07 617.34 713 617.34H1007.79C1017.89 617.34 1026.1 625.55 1026.1 635.65V755.71C1026.1 761.95 1031.18 767.02 1037.41 767.02H1398.3C1404.54 767.02 1409.61 761.94 1409.61 755.71V645.8C1409.61 639.56 1404.53 634.49 1398.3 634.49H1343.21C1333.11 634.49 1324.9 626.28 1324.9 616.18V515.13C1324.9 513.2 1326.47 511.63 1328.4 511.63C1330.33 511.63 1331.9 513.2 1331.9 515.13V616.18C1331.9 622.42 1336.98 627.49 1343.21 627.49H1398.3C1408.4 627.49 1416.61 635.7 1416.61 645.8V755.71C1416.62 765.81 1408.41 774.02 1398.31 774.02Z" fill="#4D9FBE"/>
</g>
<g opacity="0.45">
<path opacity="0.45" d="M1117.93 875.08H893.72C883.62 875.08 875.41 866.86 875.41 856.77V503.23C875.41 493.13 883.62 484.92 893.72 484.92H1014.4C1020.64 484.92 1025.71 479.84 1025.71 473.61V401.28C1025.71 399.35 1027.28 397.78 1029.21 397.78C1031.14 397.78 1032.71 399.35 1032.71 401.28V473.61C1032.71 483.71 1024.5 491.92 1014.4 491.92H893.72C887.48 491.92 882.41 497 882.41 503.23V856.76C882.41 863 887.49 868.07 893.72 868.07H1117.93C1124.17 868.07 1129.24 862.99 1129.24 856.76V669.62C1129.24 659.52 1137.45 651.31 1147.55 651.31H1257.79C1259.72 651.31 1261.29 652.88 1261.29 654.81C1261.29 656.74 1259.72 658.31 1257.79 658.31H1147.55C1141.31 658.31 1136.24 663.39 1136.24 669.62V856.76C1136.24 866.86 1128.02 875.08 1117.93 875.08Z" fill="#4D9FBE"/>
</g>
<g opacity="0.79">
<path opacity="0.79" d="M1353.67 257.6H1217.67C1210.79 257.6 1205.18 252 1205.18 245.11V30.6701C1205.18 23.7901 1210.78 18.1901 1217.67 18.1901H1290.87C1293.89 18.1901 1296.36 15.7301 1296.36 12.7001V-74.6099C1296.36 -76.5399 1297.93 -78.1099 1299.86 -78.1099C1301.79 -78.1099 1303.36 -76.5399 1303.36 -74.6099V12.7001C1303.36 19.5801 1297.76 25.1901 1290.87 25.1901H1217.67C1214.65 25.1901 1212.18 27.6501 1212.18 30.6701V245.11C1212.18 248.13 1214.64 250.6 1217.67 250.6H1353.67C1356.69 250.6 1359.16 248.14 1359.16 245.11V131.6C1359.16 124.72 1364.76 119.11 1371.65 119.11H1438.52C1440.45 119.11 1442.02 120.68 1442.02 122.61C1442.02 124.54 1440.45 126.11 1438.52 126.11H1371.65C1368.63 126.11 1366.16 128.57 1366.16 131.6V245.12C1366.16 252 1360.56 257.6 1353.67 257.6Z" fill="#4D9FBE"/>
</g>
<g opacity="0.22">
<path opacity="0.22" d="M1658.28 669.34C1656.35 669.34 1654.78 667.77 1654.78 665.84V623.31C1654.78 620.29 1652.32 617.82 1649.3 617.82H1481.78C1474.9 617.82 1469.29 612.22 1469.29 605.33V520.44C1469.29 518.51 1470.86 516.94 1472.79 516.94C1474.72 516.94 1476.29 518.51 1476.29 520.44V605.33C1476.29 608.35 1478.75 610.82 1481.78 610.82H1649.3C1656.18 610.82 1661.78 616.42 1661.78 623.31V665.84C1661.78 667.78 1660.22 669.34 1658.28 669.34Z" fill="#616C7A"/>
</g>
<path d="M874.66 683.47H-45.2598V-2.14014H649.64L874.66 683.47Z" fill="#EDEDED"/>
<path opacity="0.56" d="M793.16 641.75H-83.1602V656.86H793.16V641.75Z" fill="#22303A"/>
<path d="M489.32 620.24H443.66V641.77H489.32V620.24Z" fill="#475362"/>
<path d="M456.83 634.65H250.15V641.76H456.83V634.65Z" fill="#9B9E9F"/>
<path d="M489.32 641.76C493.639 641.76 497.14 635.752 497.14 628.34C497.14 620.928 493.639 614.92 489.32 614.92C485.001 614.92 481.5 620.928 481.5 628.34C481.5 635.752 485.001 641.76 489.32 641.76Z" fill="#707578"/>
<path d="M486.23 621.98L456.83 641.76V634.65L486.23 614.87V621.98Z" fill="#707578"/>
<path d="M250.15 634.65L279.55 614.87H484.38H489.31C487.63 614.87 485.28 616.65 485.28 616.65L456.82 634.65H250.15Z" fill="#B3B6B8"/>
<g filter="url(#filter0_d)">
<path d="M919.8 230.95C970.295 230.95 1011.23 190.015 1011.23 139.52C1011.23 89.0244 970.295 48.0898 919.8 48.0898C869.304 48.0898 828.37 89.0244 828.37 139.52C828.37 190.015 869.304 230.95 919.8 230.95Z" fill="#C1C6C8"/>
<path d="M1022.48 230.94C1058.46 230.94 1087.62 201.775 1087.62 165.8C1087.62 129.824 1058.46 100.66 1022.48 100.66C986.504 100.66 957.34 129.824 957.34 165.8C957.34 201.775 986.504 230.94 1022.48 230.94Z" fill="#C1C6C8"/>
<path d="M791.76 230.95C818.109 230.95 839.47 209.589 839.47 183.24C839.47 156.89 818.109 135.53 791.76 135.53C765.41 135.53 744.05 156.89 744.05 183.24C744.05 209.589 765.41 230.95 791.76 230.95Z" fill="#C1C6C8"/>
<path d="M822.49 187.23C848.839 187.23 870.2 165.87 870.2 139.52C870.2 113.171 848.839 91.8101 822.49 91.8101C796.14 91.8101 774.78 113.171 774.78 139.52C774.78 165.87 796.14 187.23 822.49 187.23Z" fill="#C1C6C8"/>
<path d="M1022.49 161.18H791.76V230.95H1022.49V161.18Z" fill="#C1C6C8"/>
<path d="M1017.02 100.66C1010.52 100.66 1004.25 101.62 998.33 103.39C984.32 70.8699 951.99 48.0898 914.33 48.0898C879.95 48.0898 850.02 67.0798 834.41 95.1198C829.02 92.9998 823.16 91.7998 817.02 91.7998C790.95 91.7998 769.81 112.71 769.35 138.67C751.38 145.51 738.58 162.85 738.58 183.23C738.58 209.58 759.94 230.94 786.29 230.94H1017.02C1053 230.94 1082.16 201.77 1082.16 165.8C1082.16 129.83 1053 100.66 1017.02 100.66Z" fill="url(#paint0_linear)"/>
<path d="M960.32 133.52C957.43 131.24 953.52 129.27 948.69 127.65C944.37 126.2 939.39 125.07 934 124.29C935.6 126.7 937.16 129.21 938.66 131.81C938.88 132.2 939.11 132.59 939.33 132.98C951.19 135.58 959.03 140.06 959.03 145.15C959.03 149.43 953.51 153.27 944.72 155.93C942.37 148.95 938.95 141.45 934.69 134.07C929.19 124.54 922.92 116.22 916.57 109.99C909.22 102.79 902.48 99.1396 896.53 99.1396C894.13 99.1396 891.91 99.7196 889.93 100.86C887.3 102.38 883.97 105.56 883.01 112.14C882.48 115.78 882.73 120.16 883.74 125.15C884.65 129.61 886.16 134.49 888.17 139.54C889.46 136.94 890.86 134.33 892.37 131.72C892.59 131.34 892.81 130.96 893.04 130.58C889.36 119.02 889.33 110 893.74 107.45C894.56 106.98 895.5 106.75 896.53 106.75C900.17 106.75 905.01 109.56 910.22 114.45C905.33 119.98 900.59 126.66 896.31 134.07C890.1 144.83 885.63 155.86 883.74 165.14C882.72 170.13 882.47 174.51 883.01 178.15C883.97 184.73 887.3 187.92 889.93 189.43C891.91 190.57 894.13 191.15 896.53 191.15C902.48 191.15 909.22 187.5 916.57 180.3C919.19 177.73 921.79 174.81 924.33 171.59C921.44 171.77 918.49 171.86 915.5 171.86C915.04 171.86 914.59 171.86 914.13 171.85C907.47 179.16 901.06 183.53 896.53 183.53C895.49 183.53 894.56 183.3 893.74 182.83C890.04 180.69 889.47 173.99 891.56 165.06C898.78 166.51 906.99 167.29 915.51 167.29C927.94 167.29 939.72 165.64 948.7 162.64C953.53 161.02 957.45 159.05 960.33 156.77C965.55 152.65 966.64 148.17 966.64 145.14C966.64 142.13 965.54 137.65 960.32 133.52ZM893.7 157.75C895.83 151.58 898.93 144.77 902.91 137.89C906.88 131.01 911.22 124.92 915.51 119.98C919.79 124.91 924.13 131.01 928.1 137.89C932.08 144.78 935.17 151.57 937.3 157.75C930.89 158.99 923.45 159.71 915.51 159.71C907.55 159.7 900.11 158.99 893.7 157.75Z" fill="#31B3D7"/>
<path d="M966.82 121.229L990.75 145.159L966.82 169.089L972.11 174.369L1001.32 145.159L972.11 115.939L966.82 121.229Z" fill="#31B3D7"/>
<path d="M873.17 121.229L849.25 145.159L873.17 169.089L867.89 174.369L838.67 145.159L867.89 115.939L873.17 121.229Z" fill="#31B3D7"/>
</g>
<g filter="url(#filter1_d)">
<path d="M325.52 350.7V151.25C325.52 145.07 330.53 140.06 336.71 140.06H801.34" stroke="#ABCC9B" stroke-width="7" stroke-miterlimit="10" stroke-linecap="round"/>
</g>
<path d="M473.71 464.47H389.68C386.91 464.47 384.66 462.22 384.66 459.45V195.52C384.66 192.75 386.91 190.5 389.68 190.5H473.71C484.04 190.5 492.42 198.88 492.42 209.21V445.77C492.41 456.09 484.04 464.47 473.71 464.47Z" fill="#5D6266"/>
<path d="M298.18 442.57L332.52 524.14H391C400.84 524.14 407.5 514.11 403.67 505.04L377.33 442.57H298.18Z" fill="#5D6266"/>
<path d="M390.93 515.34H324.27L292.26 442.57H371.41L398.58 503.83C400.87 509.29 396.86 515.34 390.93 515.34Z" fill="url(#paint1_linear)"/>
<path d="M287.26 515.34H364.9L361.56 524.13H283.4L287.26 515.34Z" fill="#B3B6B8"/>
<path d="M483.11 421.57H164.1V208.24C164.1 198.44 172.04 190.5 181.84 190.5H352.84H467.8C476.26 190.5 483.12 197.36 483.12 205.82V421.57H483.11Z" fill="#31B3D7"/>
<path d="M222.52 464.47H467.83C476.29 464.47 483.15 457.61 483.15 449.15V419.5H222.52V464.47Z" fill="#B3B6B8"/>
<path d="M413.09 361.03H259.51V318.02L245.47 304.8H407.8C410.72 304.8 413.08 307.17 413.08 310.08V361.03H413.09Z" fill="white"/>
<path d="M407.8 392.64H264.8C261.88 392.64 259.52 390.27 259.52 387.36V353.5H413.1V387.36C413.09 390.27 410.72 392.64 407.8 392.64Z" fill="#48B249"/>
<path d="M313.99 327.46C318.09 328.29 320.12 329.91 320.12 333.12C320.12 336.42 317.79 338.78 313.99 339.37V342.46H310.42V339.37C306.38 338.78 303.64 336.3 303.37 332.44H307.59C307.91 334.47 309.74 335.74 312.37 335.74C314.49 335.74 315.7 334.97 315.7 333.59C315.7 332.53 314.84 331.85 313.16 331.53L309.92 330.91C306.09 330.17 304.17 328.17 304.17 325.01C304.17 321.59 306.62 319.14 310.42 318.67V315.52H313.99V318.76C317.29 319.35 319.83 321.3 320.21 325.16H315.96C315.66 323.18 314.4 322.21 312.16 322.21C310.07 322.21 308.71 323.12 308.71 324.66C308.71 325.96 309.62 326.58 311.51 326.96L313.99 327.46Z" fill="#616C7A"/>
<path d="M336.67 339.08H322.58V335.6H327.68V323.54L322.81 324.99V321.36L329.41 319.03H331.86V335.6H336.67V339.08Z" fill="#616C7A"/>
<path d="M352.1 339.08H338.39V336.93L344.49 329.47L345.46 328.29L346.37 327.2C346.58 326.96 346.78 326.67 346.99 326.35C347.46 325.67 347.61 325.2 347.61 324.64C347.61 323.37 346.75 322.28 344.96 322.28C343.28 322.28 342.22 323.34 342.01 325.2H337.85C337.94 321.19 340.5 318.6 344.84 318.6C346.99 318.6 348.7 319.19 349.97 320.37C351.24 321.52 351.89 322.97 351.89 324.65C351.89 325.56 351.62 326.48 351.07 327.33C350.54 328.18 349.48 329.51 348 331.31L344.46 335.61H352.1V339.08V339.08Z" fill="#616C7A"/>
<path d="M362.18 326.14C364.27 326.14 365.98 326.76 367.28 327.97C368.58 329.18 369.23 330.74 369.23 332.63C369.23 334.64 368.55 336.29 367.17 337.59C365.81 338.89 364.04 339.53 361.89 339.53C357.62 339.53 354.84 337.23 354.28 333.49H358.38C358.88 335.14 360.03 335.97 361.89 335.97C363.89 335.97 365.28 334.61 365.28 332.76C365.28 330.96 363.86 329.72 361.62 329.72H355.75V319.05H368.37V322.79H359.64V326.15H362.18V326.14Z" fill="#616C7A"/>
<path d="M294.16 375.77V379.41H291.04V366.86H296.52C298.09 366.86 299.36 367.27 300.3 368.06C301.24 368.85 301.72 369.92 301.72 371.27C301.72 372.99 300.85 374.41 299.32 375.17L302.55 379.42H298.8L296.09 375.78H294.16V375.77ZM296.47 372.96C297.71 372.96 298.61 372.28 298.61 371.26C298.61 370.28 297.71 369.6 296.47 369.6H294.16V372.96H296.47Z" fill="white"/>
<path d="M307.68 371.85H313.26V374.51H307.68V376.69H314.05V379.4H304.56V366.85H314.05V369.56H307.68V371.85Z" fill="white"/>
<path d="M327.21 377.98L329.19 380.31L326.97 382.32L324.5 379.42C323.95 379.59 323.34 379.66 322.67 379.66C320.79 379.66 319.2 379.03 317.93 377.78C316.66 376.51 316.03 374.96 316.03 373.13C316.03 371.3 316.66 369.75 317.93 368.5C319.2 367.23 320.79 366.6 322.67 366.6C324.57 366.6 326.14 367.23 327.42 368.5C328.69 369.76 329.34 371.31 329.34 373.13C329.33 375.07 328.63 376.69 327.21 377.98ZM319.18 373.13C319.18 374.15 319.51 375 320.18 375.72C320.85 376.42 321.68 376.77 322.67 376.77C323.67 376.77 324.5 376.42 325.16 375.72C325.82 375 326.16 374.15 326.16 373.13C326.16 372.12 325.83 371.27 325.16 370.56C324.5 369.84 323.66 369.49 322.67 369.49C321.67 369.49 320.84 369.84 320.18 370.56C319.51 371.26 319.18 372.11 319.18 373.13Z" fill="white"/>
<path d="M343.4 373.55C343.4 375.49 342.88 376.98 341.83 378.07C340.78 379.14 339.36 379.68 337.55 379.68C335.74 379.68 334.3 379.14 333.27 378.07C332.22 376.98 331.72 375.48 331.72 373.55V366.85H334.86V373.61C334.86 375.53 335.91 376.77 337.56 376.77C339.2 376.77 340.27 375.53 340.27 373.61V366.85H343.41V373.55H343.4Z" fill="white"/>
<path d="M349.43 371.85H355.01V374.51H349.43V376.69H355.8V379.4H346.31V366.85H355.8V369.56H349.43V371.85Z" fill="white"/>
<path d="M366.62 367.39C367.73 367.98 368.54 369.14 368.69 370.75H365.55C365.37 369.7 364.68 369.16 363.52 369.16C362.43 369.16 361.73 369.62 361.73 370.42C361.73 371.08 362.19 371.38 363.17 371.6L364.92 372.01C367.41 372.58 368.7 373.54 368.7 375.59C368.7 376.85 368.22 377.84 367.28 378.58C366.34 379.3 365.06 379.67 363.49 379.67C361.96 379.67 360.67 379.3 359.61 378.56C358.56 377.8 357.95 376.7 357.82 375.24H360.94C361.14 376.35 362.1 377.01 363.58 377.01C364.74 377.01 365.35 376.59 365.35 375.9C365.35 375.36 364.91 375.03 364.02 374.83L361.95 374.37C359.46 373.82 358.31 372.67 358.31 370.68C358.31 369.44 358.77 368.45 359.68 367.71C360.6 366.95 361.8 366.58 363.3 366.58C364.44 366.57 365.53 366.81 366.62 367.39Z" fill="white"/>
<path d="M377.55 369.64V379.41H374.45V369.64H370.44V366.85H381.56V369.64H377.55Z" fill="white"/>
<path d="M337.23 273.52C337.66 273.28 338.12 273.14 338.47 272.84C340.55 270.96 342.71 271.69 344.8 272.81C345.2 273 345.54 273.53 345.71 273.95C346.33 275.53 346.78 277.14 347.36 278.74C347.84 279.99 348.68 280.73 350.09 280.75C352.1 280.75 354.15 280.72 356.16 280.66C357.54 280.64 358.43 279.87 358.8 278.54C359.08 277.64 359.47 276.78 359.59 275.86C359.92 273.65 360.96 272.24 363.26 271.62C364.28 271.31 365.04 271.2 366 271.75C367.33 272.52 368.79 273.16 370.22 273.83C371.32 274.38 372.34 274.26 373.25 273.39L377.74 268.77C378.62 267.87 378.67 266.81 378.09 265.73C377.65 264.85 377.3 263.86 376.73 263.11C375.35 261.25 375.16 259.44 376.28 257.34C376.76 256.44 377.15 255.84 378.17 255.6C379.65 255.21 381.06 254.63 382.47 254.18C383.85 253.7 384.63 252.83 384.64 251.34C384.64 249.39 384.65 247.38 384.52 245.44C384.51 244.71 384.14 244.03 383.86 243.24C382.23 242.7 380.74 241.9 379.19 241.76C376.35 241.41 375.92 239.17 375.1 237.2C374.96 236.87 375.19 236.31 375.38 235.91C376.02 234.51 376.69 233.09 377.46 231.69C378.23 230.29 378.08 229.04 376.98 227.9C375.64 226.47 374.23 225.1 372.76 223.74C371.76 222.83 370.6 222.68 369.39 223.39C368.64 223.76 367.82 224.14 367.13 224.64C365.2 225.95 363.26 226.54 361.23 225.09C360.56 224.57 359.86 223.96 359.45 223.23C358.94 222.15 358.66 220.9 358.28 219.75C357.49 217.42 356.82 216.83 354.41 216.77C352.69 216.66 350.95 216.79 349.2 216.85C347.75 216.94 346.87 217.71 346.46 219.13C346.24 219.96 345.82 220.79 345.74 221.61C345.48 224.35 343.68 225.53 341.29 226.2C340.83 226.34 340.17 226.28 339.74 226.06C338.28 225.42 336.88 224.72 335.52 223.98C334.19 223.27 332.97 223.26 331.86 224.4C330.46 225.84 329 227.28 327.6 228.72C326.56 229.86 326.58 231.11 327.36 232.39C327.77 233.11 328.04 233.9 328.55 234.52C329.96 236.41 330.19 238.32 328.83 240.26C328.35 240.96 327.73 241.66 327.01 242C325.63 242.61 324.15 243 322.71 243.48C321.39 243.89 320.65 244.8 320.64 246.15C320.64 248.16 320.63 250.11 320.73 252.09C320.75 253.67 321.69 254.65 323.18 255.06C324.47 255.47 325.73 255.91 327.03 256.19C328.26 256.47 328.73 257.25 329.34 258.23C330.49 260.19 330.08 261.75 329.12 263.55C326.61 268.21 326.68 268.21 330.46 271.95L331.33 272.79C333.75 275.09 334.25 275.12 337.23 273.52ZM342.79 239.46C348.17 233.97 356.59 233.82 362.1 239.18C367.36 244.24 367.57 252.87 362.54 258.1C357.21 263.59 348.69 263.79 343.23 258.49C337.89 253.3 337.68 244.72 342.79 239.46Z" fill="#616C7A"/>
<path d="M341.301 237.47C347.731 231.04 358.201 231.04 364.631 237.47C371.061 243.9 371.061 254.37 364.631 260.8C358.201 267.23 347.731 267.23 341.301 260.8C334.871 254.37 334.871 243.9 341.301 237.47ZM360.501 256.67C364.651 252.52 364.651 245.76 360.501 241.61C356.351 237.46 349.591 237.46 345.441 241.61C341.291 245.76 341.291 252.52 345.441 256.68C349.591 260.82 356.351 260.82 360.501 256.67Z" fill="#BECFD7"/>
<path d="M293.42 282.71C293.66 282.84 293.84 282.98 294.08 283.11C295.88 284.12 296.17 284.12 297.74 282.7C297.94 282.51 298.25 282.35 298.38 282.11C299.37 280.7 300.77 280.82 302.2 281.2C302.5 281.26 302.75 281.52 302.91 281.76C303.5 282.62 304.02 283.5 304.58 284.4C305.02 285.09 305.67 285.43 306.52 285.23C307.74 284.92 308.96 284.61 310.14 284.28C310.99 284.08 311.4 283.48 311.43 282.64C311.49 282.05 311.58 281.49 311.51 280.92C311.41 279.51 311.83 278.53 313.11 277.86C313.68 277.5 314.11 277.32 314.78 277.5C315.72 277.77 316.67 277.95 317.6 278.16C318.33 278.33 318.95 278.13 319.35 277.47C320.05 276.35 320.72 275.21 321.39 274.07C321.82 273.37 321.68 272.75 321.2 272.19C320.78 271.69 320.43 271.19 320 270.79C318.89 269.86 318.54 268.84 318.92 267.41C319.04 266.81 319.21 266.38 319.79 266.08C320.61 265.63 321.38 265.08 322.16 264.6C322.91 264.15 323.25 263.5 323.08 262.62C322.77 261.4 322.5 260.21 322.17 259.09C322.05 258.65 321.69 258.31 321.44 257.82C320.4 257.75 319.4 257.49 318.38 257.61C316.66 257.82 316.06 256.54 315.29 255.47C315.2 255.29 315.19 254.93 315.29 254.66C315.46 253.7 315.68 252.78 315.95 251.84C316.19 250.88 315.91 250.14 315.1 249.62C314.08 248.94 313.01 248.33 311.97 247.74C311.21 247.32 310.51 247.4 309.87 247.99C309.49 248.33 309.05 248.67 308.68 249.07C307.74 250.12 306.66 250.76 305.23 250.16C304.76 249.96 304.21 249.7 303.87 249.33C303.41 248.74 303.07 248.07 302.67 247.41C301.87 246.09 301.39 245.89 299.91 246.16C298.87 246.38 297.85 246.67 296.82 246.95C295.95 247.25 295.51 247.82 295.49 248.72C295.49 249.24 295.33 249.8 295.43 250.34C295.66 252.02 294.75 252.97 293.42 253.71C293.15 253.84 292.74 253.92 292.44 253.86C291.48 253.69 290.52 253.45 289.62 253.2C288.72 252.95 287.97 253.11 287.46 253.98C286.85 255.05 286.17 256.13 285.56 257.21C285.08 258.04 285.3 258.79 285.93 259.45C286.29 259.79 286.57 260.24 286.96 260.55C288.03 261.45 288.49 262.56 287.92 263.95C287.72 264.43 287.49 264.94 287.08 265.24C286.34 265.81 285.53 266.26 284.75 266.75C284 267.2 283.69 267.81 283.88 268.66C284.15 269.85 284.42 271.04 284.76 272.23C285 273.17 285.7 273.6 286.67 273.67C287.48 273.67 288.3 273.8 289.13 273.76C289.87 273.77 290.31 274.17 290.82 274.68C291.78 275.66 291.74 276.66 291.4 277.9C290.61 281.02 290.65 281.04 293.42 282.71ZM296.16 261.44C298.62 257.31 303.71 256.02 307.8 258.46C311.72 260.76 313.07 265.94 310.8 269.83C308.36 273.93 303.23 275.28 299.16 272.86C295.16 270.5 293.84 265.34 296.16 261.44Z" fill="#616C7A"/>
<path d="M295.95 258.13C300.09 253.99 306.82 253.99 310.96 258.13C315.1 262.27 315.1 269 310.96 273.14C306.82 277.28 300.09 277.28 295.95 273.14C291.81 269.01 291.81 262.27 295.95 258.13ZM306.83 269.01C308.69 267.15 308.69 264.12 306.83 262.26C304.97 260.4 301.94 260.4 300.08 262.26C298.22 264.12 298.22 267.15 300.08 269.01C301.94 270.87 304.97 270.87 306.83 269.01Z" fill="#BECFD7"/>
<g filter="url(#filter2_d)">
<path d="M1054.84 140.14H1610.04C1616.22 140.14 1621.23 145.15 1621.23 151.33V502.96C1621.23 509.14 1616.22 514.15 1610.04 514.15H1386.13" stroke="#ABCC9B" stroke-width="7" stroke-miterlimit="10" stroke-linecap="round"/>
</g>
<path d="M1067.23 518.88C1069.53 518.88 1071.4 517.013 1071.4 514.71C1071.4 512.407 1069.53 510.54 1067.23 510.54C1064.93 510.54 1063.06 512.407 1063.06 514.71C1063.06 517.013 1064.93 518.88 1067.23 518.88Z" fill="#ABCC9B"/>
<path opacity="0.56" d="M793.16 524.14H-83.1602V539.25H793.16V524.14Z" fill="#22303A"/>
<path d="M283.65 421.5V545.14H250.4V641.78H83.07V545.14H66.23V421.5C66.23 380.58 99.38 347.43 140.3 347.43H209.61C210.52 347.43 211.43 347.46 212.31 347.51C251.94 348.92 283.65 381.49 283.65 421.5Z" fill="#475362"/>
<path opacity="0.52" d="M214.61 168.03C219.194 168.03 222.91 164.314 222.91 159.73C222.91 155.146 219.194 151.43 214.61 151.43C210.026 151.43 206.31 155.146 206.31 159.73C206.31 164.314 210.026 168.03 214.61 168.03Z" fill="#616C7A"/>
<path d="M239.17 236.87V252.2C239.17 256.83 235.41 260.59 230.78 260.59H215.45V236.88H239.17V236.87ZM245.47 230.57H209.15V266.89H230.78C238.89 266.89 245.47 260.31 245.47 252.2V230.57Z" fill="#58595B"/>
<path d="M194 306.64V339.24C194 354.29 184.27 367.05 170.73 371.51C181.19 364.12 181.39 354.97 181.39 340.5C181.39 326 181.39 307.19 181.39 307.19H188.32L194 306.64Z" fill="#C6A27C"/>
<path d="M194 290.07V306.63L188.33 307.18H181.4C181.4 307.18 181.4 325.99 181.4 340.49C181.4 354.96 181.2 364.11 170.74 371.5C167.36 372.66 163.73 373.26 159.97 373.26C141.16 373.26 125.93 358.03 125.93 339.22V290.06H194V290.07Z" fill="#C6A27C"/>
<path d="M194 325.37V339.23C194 342.05 193.66 344.79 193.01 347.41C186.9 347.49 181.39 348.74 181.39 340.49V338.61C181.39 331.55 186.94 325.72 194 325.37Z" fill="#F6CF8E"/>
<path d="M232.45 177.88V308.08C232.45 317.64 224.71 325.38 215.15 325.38H133.49V231.99C133.49 202.11 157.72 177.88 187.6 177.88H232.45V177.88Z" fill="#C6A27C"/>
<path d="M232.45 177.88V308.08C232.45 317.64 224.71 325.38 215.15 325.38H201.43C210.66 325.38 218.15 317.89 218.15 308.64V177.88H232.45Z" fill="#F6CF8E"/>
<path d="M248.84 128.71V169.68C248.84 183.85 238 195.45 224.16 196.66C223.35 196.76 222.55 196.79 221.74 196.79H212.41C211.48 196.79 210.57 196.89 209.71 197.12C204.31 198.33 200.31 203.15 200.31 208.89V219.98C200.31 226.66 194.89 232.08 188.21 232.08H170.69V295.92C170.69 310.09 159.19 321.59 145.02 321.59H104.5V208.01C104.5 171.17 134.35 141.32 171.19 141.32H212.92C234.34 141.32 248.84 128.71 248.84 128.71Z" fill="#675A50"/>
<path d="M201.99 197.11H209.7C204.3 198.32 200.3 203.14 200.3 208.88V219.97C200.3 226.65 194.88 232.07 188.2 232.07H175.6C182.28 232.07 187.7 226.65 187.7 219.97V211.4C187.7 203.52 194.1 197.11 201.99 197.11Z" fill="#927D62"/>
<path d="M248.84 135.85V169.68C248.84 183.85 238 195.45 224.16 196.66C230.03 195.15 234.4 189.8 234.4 183.45V158.67C234.39 141.62 248.84 135.85 248.84 135.85Z" fill="#927D62"/>
<path d="M234.38 236.87V230.57H170.68V236.87H223.33H234.38Z" fill="#333333"/>
<path d="M418.09 641.78H242.89C229.65 641.78 218.89 631.04 218.89 617.78V545.14H275.64V587.02H363.33C378.46 587.02 392.12 593.15 402.06 603.06C407 608.03 411.04 613.93 413.78 620.48C413.78 620.51 413.78 620.51 413.81 620.53C414.79 622.85 415.63 625.24 416.28 627.72C417.46 632.2 418.09 636.92 418.09 641.78Z" fill="#C6A27C"/>
<path d="M402.05 603.06C406.99 608.03 411.03 613.93 413.77 620.48C409.18 611.5 403.95 600.6 387.64 600.6H304.88C296.84 601.33 290.77 598.39 290.77 589.79V587.02H363.32C378.45 587.02 392.12 593.15 402.05 603.06Z" fill="#F6CF8E"/>
<path d="M161.91 393.67L173.26 405.03L161.91 416.39L164.42 418.9L178.28 405.03L164.42 391.16L161.91 393.67Z" fill="#616C7A"/>
<path d="M140.88 393.67L129.52 405.03L140.88 416.39L138.37 418.9L124.5 405.03L138.37 391.16L140.88 393.67Z" fill="#616C7A"/>
<path d="M159.18 403.49C159.18 401.17 157.3 399.28 154.97 399.28C153.45 399.28 152.13 400.09 151.39 401.29C150.65 400.09 149.32 399.28 147.81 399.28C145.49 399.28 143.6 401.16 143.6 403.49C143.6 404.75 144.16 405.89 145.04 406.66L151 412.62C151.1 412.72 151.24 412.78 151.38 412.78C151.52 412.78 151.66 412.72 151.76 412.62L157.72 406.66C158.62 405.88 159.18 404.75 159.18 403.49Z" fill="#616C7A"/>
<path d="M283.65 421.5V503.11H257.23V395.06C257.23 369.67 237.34 348.92 212.3 347.51C251.94 348.92 283.65 381.49 283.65 421.5Z" fill="#616C7A"/>
<path d="M291.53 545.13H209.51V432.81C209.51 410.16 227.87 391.8 250.52 391.8C273.17 391.8 291.53 410.16 291.53 432.81V545.13Z" fill="#616C7A"/>
<path d="M568.94 457.78L599.07 524.08H628.23C636.24 524.08 641.58 515.81 638.28 508.51L615.37 457.78H568.94V457.78Z" fill="#5D6266"/>
<path d="M626.15 516.93H590.68L563.75 457.78H610.18L632.86 507.57C634.87 512.02 631.35 516.93 626.15 516.93Z" fill="url(#paint2_linear)"/>
<path d="M568.31 516.93H623.15L620.22 524.08H564.91L568.31 516.93Z" fill="#B3B6B8"/>
<path d="M639.45 494.71H543.23C539.69 494.71 537.56 492.05 538.49 488.76L567.43 386.15C568.82 381.21 580.95 388.41 586.28 388.41L639.65 382.74L670.24 379.22C672.77 382.88 676.01 386.7 674.42 393.47L647.54 488.76C646.62 492.05 642.99 494.71 639.45 494.71Z" fill="#5D6266"/>
<path d="M632.79 494.71H536.57C533.02 494.71 530.9 492.05 531.83 488.76L559.04 392.3C560.43 387.36 565.88 383.36 571.21 383.36H660.97C666.3 383.36 669.49 387.36 668.1 392.3L640.89 488.76C639.96 492.05 636.34 494.71 632.79 494.71Z" fill="#B3B6B8"/>
<path d="M646.16 470.1H537.1L561.62 383.16C562.55 379.88 566.17 377.21 569.72 377.21H665.94C669.48 377.21 671.61 379.87 670.68 383.16L646.16 470.1Z" fill="#31B3D7"/>
<path d="M591.894 487.119C595.856 484.52 597.477 479.987 595.515 476.995C593.552 474.002 588.749 473.683 584.786 476.282C580.824 478.88 579.203 483.413 581.165 486.405C583.128 489.398 587.931 489.717 591.894 487.119Z" fill="#A6A8AB"/>
<path d="M619.82 421.94C619.54 421.85 619.31 421.71 619.02 421.68C617.24 421.59 616.97 420.27 616.95 418.8C616.93 418.53 617.13 418.14 617.33 417.87C618.06 416.87 618.85 415.93 619.61 414.93C620.19 414.14 620.36 413.42 619.9 412.77C619.25 411.85 618.57 410.93 617.88 410.04C617.42 409.42 616.68 409.37 615.78 409.8C615.16 410.08 614.53 410.3 613.95 410.67C612.54 411.53 611.38 411.7 610.27 410.93C609.76 410.61 609.45 410.31 609.46 409.62C609.48 408.66 609.38 407.7 609.32 406.75C609.28 406 608.89 405.59 608.08 405.57L603.91 405.63C603.09 405.64 602.46 406.1 602.01 406.86C601.63 407.46 601.17 408.07 600.91 408.67C600.26 410.15 599.26 411.06 597.67 411.5C596.99 411.69 596.51 411.79 596.03 411.43C595.32 410.93 594.53 410.55 593.8 410.11C593.07 409.7 592.31 409.74 591.43 410.41C590.29 411.29 589.1 412.21 588 413.16C587.58 413.5 587.29 413.98 586.92 414.46C587.13 415.45 587.14 416.49 587.56 417.27C588.27 418.73 587.1 419.94 586.21 421.21C586.06 421.42 585.66 421.58 585.36 421.67C584.33 422.01 583.28 422.36 582.2 422.64C581.13 422.93 580.44 423.56 580.13 424.59C579.72 425.85 579.38 427.12 579.05 428.41C578.84 429.28 579.13 429.88 579.94 430.1C580.4 430.27 580.89 430.48 581.41 430.56C582.81 430.84 583.78 431.45 583.59 433.04C583.5 433.58 583.37 434.18 583.08 434.7C582.61 435.43 581.97 436.12 581.41 436.82C580.3 438.24 580.17 438.82 580.91 439.94C581.4 440.77 582.04 441.51 582.64 442.28C583.16 442.9 583.9 442.95 584.87 442.49C585.43 442.21 586.05 442.02 586.56 441.69C588.26 440.56 589.53 440.84 590.7 441.63C590.93 441.78 591.11 442.1 591.12 442.4C591.22 443.36 591.26 444.32 591.26 445.27C591.28 446.2 591.66 446.76 592.69 446.75C593.99 446.73 595.31 446.74 596.61 446.72C597.62 446.68 598.35 446.1 598.84 445.16C599.13 444.65 599.5 444.16 599.71 443.65C600.36 442.14 601.41 441.17 602.99 440.91C603.56 440.81 604.17 440.77 604.6 440.95C605.41 441.3 606.11 441.8 606.86 442.24C607.53 442.65 608.3 442.58 609.1 441.97C610.28 441.05 611.43 440.17 612.56 439.22C613.48 438.49 613.75 437.62 613.51 436.75C613.33 435.97 613.18 435.2 612.93 434.48C612.7 433.79 613 433.22 613.38 432.5C614.16 431.08 615.21 430.56 616.57 430.18C620.12 429.2 620.1 429.17 621.07 425.74L621.28 424.96C621.87 422.81 621.73 422.58 619.82 421.94ZM598.01 434.93C593.04 434.98 590.23 431.21 591.58 426.26C592.85 421.56 597.85 417.53 602.56 417.43C607.51 417.36 610.39 421.15 609.05 426.05C607.73 430.86 602.76 434.87 598.01 434.93Z" fill="#616C7A"/>
<path d="M597.32 436.52C591.46 436.52 588.06 431.75 589.76 425.88C591.45 420.02 597.6 415.25 603.47 415.25C609.33 415.25 612.73 420.02 611.03 425.88C609.33 431.75 603.18 436.52 597.32 436.52ZM602.38 419.02C598.59 419.02 594.62 422.1 593.53 425.89C592.44 429.68 594.63 432.76 598.41 432.76C602.2 432.76 606.17 429.68 607.26 425.89C608.35 422.1 606.16 419.02 602.38 419.02Z" fill="#BECFD7"/>
<path d="M704.96 457.78L735.09 524.08H744.37C752.46 524.08 757.85 515.71 754.49 508.34L731.46 457.78H704.96Z" fill="#5D6266"/>
<path d="M742.27 516.93H726.72L699.77 457.78H726.28L748.98 507.57C750.99 512.02 747.47 516.93 742.27 516.93Z" fill="url(#paint3_linear)"/>
<path d="M706.54 516.93H739.24L736.31 524.08H703.15L706.54 516.93Z" fill="#B3B6B8"/>
<path d="M740.46 494.71H699.76C695.94 494.71 693.65 491.84 694.65 488.3L710.89 430.71C711.89 427.17 721.99 430.9 725.81 430.9L759.93 426.6C759.93 426.6 764.84 432.76 763.85 436.3L749.18 488.3C748.18 491.84 744.28 494.71 740.46 494.71Z" fill="#5D6266"/>
<path d="M735.67 494.71H693.98C690.44 494.71 688.31 492.05 689.24 488.76L692.96 475.58C694.35 470.64 705.59 446.13 710.92 446.13H746.15C751.48 446.13 748.88 470.64 747.49 475.58L743.77 488.76C742.84 492.05 739.21 494.71 735.67 494.71Z" fill="#B3B6B8"/>
<path d="M747.48 475.58H692.95L705.74 430.25C706.67 426.97 710.29 424.3 713.84 424.3H755.53C759.07 424.3 761.2 426.96 760.27 430.25L747.48 475.58Z" fill="#31B3D7"/>
<path d="M720.228 488.749C723.156 486.829 724.356 483.483 722.908 481.275C721.461 479.068 717.914 478.835 714.986 480.755C712.058 482.675 710.858 486.021 712.305 488.229C713.753 490.436 717.3 490.669 720.228 488.749Z" fill="#A6A8AB"/>
<path d="M729.917 459.723C735.63 455.977 737.97 449.446 735.144 445.138C732.319 440.829 725.397 440.373 719.684 444.12C713.971 447.866 711.631 454.396 714.457 458.705C717.283 463.014 724.205 463.47 729.917 459.723Z" fill="#616C7A"/>
<path d="M722.41 457.24L720.96 455.27L737.66 442.06L739.11 444.03L722.41 457.24Z" fill="#BECFD7"/>
<path d="M724.9 455.27L722.41 457.24L716.87 450.03L719.36 448.06L724.9 455.27Z" fill="#BECFD7"/>
<path d="M1087.76 514.71H1311.47" stroke="#ABCC9B" stroke-width="7" stroke-miterlimit="10" stroke-linecap="round"/>
<g filter="url(#filter3_d)">
<path d="M1442.97 457.25H1231.3V592.69H1442.97V457.25Z" fill="url(#paint4_linear)"/>
<path d="M1256 457H1231V593H1256V457Z" fill="#D1D4D3"/>
<path d="M1296.93 457.25H1272.1V592.69H1296.93V457.25Z" fill="url(#paint5_linear)"/>
<path d="M1402.18 457.25H1377.35V592.69H1402.18V457.25Z" fill="#D1D4D3"/>
<path d="M1442.98 457.25H1418.15V592.69H1442.98V457.25Z" fill="#D1D4D3"/>
<path d="M1365.18 469.24H1309.11V488.32H1365.18V469.24Z" fill="#F4C170"/>
<path d="M1337.14 551.1C1352.59 551.1 1365.12 538.573 1365.12 523.12C1365.12 507.667 1352.59 495.14 1337.14 495.14C1321.69 495.14 1309.16 507.667 1309.16 523.12C1309.16 538.573 1321.69 551.1 1337.14 551.1Z" fill="#8795A2"/>
<path d="M1365.18 523.12H1309.11V577.45H1365.18V523.12Z" fill="#45494B"/>
<path d="M1339.06 526.51H1335.21V573.83H1339.06V526.51Z" fill="#6D6E71"/>
<path d="M1443 577.002H1231V593.002H1443V577.002Z" fill="#B3B6B8"/>
<path d="M1465.37 592.69H1208.92V607.92H1465.37V592.69Z" fill="#D1D4D3"/>
<path d="M1464.37 442.02H1209.91L1337.14 386.03L1464.37 442.02Z" fill="#959A9C"/>
<path d="M1337.14 432.31C1342.65 432.31 1347.11 427.846 1347.11 422.34C1347.11 416.834 1342.65 412.37 1337.14 412.37C1331.63 412.37 1327.17 416.834 1327.17 422.34C1327.17 427.846 1331.63 432.31 1337.14 432.31Z" fill="#5E5E5E"/>
<path d="M1337.14 432.31C1342.65 432.31 1347.11 427.846 1347.11 422.34C1347.11 416.834 1342.65 412.37 1337.14 412.37C1331.63 412.37 1327.17 416.834 1327.17 422.34C1327.17 427.846 1331.63 432.31 1337.14 432.31Z" stroke="#D1D4D3" stroke-width="9.6795" stroke-miterlimit="10"/>
<path d="M1464.37 442.02L1342.4 388.34L1337.14 386.03H1337.13L1331.84 388.36L1209.91 442.02L1230.81 444.31L1337.14 397.51L1443.46 444.31L1464.37 442.02Z" fill="#B3B6B8"/>
<path d="M1464.37 442.021H1209.91V457.25H1464.37V442.021Z" fill="#B3B6B8"/>
<path opacity="0.2" d="M1296.93 457.25H1272.1V461.22H1296.93V457.25Z" fill="url(#paint6_linear)"/>
<path opacity="0.2" d="M1256.13 457.25H1231.3V461.22H1256.13V457.25Z" fill="url(#paint7_linear)"/>
<path opacity="0.2" d="M1442.98 457.25H1418.15V461.22H1442.98V457.25Z" fill="url(#paint8_linear)"/>
<path opacity="0.2" d="M1402.18 457.25H1377.35V461.22H1402.18V457.25Z" fill="url(#paint9_linear)"/>
</g>
<g filter="url(#filter4_d)">
<path d="M1619.37 389.29C1617.25 388.47 1567.76 368.59 1567.76 322.91L1567.72 277.34C1567.71 275.55 1568.52 273.84 1569.93 272.76C1570.87 272.04 1593.22 264.64 1621.23 264.64C1649.24 264.64 1671.6 272.04 1672.53 272.76C1673.93 273.82 1674.75 275.53 1674.74 277.34V322.79C1674.74 370.1 1625.07 388.58 1622.98 389.34C1622.43 389.54 1621.83 389.64 1621.25 389.64C1620.61 389.64 1619.97 389.52 1619.37 389.29Z" fill="#B6C4CD" stroke="#75858D" stroke-width="6.2294" stroke-miterlimit="10"/>
<path d="M1642.93 306.73C1639.54 305.55 1637.26 305.61 1635.28 305.27C1636.54 307.24 1640.11 312.98 1640.28 313.3C1646.35 314.72 1651.04 316.88 1651.04 321.04C1651.04 324.53 1646.71 327.67 1639.82 329.85C1637.98 324.15 1635.29 318.02 1631.96 311.99C1627.65 304.2 1622.73 297.4 1617.75 292.32C1611.99 286.44 1606.7 283.45 1602.04 283.45C1600.15 283.45 1598.41 283.92 1596.86 284.86C1594.8 286.1 1592.19 288.7 1591.44 294.08C1591.02 297.05 1591.22 300.63 1592.02 304.71C1592.73 308.36 1593.51 309.99 1594.56 311.95C1595.57 309.82 1599.19 303.74 1599.37 303.43C1596.67 296.83 1596.4 292.33 1599.86 290.25C1600.5 289.86 1601.24 289.68 1602.05 289.68C1604.9 289.68 1608.7 291.98 1612.78 295.97C1608.95 300.49 1605.23 305.95 1601.87 312C1597 320.79 1593.5 329.81 1592.02 337.39C1591.22 341.47 1591.03 345.05 1591.44 348.02C1592.19 353.4 1594.81 356 1596.86 357.24C1598.41 358.17 1600.15 358.65 1602.03 358.65C1606.69 358.65 1611.98 355.67 1617.74 349.78C1619.79 347.68 1620.49 347.58 1622.48 344.95C1620.21 345.1 1614.84 345.17 1614.49 345.17C1609.27 351.14 1605.59 352.43 1602.03 352.43C1601.22 352.43 1600.48 352.24 1599.84 351.86C1596.94 350.11 1596.49 344.64 1598.13 337.34C1603.79 338.53 1610.23 339.16 1616.91 339.16C1626.65 339.16 1635.9 337.81 1642.94 335.36C1646.73 334.04 1649.8 332.43 1652.06 330.56C1656.15 327.19 1657.01 323.53 1657.01 321.05C1657.01 318.57 1656.15 314.91 1652.06 311.54C1649.79 309.66 1646.72 308.05 1642.93 306.73ZM1599.81 331.32C1601.48 326.27 1603.91 320.71 1607.03 315.09C1610.15 309.47 1613.55 304.49 1616.91 300.46C1620.27 304.49 1623.67 309.47 1626.79 315.09C1629.91 320.72 1632.33 326.27 1634 331.32C1628.97 332.33 1623.14 332.92 1616.91 332.92C1610.67 332.92 1604.83 332.33 1599.81 331.32Z" fill="#6A7A86"/>
</g>
<g filter="url(#filter5_d)">
<path d="M1415.55 214.65L1398.77 222.61C1397.92 223.01 1397.23 222.23 1397.23 220.86V119.96C1397.23 118.59 1397.93 117.81 1398.77 118.21L1415.55 126.17C1416.15 126.45 1416.63 127.6 1416.63 128.73V212.09C1416.63 213.22 1416.15 214.36 1415.55 214.65Z" fill="url(#paint10_linear)"/>
<path d="M1245.92 213.42L1273.09 221.38C1274.46 221.78 1275.59 221 1275.59 219.63V118.73C1275.59 117.36 1274.46 116.58 1273.09 116.98L1245.92 124.94C1244.95 125.22 1244.17 126.37 1244.17 127.5V210.86C1244.17 211.99 1244.95 213.13 1245.92 213.42Z" fill="url(#paint11_linear)"/>
<path d="M1390.23 94.54H1282.15C1272.08 94.54 1263.92 102.7 1263.92 112.77V152.42C1263.92 177.04 1265.74 201.62 1269.35 225.97L1272.35 246.19C1273.02 250.71 1276.04 254.53 1280.28 256.22L1306.59 266.75C1324.18 273.79 1343.75 274.02 1361.51 267.41L1391.82 256.12C1396.2 254.49 1399.35 250.6 1400.04 245.97L1403.01 225.96C1406.63 201.61 1408.44 177.03 1408.44 152.41V112.76C1408.45 102.7 1400.29 94.54 1390.23 94.54Z" fill="#7C8083"/>
<path d="M1393.77 111.89H1278.6L1290.71 66.8501C1293.73 55.6301 1303.9 47.8301 1315.52 47.8301H1356.87C1368.49 47.8301 1378.66 55.6301 1381.68 66.8501L1393.77 111.89Z" fill="#7C8083"/>
<path opacity="0.92" d="M1336.19 102.93C1356.11 102.93 1372.26 93.004 1372.26 80.7599C1372.26 68.5157 1356.11 58.5898 1336.19 58.5898C1316.27 58.5898 1300.12 68.5157 1300.12 80.7599C1300.12 93.004 1316.27 102.93 1336.19 102.93Z" fill="#45494B"/>
<path d="M1336.19 91.9001C1346.2 91.9001 1354.32 86.9126 1354.32 80.7601C1354.32 74.6077 1346.2 69.6201 1336.19 69.6201C1326.18 69.6201 1318.06 74.6077 1318.06 80.7601C1318.06 86.9126 1326.18 91.9001 1336.19 91.9001Z" fill="#575959"/>
<path d="M1256.93 94.6899H1250.21L1248.49 107.82V222.97L1252.94 242.08C1252.94 242.08 1253.18 242.62 1253.57 242.62C1253.96 242.62 1254.2 242.08 1254.2 242.08L1258.65 222.97V107.83L1256.93 94.6899Z" fill="#45494B"/>
<path d="M1373.3 202.01H1361.31C1360.03 202.01 1358.99 203.05 1358.99 204.33V209.19C1358.99 210.47 1360.03 211.51 1361.31 211.51H1373.3C1374.58 211.51 1375.62 210.47 1375.62 209.19V204.33C1375.62 203.05 1374.58 202.01 1373.3 202.01Z" fill="#EA3755"/>
<path d="M1369.65 248.24H1364.95C1361.66 248.24 1358.98 245.57 1358.98 242.27V235.28C1358.98 231.99 1361.65 229.31 1364.95 229.31H1369.65C1372.94 229.31 1375.62 231.98 1375.62 235.28V242.27C1375.62 245.56 1372.94 248.24 1369.65 248.24Z" fill="#64BB53"/>
<path d="M1369.65 226.49H1364.95C1361.66 226.49 1358.98 223.82 1358.98 220.52V220.21C1358.98 216.92 1361.65 214.24 1364.95 214.24H1369.65C1372.94 214.24 1375.62 216.91 1375.62 220.21V220.52C1375.62 223.82 1372.94 226.49 1369.65 226.49Z" fill="#F6DB65"/>
<path d="M1331.69 202.01H1319.7C1318.42 202.01 1317.38 203.05 1317.38 204.33V209.19C1317.38 210.47 1318.42 211.51 1319.7 211.51H1331.69C1332.97 211.51 1334.01 210.47 1334.01 209.19V204.33C1334.01 203.05 1332.98 202.01 1331.69 202.01Z" fill="#3C4042"/>
<path d="M1311.07 202.01H1299.08C1297.8 202.01 1296.76 203.05 1296.76 204.33V209.19C1296.76 210.47 1297.8 211.51 1299.08 211.51H1311.07C1312.35 211.51 1313.39 210.47 1313.39 209.19V204.33C1313.39 203.05 1312.35 202.01 1311.07 202.01Z" fill="#3C4042"/>
<path d="M1352.32 202.01H1340.33C1339.05 202.01 1338.01 203.05 1338.01 204.33V209.19C1338.01 210.47 1339.05 211.51 1340.33 211.51H1352.32C1353.6 211.51 1354.64 210.47 1354.64 209.19V204.33C1354.64 203.05 1353.6 202.01 1352.32 202.01Z" fill="#3C4042"/>
<path d="M1331.69 214.25H1319.7C1318.42 214.25 1317.38 215.29 1317.38 216.57V221.43C1317.38 222.71 1318.42 223.75 1319.7 223.75H1331.69C1332.97 223.75 1334.01 222.71 1334.01 221.43V216.57C1334.01 215.29 1332.98 214.25 1331.69 214.25Z" fill="#3C4042"/>
<path d="M1311.07 214.25H1299.08C1297.8 214.25 1296.76 215.29 1296.76 216.57V221.43C1296.76 222.71 1297.8 223.75 1299.08 223.75H1311.07C1312.35 223.75 1313.39 222.71 1313.39 221.43V216.57C1313.39 215.29 1312.35 214.25 1311.07 214.25Z" fill="#3C4042"/>
<path d="M1352.32 214.25H1340.33C1339.05 214.25 1338.01 215.29 1338.01 216.57V221.43C1338.01 222.71 1339.05 223.75 1340.33 223.75H1352.32C1353.6 223.75 1354.64 222.71 1354.64 221.43V216.57C1354.64 215.29 1353.6 214.25 1352.32 214.25Z" fill="#3C4042"/>
<path d="M1331.69 226.49H1319.7C1318.42 226.49 1317.38 227.53 1317.38 228.81V233.67C1317.38 234.95 1318.42 235.99 1319.7 235.99H1331.69C1332.97 235.99 1334.01 234.95 1334.01 233.67V228.81C1334.01 227.53 1332.98 226.49 1331.69 226.49Z" fill="#3C4042"/>
<path d="M1311.07 226.49H1299.08C1297.8 226.49 1296.76 227.53 1296.76 228.81V233.67C1296.76 234.95 1297.8 235.99 1299.08 235.99H1311.07C1312.35 235.99 1313.39 234.95 1313.39 233.67V228.81C1313.39 227.53 1312.35 226.49 1311.07 226.49Z" fill="#3C4042"/>
<path d="M1352.32 226.49H1340.33C1339.05 226.49 1338.01 227.53 1338.01 228.81V233.67C1338.01 234.95 1339.05 235.99 1340.33 235.99H1352.32C1353.6 235.99 1354.64 234.95 1354.64 233.67V228.81C1354.64 227.53 1353.6 226.49 1352.32 226.49Z" fill="#3C4042"/>
<path d="M1331.69 238.74H1319.7C1318.42 238.74 1317.38 239.78 1317.38 241.06V245.92C1317.38 247.2 1318.42 248.24 1319.7 248.24H1331.69C1332.97 248.24 1334.01 247.2 1334.01 245.92V241.06C1334.01 239.78 1332.98 238.74 1331.69 238.74Z" fill="#3C4042"/>
<path opacity="0.85" d="M1362.14 179.34L1336.19 180.43L1310.24 179.34L1294.98 186.07C1289.71 188.39 1286.31 193.61 1286.31 199.37V257C1286.31 257.72 1286.9 258.31 1287.62 258.31C1288.34 258.31 1288.93 257.72 1288.93 257V255.69C1288.93 240.42 1306.48 244.16 1306.48 228.93V209.85C1306.48 201.99 1312.85 195.62 1320.71 195.62H1351.69C1359.55 195.62 1365.92 201.99 1365.92 209.85V228.93C1365.92 244.16 1383.47 240.43 1383.47 255.69V257C1383.47 257.72 1384.06 258.31 1384.78 258.31C1385.5 258.31 1386.09 257.72 1386.09 257V199.36C1386.09 193.6 1382.69 188.38 1377.42 186.06L1362.14 179.34Z" fill="#4A5C6B"/>
<path d="M1392.23 190.61C1355.22 183.31 1317.14 183.31 1280.14 190.61C1278.56 190.92 1277.09 189.73 1277.09 188.12V112.02C1277.09 110 1278.73 108.36 1280.75 108.36H1391.63C1393.65 108.36 1395.29 110 1395.29 112.02V188.12C1395.28 189.73 1393.81 190.92 1392.23 190.61Z" fill="#45494B"/>
<path d="M1382.74 174.61H1289.62C1287.78 174.61 1286.29 173.12 1286.29 171.28V120.2C1286.29 118.36 1287.78 116.87 1289.62 116.87H1382.74C1384.58 116.87 1386.07 118.36 1386.07 120.2V171.28C1386.08 173.12 1384.58 174.61 1382.74 174.61Z" fill="#48B249"/>
<path opacity="0.67" d="M1353.99 256.53H1317.59C1310.6 256.53 1304.75 258.86 1303.1 265.34L1306.16 266.56C1324.03 273.71 1343.93 273.95 1361.97 267.24L1368.36 264.86C1366.54 258.63 1360.8 256.53 1353.99 256.53Z" fill="url(#paint12_linear)"/>
<path d="M1344.78 56.15C1346.14 56.15 1347.24 55.0486 1347.24 53.69C1347.24 52.3314 1346.14 51.23 1344.78 51.23C1343.42 51.23 1342.32 52.3314 1342.32 53.69C1342.32 55.0486 1343.42 56.15 1344.78 56.15Z" fill="#A7A8AB"/>
<path d="M1326.67 56.15C1328.03 56.15 1329.13 55.0486 1329.13 53.69C1329.13 52.3314 1328.03 51.23 1326.67 51.23C1325.31 51.23 1324.21 52.3314 1324.21 53.69C1324.21 55.0486 1325.31 56.15 1326.67 56.15Z" fill="#A7A8AB"/>
<path d="M1308.57 61.0699C1309.93 61.0699 1311.03 59.9685 1311.03 58.6099C1311.03 57.2513 1309.93 56.1499 1308.57 56.1499C1307.21 56.1499 1306.11 57.2513 1306.11 58.6099C1306.11 59.9685 1307.21 61.0699 1308.57 61.0699Z" fill="#A7A8AB"/>
<path d="M1362.88 61.0699C1364.24 61.0699 1365.34 59.9685 1365.34 58.6099C1365.34 57.2513 1364.24 56.1499 1362.88 56.1499C1361.52 56.1499 1360.42 57.2513 1360.42 58.6099C1360.42 59.9685 1361.52 61.0699 1362.88 61.0699Z" fill="#A7A8AB"/>
<path d="M1353.17 137.94L1334.83 156.28L1332.09 153.54L1350.43 135.2L1353.17 137.94Z" fill="white"/>
<path d="M1325.57 141.568L1322.83 144.304L1334.81 156.282L1337.55 153.546L1325.57 141.568Z" fill="white"/>
</g>
<g filter="url(#filter6_d)">
<path d="M955.2 569.749C986.603 569.749 1012.06 544.292 1012.06 512.889C1012.06 481.486 986.603 456.029 955.2 456.029C923.797 456.029 898.34 481.486 898.34 512.889C898.34 544.292 923.797 569.749 955.2 569.749Z" fill="#FFE09B"/>
<path d="M955.2 559.579C929.45 559.579 908.51 538.629 908.51 512.889C908.51 487.139 929.46 466.199 955.2 466.199C980.95 466.199 1001.89 487.149 1001.89 512.889C1001.89 538.629 980.95 559.579 955.2 559.579ZM955.2 472.909C933.16 472.909 915.23 490.839 915.23 512.889C915.23 534.929 933.16 552.859 955.2 552.859C977.24 552.859 995.17 534.929 995.17 512.889C995.18 490.839 977.24 472.909 955.2 472.909Z" fill="#F5B35F"/>
<path d="M954.66 508.909L959.5 509.889C963.61 510.699 966.64 511.969 968.58 513.719C970.52 515.469 971.49 517.879 971.49 520.949C971.49 524.179 970.42 526.879 968.29 529.049C966.16 531.219 963.23 532.589 959.5 533.169V539.219H952.53V533.169C948.53 532.589 945.31 531.119 942.85 528.759C940.39 526.399 939.03 523.349 938.76 519.629H947C947.31 521.629 948.3 523.199 949.97 524.359C951.64 525.509 953.76 526.089 956.34 526.089C958.41 526.089 960.02 525.729 961.15 524.989C962.28 524.259 962.85 523.219 962.85 521.879C962.85 519.839 961.2 518.499 957.89 517.849L951.55 516.639C944.06 515.219 940.31 511.379 940.31 505.109C940.31 501.769 941.41 498.979 943.62 496.749C945.83 494.519 948.8 493.179 952.52 492.719V486.549H959.49V492.889C962.91 493.509 965.7 494.839 967.87 496.899C970.04 498.959 971.3 501.789 971.64 505.399H963.34C962.76 501.559 960.29 499.639 955.91 499.639C953.84 499.639 952.19 500.059 950.98 500.909C949.77 501.759 949.16 502.929 949.16 504.429C949.16 505.659 949.6 506.619 950.49 507.309C951.39 507.989 952.77 508.529 954.66 508.909Z" fill="#F5B35F"/>
</g>
<g filter="url(#filter7_d)">
<path d="M1007.03 512.48C1030.01 512.48 1048.64 493.85 1048.64 470.87C1048.64 447.889 1030.01 429.26 1007.03 429.26C984.049 429.26 965.42 447.889 965.42 470.87C965.42 493.85 984.049 512.48 1007.03 512.48Z" fill="#EDEDED"/>
<path d="M1007.03 505.04C988.19 505.04 972.86 489.71 972.86 470.87C972.86 452.03 988.19 436.7 1007.03 436.7C1025.87 436.7 1041.2 452.03 1041.2 470.87C1041.2 489.71 1025.87 505.04 1007.03 505.04ZM1007.03 441.62C990.9 441.62 977.78 454.74 977.78 470.87C977.78 487 990.9 500.12 1007.03 500.12C1023.16 500.12 1036.28 487 1036.28 470.87C1036.29 454.74 1023.16 441.62 1007.03 441.62Z" fill="#B2B5B6"/>
<path d="M1006.63 467.96L1010.17 468.68C1013.18 469.27 1015.39 470.21 1016.81 471.48C1018.23 472.76 1018.94 474.52 1018.94 476.77C1018.94 479.13 1018.16 481.11 1016.6 482.7C1015.04 484.29 1012.9 485.29 1010.17 485.72V490.15H1005.07V485.72C1002.15 485.3 999.78 484.22 997.98 482.49C996.18 480.76 995.18 478.53 994.99 475.81H1001.02C1001.24 477.27 1001.97 478.42 1003.19 479.27C1004.41 480.11 1005.97 480.54 1007.85 480.54C1009.37 480.54 1010.54 480.27 1011.37 479.74C1012.2 479.21 1012.61 478.45 1012.61 477.46C1012.61 475.97 1011.4 474.99 1008.98 474.51L1004.34 473.62C998.86 472.58 996.12 469.77 996.12 465.19C996.12 462.74 996.93 460.71 998.54 459.07C1000.16 457.44 1002.33 456.46 1005.06 456.12V451.61H1010.16V456.25C1012.66 456.7 1014.71 457.68 1016.3 459.18C1017.89 460.68 1018.81 462.76 1019.06 465.4H1013C1012.58 462.59 1010.76 461.18 1007.56 461.18C1006.04 461.18 1004.84 461.49 1003.95 462.11C1003.06 462.73 1002.62 463.59 1002.62 464.68C1002.62 465.58 1002.94 466.28 1003.59 466.79C1004.24 467.29 1005.25 467.68 1006.63 467.96Z" fill="#B2B5B6"/>
</g>
<path d="M1040.07 144.31C1042.37 144.31 1044.24 142.443 1044.24 140.14C1044.24 137.837 1042.37 135.97 1040.07 135.97C1037.77 135.97 1035.9 137.837 1035.9 140.14C1035.9 142.443 1037.77 144.31 1040.07 144.31Z" fill="#ABCC9B"/>
<path opacity="0.85" d="M1174.36 190.05C1174.34 188.52 1173.43 187.57 1171.98 187.18C1170.73 186.78 1169.51 186.35 1168.25 186.08C1167.06 185.81 1166.6 185.05 1166.01 184.1C1164.9 182.2 1165.29 180.69 1166.22 178.95C1168.65 174.44 1168.59 174.44 1164.92 170.81L1164.08 169.99C1161.71 167.75 1161.23 167.73 1158.35 169.27C1157.94 169.5 1157.49 169.63 1157.14 169.93C1155.12 171.75 1153.03 171.05 1151 169.96C1150.61 169.77 1150.29 169.27 1150.12 168.85C1149.52 167.32 1149.08 165.76 1148.52 164.2C1148.06 162.99 1147.24 162.27 1145.87 162.26C1143.92 162.26 1141.94 162.28 1139.99 162.34C1138.65 162.36 1137.8 163.11 1137.43 164.39C1137.15 165.26 1136.78 166.1 1136.67 166.99C1136.35 169.14 1135.35 170.49 1133.12 171.1C1132.13 171.4 1131.4 171.51 1130.46 170.98C1129.17 170.23 1127.75 169.61 1126.37 168.96C1125.31 168.43 1124.32 168.54 1123.43 169.39L1119.08 173.87C1118.23 174.75 1118.18 175.77 1118.74 176.82C1119.17 177.68 1119.5 178.63 1120.06 179.36C1121.4 181.16 1121.58 182.92 1120.49 184.95C1120.02 185.82 1119.65 186.4 1118.66 186.64C1117.23 187.01 1115.86 187.58 1114.49 188.01C1113.15 188.48 1112.4 189.32 1112.39 190.76C1112.39 192.65 1112.38 194.6 1112.51 196.48C1112.52 197.18 1112.88 197.85 1113.15 198.61C1114.72 199.13 1116.17 199.91 1117.68 200.05C1120.43 200.39 1120.85 202.56 1121.65 204.47C1121.78 204.79 1121.57 205.34 1121.38 205.72C1120.76 207.07 1120.11 208.46 1119.36 209.81C1118.61 211.16 1118.76 212.38 1119.83 213.48C1121.13 214.87 1122.49 216.19 1123.92 217.51C1124.89 218.39 1126.01 218.53 1127.19 217.85C1127.92 217.49 1128.71 217.13 1129.38 216.64C1131.25 215.37 1133.13 214.8 1135.1 216.21C1135.75 216.71 1136.43 217.31 1136.82 218.01C1137.32 219.06 1137.59 220.27 1137.96 221.38C1138.73 223.64 1139.38 224.21 1141.71 224.27C1143.37 224.37 1145.07 224.25 1146.76 224.2C1148.16 224.12 1149.02 223.37 1149.41 221.99C1149.62 221.19 1150.03 220.38 1150.11 219.58C1150.36 216.92 1152.1 215.78 1154.43 215.14C1154.88 215.01 1155.52 215.06 1155.94 215.28C1157.36 215.9 1158.71 216.58 1160.03 217.3C1161.32 217.98 1162.5 218 1163.57 216.9C1164.92 215.51 1166.34 214.11 1167.7 212.72C1168.71 211.62 1168.69 210.4 1167.94 209.17C1167.55 208.47 1167.28 207.71 1166.79 207.11C1165.42 205.28 1165.2 203.42 1166.52 201.55C1166.99 200.87 1167.59 200.19 1168.29 199.86C1169.62 199.27 1171.06 198.89 1172.46 198.42C1173.73 198.02 1174.46 197.14 1174.47 195.83C1174.44 193.85 1174.45 191.97 1174.36 190.05ZM1154.4 204.2C1148.17 210.43 1138.03 210.43 1131.79 204.2C1125.56 197.97 1125.56 187.83 1131.79 181.6C1138.02 175.37 1148.16 175.37 1154.39 181.6C1160.64 187.83 1160.64 197.97 1154.4 204.2Z" fill="#4D9FBE"/>
<path opacity="0.72" d="M1131.8 181.6C1125.57 187.83 1125.57 197.97 1131.8 204.2C1138.03 210.43 1148.17 210.43 1154.41 204.2C1160.64 197.97 1160.64 187.83 1154.41 181.59C1148.17 175.37 1138.03 175.37 1131.8 181.6ZM1135.8 200.2C1131.78 196.18 1131.78 189.63 1135.8 185.6C1139.82 181.58 1146.37 181.58 1150.4 185.6C1154.42 189.62 1154.42 196.17 1150.4 200.2C1146.38 204.22 1139.83 204.22 1135.8 200.2Z" fill="#4D9FBE"/>
<path d="M662.58 581.87V587.48C660.64 589.01 659.13 590.95 658.07 593.11C657.04 595.27 656.47 597.68 656.47 600.14V632.33C656.47 638.13 651.77 642.83 645.97 642.83H608.43C602.63 642.83 597.93 638.13 597.93 632.33V581.87H662.58V581.87Z" fill="#48B249"/>
<path d="M661.15 591.95C666.86 591.95 671.51 596.6 671.51 602.31V611.09C671.51 616.8 666.86 621.45 661.15 621.45H648.92V591.96H661.15V591.95ZM661.15 581.87H638.84V631.53H661.15C672.44 631.53 681.59 622.38 681.59 611.09V602.31C681.59 591.02 672.44 581.87 661.15 581.87Z" fill="#48B249"/>
<path opacity="0.3" d="M618.33 642.83H608.43C602.63 642.83 597.93 638.13 597.93 632.33V586.23H600.82C604.64 586.23 607.72 589.31 607.72 593.13V632.22C607.72 638.08 612.46 642.83 618.33 642.83Z" fill="#F4C170"/>
</g>
</g>
<defs>
<filter id="filter0_d" x="724.58" y="38.0898" width="377.04" height="210.86" filterUnits="userSpaceOnUse" color-interpolation-filters="sRGB">
<feFlood flood-opacity="0" result="BackgroundImageFix"/>
<feColorMatrix in="SourceAlpha" type="matrix" values="0 0 0 0 0 0 0 0 0 0 0 0 0 0 0 0 0 0 127 0"/>
<feOffset dy="4"/>
<feGaussianBlur stdDeviation="7"/>
<feColorMatrix type="matrix" values="0 0 0 0 0 0 0 0 0 0 0 0 0 0 0 0 0 0 0.15 0"/>
<feBlend mode="normal" in2="BackgroundImageFix" result="effect1_dropShadow"/>
<feBlend mode="normal" in="SourceGraphic" in2="effect1_dropShadow" result="shape"/>
</filter>
<filter id="filter1_d" x="318.02" y="132.56" width="510.82" height="245.64" filterUnits="userSpaceOnUse" color-interpolation-filters="sRGB">
<feFlood flood-opacity="0" result="BackgroundImageFix"/>
<feColorMatrix in="SourceAlpha" type="matrix" values="0 0 0 0 0 0 0 0 0 0 0 0 0 0 0 0 0 0 127 0"/>
<feOffset dx="10" dy="10"/>
<feGaussianBlur stdDeviation="7"/>
<feColorMatrix type="matrix" values="0 0 0 0 0 0 0 0 0 0 0 0 0 0 0 0 0 0 0.15 0"/>
<feBlend mode="normal" in2="BackgroundImageFix" result="effect1_dropShadow"/>
<feBlend mode="normal" in="SourceGraphic" in2="effect1_dropShadow" result="shape"/>
</filter>
<filter id="filter2_d" x="1047.34" y="132.64" width="601.39" height="409.01" filterUnits="userSpaceOnUse" color-interpolation-filters="sRGB">
<feFlood flood-opacity="0" result="BackgroundImageFix"/>
<feColorMatrix in="SourceAlpha" type="matrix" values="0 0 0 0 0 0 0 0 0 0 0 0 0 0 0 0 0 0 127 0"/>
<feOffset dx="10" dy="10"/>
<feGaussianBlur stdDeviation="7"/>
<feColorMatrix type="matrix" values="0 0 0 0 0 0 0 0 0 0 0 0 0 0 0 0 0 0 0.15 0"/>
<feBlend mode="normal" in2="BackgroundImageFix" result="effect1_dropShadow"/>
<feBlend mode="normal" in="SourceGraphic" in2="effect1_dropShadow" result="shape"/>
</filter>
<filter id="filter3_d" x="1193.92" y="375.03" width="286.45" height="251.89" filterUnits="userSpaceOnUse" color-interpolation-filters="sRGB">
<feFlood flood-opacity="0" result="BackgroundImageFix"/>
<feColorMatrix in="SourceAlpha" type="matrix" values="0 0 0 0 0 0 0 0 0 0 0 0 0 0 0 0 0 0 127 0"/>
<feOffset dy="4"/>
<feGaussianBlur stdDeviation="7.5"/>
<feColorMatrix type="matrix" values="0 0 0 0 0 0 0 0 0 0 0 0 0 0 0 0 0 0 0.15 0"/>
<feBlend mode="normal" in2="BackgroundImageFix" result="effect1_dropShadow"/>
<feBlend mode="normal" in="SourceGraphic" in2="effect1_dropShadow" result="shape"/>
</filter>
<filter id="filter4_d" x="1550.6" y="251.525" width="141.25" height="159.229" filterUnits="userSpaceOnUse" color-interpolation-filters="sRGB">
<feFlood flood-opacity="0" result="BackgroundImageFix"/>
<feColorMatrix in="SourceAlpha" type="matrix" values="0 0 0 0 0 0 0 0 0 0 0 0 0 0 0 0 0 0 127 0"/>
<feOffset dy="4"/>
<feGaussianBlur stdDeviation="7"/>
<feColorMatrix type="matrix" values="0 0 0 0 0 0 0 0 0 0 0 0 0 0 0 0 0 0 0.15 0"/>
<feBlend mode="normal" in2="BackgroundImageFix" result="effect1_dropShadow"/>
<feBlend mode="normal" in="SourceGraphic" in2="effect1_dropShadow" result="shape"/>
</filter>
<filter id="filter5_d" x="1230.17" y="37.8301" width="200.46" height="252.374" filterUnits="userSpaceOnUse" color-interpolation-filters="sRGB">
<feFlood flood-opacity="0" result="BackgroundImageFix"/>
<feColorMatrix in="SourceAlpha" type="matrix" values="0 0 0 0 0 0 0 0 0 0 0 0 0 0 0 0 0 0 127 0"/>
<feOffset dy="4"/>
<feGaussianBlur stdDeviation="7"/>
<feColorMatrix type="matrix" values="0 0 0 0 0 0 0 0 0 0 0 0 0 0 0 0 0 0 0.14 0"/>
<feBlend mode="normal" in2="BackgroundImageFix" result="effect1_dropShadow"/>
<feBlend mode="normal" in="SourceGraphic" in2="effect1_dropShadow" result="shape"/>
</filter>
<filter id="filter6_d" x="883.34" y="445.029" width="143.72" height="143.72" filterUnits="userSpaceOnUse" color-interpolation-filters="sRGB">
<feFlood flood-opacity="0" result="BackgroundImageFix"/>
<feColorMatrix in="SourceAlpha" type="matrix" values="0 0 0 0 0 0 0 0 0 0 0 0 0 0 0 0 0 0 127 0"/>
<feOffset dy="4"/>
<feGaussianBlur stdDeviation="7.5"/>
<feColorMatrix type="matrix" values="0 0 0 0 0 0 0 0 0 0 0 0 0 0 0 0 0 0 0.15 0"/>
<feBlend mode="normal" in2="BackgroundImageFix" result="effect1_dropShadow"/>
<feBlend mode="normal" in="SourceGraphic" in2="effect1_dropShadow" result="shape"/>
</filter>
<filter id="filter7_d" x="953.42" y="421.26" width="107.22" height="107.22" filterUnits="userSpaceOnUse" color-interpolation-filters="sRGB">
<feFlood flood-opacity="0" result="BackgroundImageFix"/>
<feColorMatrix in="SourceAlpha" type="matrix" values="0 0 0 0 0 0 0 0 0 0 0 0 0 0 0 0 0 0 127 0"/>
<feOffset dy="4"/>
<feGaussianBlur stdDeviation="6"/>
<feColorMatrix type="matrix" values="0 0 0 0 0 0 0 0 0 0 0 0 0 0 0 0 0 0 0.15 0"/>
<feBlend mode="normal" in2="BackgroundImageFix" result="effect1_dropShadow"/>
<feBlend mode="normal" in="SourceGraphic" in2="effect1_dropShadow" result="shape"/>
</filter>
<linearGradient id="paint0_linear" x1="738.583" y1="139.522" x2="1082.16" y2="139.522" gradientUnits="userSpaceOnUse">
<stop offset="0.1004" stop-color="#C0CDD3"/>
<stop offset="1" stop-color="white"/>
</linearGradient>
<linearGradient id="paint1_linear" x1="345.747" y1="515.338" x2="345.747" y2="442.566" gradientUnits="userSpaceOnUse">
<stop stop-color="#A9AAAB"/>
<stop offset="0.5689" stop-color="#838587"/>
</linearGradient>
<linearGradient id="paint2_linear" x1="598.589" y1="516.93" x2="598.589" y2="457.781" gradientUnits="userSpaceOnUse">
<stop stop-color="#A9AAAB"/>
<stop offset="0.5689" stop-color="#838587"/>
</linearGradient>
<linearGradient id="paint3_linear" x1="724.659" y1="516.93" x2="724.659" y2="457.781" gradientUnits="userSpaceOnUse">
<stop stop-color="#A9AAAB"/>
<stop offset="0.3553" stop-color="#838587"/>
</linearGradient>
<linearGradient id="paint4_linear" x1="1337.14" y1="592.687" x2="1337.14" y2="457.252" gradientUnits="userSpaceOnUse">
<stop offset="0.4577" stop-color="#7C8083"/>
<stop offset="1" stop-color="#676767"/>
</linearGradient>
<linearGradient id="paint5_linear" x1="1284.51" y1="592.687" x2="1284.51" y2="457.252" gradientUnits="userSpaceOnUse">
<stop offset="0.9127" stop-color="#D1D4D3"/>
<stop offset="1" stop-color="#C2C1C2"/>
</linearGradient>
<linearGradient id="paint6_linear" x1="1284.51" y1="461.223" x2="1284.51" y2="457.252" gradientUnits="userSpaceOnUse">
<stop stop-opacity="0"/>
<stop offset="1" stop-color="#221F1F"/>
</linearGradient>
<linearGradient id="paint7_linear" x1="1243.72" y1="461.223" x2="1243.72" y2="457.252" gradientUnits="userSpaceOnUse">
<stop stop-opacity="0"/>
<stop offset="1" stop-color="#221F1F"/>
</linearGradient>
<linearGradient id="paint8_linear" x1="1430.56" y1="461.223" x2="1430.56" y2="457.252" gradientUnits="userSpaceOnUse">
<stop stop-opacity="0"/>
<stop offset="1" stop-color="#221F1F"/>
</linearGradient>
<linearGradient id="paint9_linear" x1="1389.77" y1="461.223" x2="1389.77" y2="457.252" gradientUnits="userSpaceOnUse">
<stop stop-opacity="0"/>
<stop offset="1" stop-color="#221F1F"/>
</linearGradient>
<linearGradient id="paint10_linear" x1="1397.23" y1="170.404" x2="1416.63" y2="170.404" gradientUnits="userSpaceOnUse">
<stop stop-color="#45494B"/>
<stop offset="1" stop-color="#62676B"/>
</linearGradient>
<linearGradient id="paint11_linear" x1="1244.17" y1="169.173" x2="1275.59" y2="169.173" gradientUnits="userSpaceOnUse">
<stop offset="0.2417" stop-color="#62676B"/>
<stop offset="0.9574" stop-color="#45494B"/>
</linearGradient>
<linearGradient id="paint12_linear" x1="1337.1" y1="272.921" x2="1333.64" y2="253.281" gradientUnits="userSpaceOnUse">
<stop stop-color="#7C8083"/>
<stop offset="1" stop-color="#45494B"/>
</linearGradient>
<clipPath id="clip0">
<rect width="1780" height="660" fill="white"/>
</clipPath>
<clipPath id="clip1">
<rect width="2324.64" height="1388.87" fill="white" transform="translate(-193 -367)"/>
</clipPath>
</defs>
</svg>
