<svg width="1919" height="1196" xmlns="http://www.w3.org/2000/svg"><g fill="none" fill-rule="evenodd"><path d="M717.606 692.307s7.967 32.465-17.129 90.622c-25.095 58.158-57.56 136.83-55.37 158.34l2.192 21.71-45.013-13.145s-68.315-33.062-57.56-93.41c10.954-60.35 96-188.017 172.88-164.117z" fill="#001E3E"/><path d="M717.606 692.307c-76.88-23.9-161.926 103.768-172.68 164.116-10.756 60.349 57.56 93.411 57.56 93.411l45.012 13.145-2.19-21.71c-2.192-21.709 30.273-100.381 55.368-158.34 24.897-58.157 16.93-90.622 16.93-90.622zM616.427 899.046c-4.58 32.464-8.564 51.784-8.564 51.784l-39.037-92.415s-5.577-36.448-3.585-38.44c1.991-1.992 61.145-58.357 102.174-33.261.2 0-46.407 79.668-50.988 112.332z"/><path d="M565.24 819.975c-1.991 1.992 3.586 38.44 3.586 38.44l39.037 92.415s3.983-19.32 8.564-51.784c4.581-32.465 51.187-112.133 51.187-112.133-41.228-25.295-100.382 31.07-102.373 33.062h-.001z" fill="#000"/><path d="M609.257 941.469s5.975 51.187 11.95 81.062c5.976 29.876 31.27 73.892 31.27 73.892l-66.722-3.186s-3.386-38.44-3.386-53.378c0-14.938-4.979-75.486 26.888-98.39z" fill="#838A96"/><g transform="translate(383 .043)"><path fill="#BEC6D3" d="M845.184 153.181L582.902 11.471l-261.884 141.71-1.979-3.563L582.902 6.72l.79.791 263.075 142.106z"/><path d="M1086.499 1094.086H62.69a43.378 43.378 0 0 1-30.806-12.718 43.43 43.43 0 0 1-12.708-30.825v-861.34c0-24.147 19.384-43.542 43.514-43.542h1023.811c24.13 0 43.514 19.397 43.514 43.545v861.736c0 23.75-19.383 43.148-43.514 43.148l-.002-.004z" fill="#CED3DE"/><path d="M137.46 256.099H457.5v28.104H137.46v-28.104zm-33.627 89.855h320.04v28.105h-320.04v-28.105zm186.775 105.7H141.075v-28.106H290.61l-.002 28.106zm.354 89.625H104.24v-28.104h186.722v28.104z" fill="#FFF" fill-rule="nonzero"/><ellipse fill="#FFF" cx="321.413" cy="874.397" rx="80.307" ry="80.356"/><ellipse fill="#FFF" cx="593.584" cy="874.397" rx="80.307" ry="80.356"/><ellipse fill="#FFF" cx="866.151" cy="874.397" rx="80.307" ry="80.356"/><path d="M.583 133.389h1151.19v48.292H.583V133.39zm0 923.488h1151.19v48.293H.583v-48.293z" fill="#BEC6D3" fill-rule="nonzero"/><ellipse fill="#BEC6D3" cx="584.09" cy="10.678" rx="9.889" ry="9.895"/></g><path d="M811 525.25v-64.495a10.636 10.636 0 0 1 10.686-10.684h114l-49.478 85.863h-64.126c-6.332 0-11.082-4.748-11.082-10.684zm81.146 132.159l-36.417 24.533c-4.75 3.164-8.314 1.186-7.52-4.748l4.75-41.943c.79-5.936 5.54-8.31 10.686-5.145l28.104 16.223c5.147 2.376 5.147 7.52.397 11.08zm8.707-23.741l-28.102-16.223c-5.147-2.77-7.127-9.496-3.959-14.642L999.02 377.266c2.773-5.145 9.5-7.122 14.648-3.957l28.102 16.223c5.147 2.77 6.731 9.496 3.96 14.641L915.5 630.108c-2.772 4.748-9.5 6.33-14.647 3.56zm98.96-97.734l49.478-85.863h28.5l40.376 85.863H999.812zm161.499 25.72c-11.084-5.54-67.292-134.533-81.542-168.165-14.25-33.634-57.792-123.057-43.938-130.18 9.898-5.145 45.917 65.288 72.835 107.626 26.916 42.337 83.124 151.15 89.853 163.813 6.73 12.266-6.73 22.948-14.25 26.115-7.125 3.56-11.48 6.33-22.958.79zm37.208 59.353l-17.02-26.512c-3.564-5.539-1.584-12.266 3.959-15.43l16.229-8.31c5.54-2.77 12.666-.398 15.832 5.145l13.458 25.717c3.168 5.936.793 13.059-4.352 16.619l-11.481 6.726c-5.937 3.167-13.457 1.584-16.625-3.955zm62.146 70.036c-3.563-11.475-30.479-11.87-42.749-28.886-12.272-17.014-1.98-25.72 1.978-29.675 49.48-27.698 40.771 58.56 40.771 58.56zM1286 525.25a10.636 10.636 0 0 1-10.688 10.684h-57c-.792-3.164-1.583-6.726-3.563-9.893-1.582-2.768-5.145-9.89-10.29-19.783-7.521-14.245-18.21-34.82-30.084-56.582h100.935a10.645 10.645 0 0 1 10.688 10.684v64.89h.002z" fill="#FFF" fill-rule="nonzero"/><path d="M1364.112 936.49h351.734c30.872 0 55.768 24.896 55.768 55.767v167.303h-463.27V992.257c0-30.672 25.096-55.767 55.768-55.767z" fill="#ED3868" fill-rule="nonzero"/><path d="M1740.942 936.49h-376.83c-30.871 0-55.768 24.896-55.768 55.767v167.303h488.366V992.257c0-30.672-24.897-55.767-55.768-55.767zM1775 1093.436c-7.967 16.53-65.328 25.693-65.328 25.693s-306.523 5.776-318.473 1.792c-11.95-3.983 22.307-40.63 22.706-89.826.597-60.348 21.112-62.539 21.112-62.539 53.975-38.639 288.995-.597 324.846 13.743 35.652 13.742 23.104 94.606 15.137 111.137z"/><path d="M1759.664 981.9c-35.85-14.14-270.672-52.381-324.847-13.742 0 0-20.514 2.19-21.112 62.54-.398 49.393-34.655 85.841-22.705 89.825 11.95 3.983 318.473-1.793 318.473-1.793s57.361-9.162 65.328-25.693c8.166-16.132 20.714-96.996-15.137-111.137z" fill="#000" opacity=".1"/><path d="M1743.73 981.303s-18.124-19.718-28.88-57.56c-10.555-37.843-39.435-69.71-69.709-86.44-30.274-16.73-110.739-25.693-110.739-25.693-39.435-25.693-119.9-19.718-119.9-19.718s-51.784 44.614-72.896 56.166c-53.179 28.88-70.108 104.963-51.984 109.544 13.146 3.186 92.814-13.942 127.868-1.195 13.543 4.979 5.377 59.95 5.377 59.95l2.191 100.58s163.718 11.752 177.46-.398l.797-.796c16.531.796 49.793 1.394 71.9-5.179 30.275-9.162 92.615-7.568 95.602-28.88 2.988-21.31-27.087-100.381-27.087-100.381z" fill="#001E3E"/><path d="M1534.402 811.41s80.465 9.163 110.74 25.694c30.273 16.73 59.153 48.597 69.709 86.44 10.556 37.842 28.88 57.56 28.88 57.56s30.273 78.871 27.286 100.182c-2.988 21.312-65.129 19.718-95.602 28.88-30.473 9.162-59.154-5.975-72.896 5.975-13.743 11.95-177.46.398-177.46.398l-2.192-100.58s8.365-54.971-5.377-59.95c-35.054-12.748-114.722 4.381-127.868 1.194-18.124-4.58-1.195-80.863 51.984-109.543 21.112-11.353 72.896-56.166 72.896-56.166s80.465-5.776 119.9 19.917v-.001z" fill="#001E3E"/><path d="M1418.286 817.585s-5.377 56.963-21.908 91.02c-16.73 34.059-63.735 39.436-78.075 40.233-14.34.797-30.274-3.784-28.88-12.15 1.594-8.364 32.664.797 44.814-14.34 12.149-15.136 33.46-61.344 45.41-61.344 11.95 0 15.934-15.933 18.125-25.693 2.19-9.958 31.07-28.083 31.07-28.083l-10.556 10.357z" fill="#FFF" opacity=".1"/><path d="M1584.394 1090.448s28.083-19.718 37.843-25.095c9.759-5.378 14.34-14.34 25.692-14.34 11.353 0 20.515-1.594 24.3-2.988 3.783-1.593-16.731 2.987-18.922-3.784-2.19-6.772 15.934-6.772 9.959-14.34-5.976-7.57-31.071-28.084-31.868-39.436-.796-11.353-3.784 21.908 5.378 28.88 9.162 6.771 21.311 17.526 12.946 22.705-8.365 5.178-28.88 22.705-65.328 48.398z" fill="#01172B"/><path d="M1392.793 730.946s-2.191 34.058-2.191 36.448c0 2.39 5.776 7.37 6.174 17.129.597 9.76 9.162 41.029 26.091 62.54 17.129 21.709 15.336 27.286 31.867 23.9 16.532-3.386 22.706-4.581 22.706-4.581s6.174 7.967 10.158 15.336c3.983 7.37 7.369 15.336 7.369 15.336s21.112-13.145 29.079-25.693c7.966-12.548 26.09-36.448 28.481-45.41 2.19-9.163-25.693-32.466-25.693-32.466l7.967-50.589s-19.917-29.676-60.946-38.041c-40.63-8.565-73.693 1.792-81.062 26.091z" fill="#8C93A2"/><path d="M1390.004 748.075s-14.14-3.984-25.095-14.739c-10.755-10.755-2.191-46.606 5.178-55.768 7.37-9.161 9.76-11.95 9.76-11.95s3.385 7.967 21.709 14.141c18.124 6.175 48.996-26.091 73.295-22.108 24.498 3.984 36.448 20.515 36.448 20.515s26.689 5.776 34.058 17.726c7.37 11.95 17.128 51.784 9.162 68.913-7.967 17.129-19.917 38.639-19.917 38.639s-13.743-9.76-11.353-22.108c2.19-12.548 9.76-17.726 4.58-29.676-5.178-11.95-16.53-11.95-18.124-7.37-1.792 4.581 0 17.13.598 20.515.597 3.386-6.772 5.776-6.772 3.983 0-1.792-11.95-14.14-12.548-25.693-.597-11.352-7.369-26.09-7.369-26.09s-13.145-7.968-31.867 2.788c-19.12 10.755-28.88 32.863-61.743 28.282z" fill="#001E3E"/><path d="M1318.303 983.892s2.19-23.502 16.73-29.278c14.34-5.776 58.357-10.158 73.892-2.59 15.536 7.57 15.336 14.54 13.743 22.507-1.394 8.166-100.98 21.112-104.365 9.361zm-67.12 78.473h-395.95l-42.026-328.83c-4.979-39.635 25.693-74.888 65.727-75.087l335.203-2.19c39.236-.2 70.307 33.46 66.722 72.696l-29.676 333.411z" fill="#ED3868" fill-rule="nonzero"/><path d="M832.129 920.755s40.033-75.485 85.444-108.548c45.41-33.062 85.244-41.427 110.937-39.834 25.693 1.793 75.088-6.174 104.565-1.792 29.676 4.58 80.863 27.884 91.618 45.012 10.755 17.129 78.473 101.776 69.311 122.29-9.162 20.515-9.162 28.482-.597 30.673 8.564 2.19 25.095 13.743 33.46 19.917 8.565 6.174 6.772 17.726 10.158 26.689 3.386 8.962 19.32 44.415 17.726 50.589-1.792 6.174-9.76 27.884-40.431 37.046-30.673 9.162-87.635 7.369-87.635 7.369l-353.129-1.793s-77.278 1.195-101.178-7.966c-23.9-9.162-25.693-8.565-25.693-8.565s-1.793-17.128 12.547-34.655c14.141-17.726 2.789-24.498 8.565-29.08 5.776-4.58 6.771-6.173 13.145-11.95 6.174-5.775 3.983-12.547 7.967-21.111 3.983-8.565 2.788-9.162 9.162-11.95 6.174-2.789 11.352-9.162 11.352-9.162l22.706-53.179z" fill="#423454"/><path d="M1345.19 1078.299c12.15-16.73-21.31-35.652-35.65-44.814-14.34-9.161-4.581-11.352 2.987-22.705 7.568-11.353-22.705-7.568-41.627-17.527-18.92-9.958 9.162-55.37 3.785-78.871-5.378-23.502-41.627-64.531-73.494-79.668-31.867-15.137-54.573-18.921-39.436-33.46 5.975-5.578 8.365-12.947 9.162-19.719-13.344-5.377-26.888-9.56-37.643-11.153-29.676-4.581-79.07 3.386-104.564 1.792-25.494-1.593-65.328 6.772-110.938 39.834-45.411 33.063-85.444 108.548-85.444 108.548l-22.706 53.776s-5.178 6.174-11.352 9.162c-6.175 2.788-5.179 3.386-9.162 11.95-3.984 8.564-1.793 15.336-7.967 21.112-6.174 5.776-7.37 7.37-13.145 11.95-5.776 4.581 5.776 11.353-8.564 29.08-14.142 17.725-12.548 34.655-12.548 34.655s1.792-.598 25.693 8.564c23.9 9.162 101.178 7.967 101.178 7.967l353.129 1.792s56.962 1.793 87.635-7.369c9.36-2.788 16.53-6.772 22.108-10.954 2.19-4.382 4.979-8.963 8.564-13.942h-.001z"/><path d="M1200.992 834.913c31.867 15.137 68.315 56.166 73.493 79.668 5.179 23.502-22.705 69.112-3.784 78.871 18.921 9.959 49.394 5.975 41.627 17.527-7.569 11.353-17.527 13.743-2.988 22.706 14.34 9.161 47.801 28.083 35.652 44.813a89.867 89.867 0 0 0-8.365 13.543c12.746-9.759 17.128-21.709 18.323-26.09 1.793-6.175-14.14-41.428-17.726-50.59-3.585-9.162-1.792-20.515-10.158-26.689-8.564-6.174-25.095-17.726-33.46-19.917-8.365-2.19-8.565-10.157.597-30.672 9.162-20.515-58.556-105.162-69.31-122.29-6.972-10.955-30.275-24.3-53.976-33.86-.797 6.772-3.187 14.142-9.162 19.718-15.336 14.34 7.37 18.125 39.237 33.262z" fill="#FFF" opacity=".1"/><path d="M1005.008 780.34s-2.987 12.946 1.195 21.909c4.183 9.162 31.47 20.913 44.415 24.697 12.946 3.784 33.063-7.17 41.428-11.751 8.365-4.58 18.124-15.934 15.137-27.685-3.187-11.75-95.801-14.738-102.175-7.17z" fill="#8C93A2"/><path d="M1018.552 631.361s-30.473 14.141-35.054 27.884c-4.581 13.743-4.581 29.676-4.581 29.676s-9.162-2.19-9.162 2.191c0 4.58 0 18.125 6.772 27.286 6.772 9.162 13.743 9.162 13.743 15.934 0 6.772 21.908 72.498 63.336 71.701 52.78-.996 54.97-67.12 57.162-71.701 2.19-4.581 0-20.515 0-20.515s1.792 4.581 8.564-11.352c6.772-15.934-2.59-32.067-4.78-32.067-2.191 0-11.353 6.374-11.353 6.374s3.187-17.527.797-24.299c-1.992-6.772-46.805-34.656-85.444-21.112z" fill="#8C93A2"/><path d="M978.12 688.124s7.569-3.784 9.959 16.93c.398 2.788 3.386-3.585 3.386-2.59 0 2.79-3.984-43.817.597-50.588 4.581-6.772 21.112-14.142 21.112-14.142s26.69-8.564 46.606-4.58c19.917 3.983 34.656 6.174 37.046 18.722 2.19 12.547 4.58 20.514 3.983 34.655-.597 14.141 5.179 11.95 5.179 11.95s-2.191-17.726-.598-19.917c1.793-2.19 6.174-6.174 6.174-6.174s10.158-39.236 7.37-46.606c-2.789-7.37-16.532-18.124-16.532-18.124l-10.157.597s-2.191-17.128-6.772-22.705c-4.58-5.776-39.236-7.967-64.93-3.984-25.692 3.984-35.253 17.727-42.024 17.727-4.78 0-5.577 12.946-1.992 31.07 1.593 7.967-.598 19.718-.398 24.299.398 14.54 3.983 15.934 1.991 33.46z" fill="#001E3E"/><path d="M984.295 737.12c1.195-5.377 5.178-12.348 4.979-17.925-.598-9.958-4.183-21.909 2.788-19.12 3.984 1.593 6.374 28.481 12.548 38.838 11.153 18.921 27.685 26.091 41.427 26.689 21.312 1.195 32.664-.399 42.424-11.353 9.759-10.954 9.958-53.776 15.336-56.564 5.377-2.59 10.357 26.688 10.755 35.85.398 9.162 1.992 44.216-4.183 56.365-6.174 12.15-33.66 22.307-48.597 26.49-14.739 4.183-48.2-7.967-59.552-29.676-10.158-18.921-21.51-33.262-17.925-49.594z" fill="#001E3E"/><path d="M1079.697 737.32c-7.37-1.992-13.344-4.78-17.527-7.17-1.792-.996-3.784-.996-5.577.199-2.39 1.394-4.979 1.394-7.568.199-1.593-.797-3.187-.797-4.98.199-4.182 2.39-10.157 5.178-17.526 7.17-15.735 4.382-23.303 11.95-23.303 11.95s6.373 10.955 20.913 6.573c7.966-2.39 16.73.199 22.904-9.162 2.789-3.983 8.764-4.183 11.751-.398 4.382 5.178 12.15 9.958 24.697 7.966 14.938-2.39 19.32-5.178 19.32-5.178s-7.37-7.967-23.104-12.348z" fill="#001E3E"/><path d="M1457.921 1018.548s3.386 4.58 3.784 7.967c.2 3.385-1.195 9.759-1.195 9.759l1.195-.2s.598-1.991.598-3.186c0-1.195.797-7.37.2-8.963-.598-1.593-2.391-4.78-2.59-5.377-.2-.598.199-2.39.199-2.39s-1.792-.598-1.992 0c0 .796-1.593.996-.199 2.39z" fill="#79747F"/><path d="M1495.763 1036.075s-11.352-3.785-19.717-1.992c-8.366 1.992-17.726.398-21.71-.797-3.983-1.195-12.348-2.987-21.112 3.386-8.763 6.374-23.104 28.083-9.56 53.975 13.543 25.892 34.855 23.502 39.436 23.702 4.58.199 14.937.398 20.912-2.39 5.976-2.789 15.735-11.752 18.125-14.34 2.39-2.59 2.788-7.17 2.788-7.17s-1.991-1.594-3.186-3.984c-1.195-2.39-1.793-.996-5.179-2.789-3.187-1.792-5.776-8.166-5.178-10.157.597-1.992.199-5.776-1.195-8.166-1.394-2.39-1.793-3.785-.2-6.573 1.395-2.788 4.78-3.386 4.183-6.373-.597-2.988-3.585-3.187-.797-6.772 2.988-3.585 5.776-8.166 2.39-9.56z" fill="#94D16B"/><path d="M1501.739 1086.465c-1.195-2.59-1.793-.996-5.179-2.789-3.187-1.792-5.776-8.166-5.178-10.157.597-1.992.199-5.776-1.195-8.166-1.394-2.39-1.793-3.785-.2-6.573 1.395-2.788 4.78-3.386 4.183-6.373-.597-2.988-3.585-3.187-.797-6.772 2.789-3.585 5.577-8.365 2.191-9.76 0 0-11.352-3.784-19.718-1.991-8.365 1.992-17.726.398-21.71-.797-.198 0-.597-.199-.796-.199-5.776 3.386-17.128 11.153-20.713 22.307-4.78 15.336-3.785 34.058 4.78 36.448 8.564 2.191 24.1 14.141 31.867 10.556 6.772-3.187 30.473-10.954 31.668-3.585l.996-.996c2.39-2.589 2.788-7.17 2.788-7.17s-1.792-1.394-2.987-3.983z"/><path d="M1469.274 1102.398c-7.768 3.785-23.303-8.166-31.867-10.556-8.565-2.19-9.76-21.112-4.78-36.448 3.585-11.153 14.937-18.921 20.713-22.307-4.182-1.195-12.15-2.39-20.116 3.585-8.763 6.374-23.104 28.083-9.56 53.975 13.743 25.892 34.855 23.502 39.436 23.702 4.58.199 14.937.398 20.912-2.39 5.179-2.59 13.544-9.959 17.13-13.345-1.196-7.17-24.897.598-31.868 3.784z" fill="#000" opacity=".05"/><path d="M1494.568 1031.295l.2 6.97s-5.378-.398-5.776 3.586c-.399 3.983-.2 4.182-2.59 6.373-2.19 2.19-4.78 5.178-4.78 5.178l1.195 3.187 2.191 2.789-1.394 1.792-2.39 3.386-.597 3.784s-.797 3.585.398 4.78c1.195 1.195 1.992 2.789 1.992 3.187 0 .398-2.39 4.581-2.39 4.581l2.788.996 4.58 3.386.2 3.186 1.593 1.793s2.191 1.195 2.789 1.195c.597 0 1.792.2 2.19.398.598.2 4.183 1.195 3.984 1.992-.2.797-.398 1.195.2 1.195.796 0 6.771-1.195 7.17-.2.199.997 12.746-7.767 12.746-7.767s-11.95-67.917-24.299-55.767z" fill="#FFE675"/><path d="M1584.793 1087.66s-42.225-1.195-52.382.996c-9.959 1.991-39.635 15.535-51.784 18.323-12.15 2.789 3.186 13.942 22.506 16.531 19.518 2.789 39.635 4.581 51.585 2.988 11.95-1.593 20.514-13.344 35.452-13.942 14.938-.597 32.067-.2 32.067-.2s9.56-17.924 1.593-29.277c-10.954-15.735-13.942-8.365-39.037 4.58v.001z" fill="#8C93A2"/><path d="M1436.212 1115.344h-81.86c-2.39 0-4.381-1.991-4.381-4.381s1.992-4.382 4.382-4.382h81.859c2.39 0 4.381 1.992 4.381 4.382-.199 2.39-1.991 4.381-4.381 4.381z" fill="#000"/><path d="M1518.07 754.647s-3.983.598-4.381 4.183c-.399 3.784.996 5.975 3.386 9.56 2.39 3.585 5.776 14.54 5.377 15.934-.398 1.394 2.988.996 3.187.398.2-.398-.398-10.556 0-13.344.398-2.789.797-17.328-7.568-16.73l-.001-.001z" fill="#EBECED"/><path d="M1519.266 754.05s-3.984.597-4.382 4.182c-.399 3.585.398 5.975 2.987 9.56 2.39 3.586 6.374 14.54 5.975 15.934-.199.797.399 1.394 1.395 1.394.796 0 1.792-.796 1.991-.996.2-.398-.398-10.556 0-13.344.2-2.788.399-17.328-7.966-16.73z" fill="#FFF"/><path d="M1579.017 1083.876s14.14-1.793 15.137 2.788c.995 4.58 4.58 6.772 2.19 14.141-2.39 7.37.996 12.15 5.976 12.15 4.979 0 11.153 1.194 15.535-1.594 4.382-2.788 6.97-2.19 7.17-6.971.2-4.78 4.182-12.946 2.19-17.527-1.99-4.58-26.887-19.917-48.198-2.987z" fill="#01172B" opacity=".1"/><path d="M1592.162 1086.664c1.394-.996 3.983-4.382 5.577-4.183 1.991.399 2.39 4.98 2.788 7.17.398 2.191.797 4.78.797 7.569.199 9.56.199 9.76.796 10.954.598 1.195 2.789 5.179 11.751 3.785 8.166-1.395 8.963-.797 9.56-16.532.2-7.568-.995-11.75-1.991-15.336-.2-.796.398-2.788.199-3.386-.797-2.39-1.992-3.784-3.187-4.381-2.987-1.395-26.29-1.395-29.079.796-2.788 2.191-6.572 7.17-6.572 9.162 0 1.195-.598 3.386-1.195 4.581-.2.598.199 1.394.996 1.394 2.589-.199 7.767-.199 9.56-1.593z" fill="#FFF"/><path d="M1582.602 1089.85s1.593-7.568 4.979-9.36c3.386-1.793 7.768-1.594 9.162-.399 1.394 1.195 3.983 2.39 1.991 5.776-2.39 3.386-16.132 7.967-16.132 3.984v-.001z" fill="#79747F" opacity=".3"/><path d="M554.286 833.519s39.237 15.336 50.39 37.643c7.17 14.34 7.37 49.195 12.349 68.315 2.987 11.353 9.36 47.403 11.75 81.46l-.597 15.138c-35.452-1.395-45.41 21.31-44.016 30.473l20.913 30.473-54.374-.598s-38.24-13.743-39.037-17.128c-.797-3.386-62.34-169.295-62.34-169.295l104.962-76.481z" fill="#FFF"/><path d="M547.515 783.925s-12.747 27.287-32.465 31.668c-19.718 4.183-35.85 6.772-35.85 6.772s13.742 34.257 35.85 47.004c22.307 12.747 35.054 23.9 44.415 20.515 9.36-3.386 5.178-13.743 9.36-31.668 4.183-17.926 10.358-26.49 10.358-26.49s21.31 10.357 29.078 16.332c7.768 5.975 15.337 3.386 20.515-.797 5.178-4.182 6.97-6.771 18.324-11.153 7.17-2.788 24.1-18.324 30.074-28.68 5.975-10.357 11.751-33.461 19.12-38.64 11.353-7.966 15.337-40.232 19.718-58.954 4.382-18.722-97.394-105.958-155.551-35.85-58.357 69.908-22.307 93.809-12.946 109.941z" fill="#8C93A2"/><path d="M709.041 667.81s-60.149 6.572-72.298 22.705c-12.15 16.132-38.838 50.39-38.838 50.39l30.074 10.157s21.112-19.917 33.062-32.664-24.697 32.465-24.697 32.465l13.743 1.793s18.722-35.851 35.85-42.822c17.13-6.772 33.262-6.772 33.262-6.772s1.793-31.867-10.158-35.253v.001z" fill="#001E3E"/><path d="M711.432 670s-32.465-64.93-63.337-66.722c-30.87-1.793-78.672-.598-117.908 35.253-39.237 35.85-84.448 177.859-101.378 182.042-16.93 4.182-69.311 63.535-69.311 63.535l12.747 12.747s51.386-48.797 78.672-43.618c27.286 5.178 53.776 38.44 58.954 46.207 5.179 7.768 14.54 41.826 14.54 41.826s5.178-2.59 23.104 0c17.925 2.589 17.925-2.59 17.925-2.59s-5.975-66.721.797-114.522c6.771-47.801 38.44-88.83 53.775-101.776 15.536-12.747 90.424-47.204 91.42-52.382z" fill="#001E3E"/><path d="M454.303 849.054s-52.98 1.792-86.44 35.85c-19.12 19.718-19.12 63.137-27.286 100.382-8.166 36.847-15.137 79.868 6.572 110.739 5.179 7.37 10.357 13.145 15.336 15.734 19.718 10.357 94.407 7.37 94.407 7.37s44.216 6.174 46.606-18.722c2.59-24.697-1.195-89.229-1.195-89.229s-28.481-26.29-6.174-20.315l22.307 5.975s-3.386-29.875 2.589-51.386c5.975-21.51-31.668-96.398-66.722-96.398z" fill="#FFF"/><path d="M524.212 989.27s23.502 58.755 30.473 73.693c6.97 14.937 13.942 24.498 13.942 24.498s18.124-7.37 41.427-7.17c24.896.398 56.963 3.983 134.041 8.564 16.73.996 61.743-5.975 81.66-1.992 19.917 3.983 62.739 25.892 59.751 28.88-2.987 2.987-95.601 4.979-121.494 1.991l-25.892-2.987-201.161 5.975-43.818-2.988s-51.983-78.273-57.36-99.585c-2.192-8.564 13.343-15.535 34.057-24.896 12.946-5.975 33.062-10.556 54.374-3.983z" fill="#8C93A2"/><path d="M400.925 989.867s15.934 20.913 25.295 28.282c9.36 7.37 8.365 13.544 8.365 13.544l43.22 53.178 11.353 31.868-21.312 7.369s-63.933 36.846-51.784 2.59c21.71-61.146-15.137-136.831-15.137-136.831z" fill="#8C93A2" opacity=".5"/><path d="M273.058 708.24c32.266 22.706 98.788 178.855 119.303 242.789 20.315 63.934 131.452 194.39 37.444 189.212-94.008-5.179-135.436-174.673-135.436-174.673l-95.402-200.166-27.685-79.07c.2 0 36.847-23.502 101.776 21.909v-.001z" fill="#ED3868"/><path d="M144.793 703.062c1.195-2.788 11.551-12.547 26.688-16.73 19.519-5.577 47.403-2.19 73.892 36.647 47.204 68.714 86.241 215.502 108.947 292.183 22.904 76.481 90.423 110.34 81.46 126.672-8.963 16.332-130.855 19.917-162.324 19.917-31.468 0-69.31-83.85-80.066-142.407-10.755-58.556-71.502-262.307-48.597-316.282z" fill="#D13C6B"/><path d="M354.32 1015.162c-22.905-76.482-61.743-223.27-108.947-292.183-11.352-16.332-22.705-26.49-33.66-32.265 14.938 103.369 14.54 240 19.32 290.19 9.56 99.586 50.789 155.752 74.091 180.05 48-1.593 123.685-6.572 130.855-19.32 8.764-16.331-58.755-49.99-81.66-126.472h.001z"/><path d="M211.714 690.714c-14.938-7.768-29.08-7.569-40.233-4.382-15.137 4.382-25.294 13.942-26.688 16.73-22.905 53.975 37.643 257.527 48.398 316.083 10.755 58.556 48.597 142.407 80.066 142.407 6.971 0 18.125-.2 31.47-.598-23.304-24.498-64.532-80.664-74.092-180.05-4.382-50.19-3.984-186.821-18.921-290.19z" fill="#423454" opacity=".1"/><path d="M648.095 603.278c-16.53-.996-38.041-.996-60.547 4.78-17.129 11.154-38.042 27.685-49.992 48.598-22.506 39.236-45.212 140.016-43.817 149.975 1.394 9.958-.598 35.253-.598 35.253s-34.456-4.382-46.407 10.954c1.594 0 2.988 0 4.382.399 27.286 5.178 53.776 38.44 58.955 46.207 5.178 7.768 14.539 41.826 14.539 41.826s5.178-2.59 23.104 0c17.925 2.589 17.925-2.59 17.925-2.59s-5.975-66.721.797-114.522c6.771-47.801 38.44-88.83 53.776-101.776 15.336-12.747 90.423-47.403 91.22-52.382 0 0-32.664-64.93-63.337-66.722z"/><path d="M492.942 841.884s1.992-25.295.597-35.253c-1.394-9.959 21.312-110.938 43.818-149.975 11.95-20.913 33.062-37.444 49.992-48.598-19.32 4.98-39.237 14.141-57.361 30.672-39.237 35.85-84.449 177.86-101.378 182.042-16.93 4.182-69.112 63.336-69.112 63.336l12.747 12.747s46.207-43.818 74.29-44.017c11.95-15.336 46.407-10.954 46.407-10.954z" fill="#000" opacity=".2"/><path d="M456.295 783.527s-7.967 19.519 42.622 46.606c50.59 27.087 73.095 35.85 73.095 35.85l-12.946 20.913s-31.27-14.54-48.199-22.307c-16.93-7.767-63.734-36.448-70.108-42.224-6.373-5.776-13.543-17.726-13.543-17.726s8.564-27.286 29.079-21.112z" fill="#8C93A2"/><path d="M452.112 783.527s-7.967 19.519 42.622 46.606c50.59 27.087 73.096 35.85 73.096 35.85l-12.946 20.913s-31.27-14.54-48.2-22.307c-16.929-7.767-63.734-36.448-70.107-42.224-3.386-2.987-6.971-7.767-9.56-11.75-2.789-3.984-2.988-9.163-.797-13.345 4.182-7.569 12.348-17.926 25.892-13.743z" fill="#FFF"/><path d="M591.133 883.311c-3.784 16.93-20.714 27.685-37.643 23.701l-11.353-2.589c-16.93-3.784-27.685-20.713-23.701-37.643 3.784-16.93 20.713-27.685 37.643-23.701l11.353 2.589c16.929 3.784 27.485 20.714 23.7 37.643h.001z" fill="#8C93A2"/><path d="M574.402 882.116l-.995 1.992c-5.776 11.95-20.316 17.129-32.266 11.353l-7.967-3.785c-11.95-5.776-17.128-20.315-11.352-32.265l.995-1.992c5.776-11.95 20.316-17.129 32.266-11.353l7.967 3.785c12.15 5.776 17.128 20.315 11.352 32.265z" fill="#A6AEBC"/><path d="M557.473 866.382l-6.97 14.34c-3.785 7.768-12.947 10.954-20.515 7.17-7.768-3.784-10.955-12.946-7.17-20.514l6.97-14.34c3.785-7.768 12.946-10.955 20.515-7.17 7.568 3.584 10.755 12.746 7.17 20.514z" fill="#FFF"/><g><path d="M825.556 1086.863c-19.917-3.983-64.73 7.569-81.261 6.573-77.08-4.382-109.345-12.747-134.241-13.146-23.104-.398-41.427 7.17-41.427 7.17s-6.971-9.56-13.942-24.497c-6.971-14.938-30.473-73.693-30.473-73.693-21.312-6.573-41.229-1.992-54.374 3.983-3.983 1.793-7.967 3.585-11.552 5.378 8.166 12.547 16.73 28.282 22.905 45.41 13.344 38.241 22.705 64.73 38.041 75.486l17.727 1.195 51.585-1.593c37.842-5.577 80.066-13.743 90.821-14.34 18.921-.996 66.722.995 79.668 3.983 6.971 1.593 12.946 5.975 17.129 9.76 35.054 1.592 106.755-.2 109.344-2.79 2.789-2.987-40.033-24.896-59.95-28.879z"/><path d="M480.992 1044.041c-5.975-17.327-14.739-32.863-22.905-45.41-14.54 6.97-24.299 12.747-22.506 19.518 5.378 21.312 57.36 99.585 57.36 99.585l26.092 1.793c-15.336-10.755-24.697-37.245-38.041-75.486zm198.174 60.747c-10.755.598-52.78 8.764-90.822 14.34l149.577-4.381 25.892 2.987c3.187.399 7.37.598 12.15.797-4.183-3.784-10.158-8.166-17.129-9.76-12.946-2.987-60.747-4.978-79.668-3.983z" fill="#000" fill-rule="nonzero" opacity=".2"/></g><g><path fill="#968EA0" d="M-.004 1112.356h1918.008v13.743H-.004z"/><path fill="#79747F" d="M168.693 1125.9h1610.091v69.311H168.693z"/></g><path d="M1080.693 673.983c-1.593.2-4.581.598-7.967 1.395-2.788.597-5.577 1.394-8.166 2.788-3.983 1.793-7.568 4.183-9.36 7.37-2.39-.997-6.175-1.992-7.968-1.793-1.792.199-5.776 1.593-7.767 2.987-2.789-4.182-8.764-6.174-14.54-7.17-.796-.199-1.593-.199-2.39-.398-4.182-.598-8.166-.598-9.958-.598-5.179 0-20.116 4.183-20.316 5.975-.199 1.793-.199 6.374.399 7.17.796.797 2.589 2.39 3.186 3.586.2.398.797.796 1.395.796 0 .399.199.598.199.996s.199.797.199.996c0 .597.797 6.772 1.793 8.564 0 .2.199.399.398.797 1.394 3.187 5.377 11.751 20.116 11.552h1.195c16.133-1.195 19.519-17.925 19.519-22.506 0-.996 0-1.793-.2-2.789h.996l-.995-4.58c0-.2-.2-.399-.399-1.196l7.37-.398 7.17-.398c0 .796-.2.995-.2 1.394l-.398 4.78h.598c0 .797 0 1.593.199 2.788.597 4.581 6.174 20.913 22.307 19.718.398 0 .797-.199 1.195-.199 14.738-1.793 17.328-10.755 18.324-14.141.199-.398.199-.797.199-.797.796-1.992.796-8.166.597-8.763V690.116c.797-.199 1.394-.597 1.594-1.195.398-1.195 1.991-3.187 2.589-3.983.597-.797 0-5.378-.399-7.17-.199-2.39-15.535-4.382-20.514-3.785zm-41.627 22.307c0 4.382-3.186 20.913-19.32 21.112-13.941.2-17.526-7.568-18.721-10.556-.2-.398-.398-.796-.598-.995-.597-1.195-1.394-5.378-1.593-7.768 0-.398-.2-.797-.2-1.195v-.398h.4c-.4-6.374 4.78-10.955 9.958-12.349 7.967-2.19 20.514-1.792 26.688 3.983 1.594 1.594 2.988 4.581 3.187 5.378.2.797.2 1.793.2 2.788h-.001zm57.162-5.975v1.195c0 2.39 0 6.772-.597 7.967-.2.2-.2.598-.399.996-.995 3.187-3.386 11.353-17.128 12.946-15.934 1.793-21.311-13.743-21.909-18.124-.2-.996-.2-1.793-.2-2.59h.2s.797-4.182 2.39-6.174c5.178-6.373 17.527-8.763 25.892-7.568 5.378.796 11.154 4.58 11.552 10.954h.2v.398h-.001z" fill="#FFF" fill-rule="nonzero"/><path d="M1096.03 679.361s14.538-9.76 15.733-9.959c1.196-.199 3.187.996 3.187.996s-5.975 5.577-7.967 9.162c-1.991 3.585-7.568 7.569-7.568 7.569l-3.386-7.768h.001zm-118.706 8.963s-1.793-1.992.398-1.992c3.983 0 13.344 1.792 15.336 1.394 2.788-.597 4.78 6.374 4.382 8.365-.2 1.992-11.552-2.589-11.552-2.589l-8.564-5.178z" fill="#FFF" fill-rule="nonzero"/><path d="M1237.639 1100.207h-350.34c-11.353 0-20.515-9.161-20.515-20.514V876.739c0-11.353 9.162-20.515 20.515-20.515h350.14c11.354 0 20.515 9.162 20.515 20.515v202.954c.2 11.353-8.962 20.514-20.315 20.514z" fill="#CDC7C9"/><path d="M1251.98 1102.996H872.958c-3.386 0-6.175 2.788-6.175 6.174v1.793c0 3.386 2.789 6.174 6.175 6.174h379.02c3.386 0 6.175-2.788 6.175-6.174v-1.793c0-3.386-2.789-6.174-6.175-6.174h.002z" fill="#BCBBBB"/><g fill="#FFF"><path d="M1040.46 962.98c-5.975 10.356-2.19 26.09 4.382 35.452 3.386 4.78 6.573 8.962 11.154 8.962h.199c2.19 0 3.784-.796 5.178-1.394 1.594-.797 3.386-1.394 6.175-1.394 2.589 0 4.182.796 5.776 1.394 1.593.598 3.186 1.394 5.576 1.394 5.179 0 8.366-4.78 11.154-8.763 2.987-4.183 4.382-8.365 4.78-9.959 0-.199 0-.597-.398-.796-.996-.399-8.764-3.984-8.963-13.544 0-7.768 5.975-11.95 7.17-12.747.2 0 .2-.2.2-.398v-.399c-4.183-6.174-10.557-6.97-13.146-7.17h-1.195c-2.987 0-5.975 1.195-8.166 1.992-1.593.597-2.987 1.195-3.983 1.195s-2.39-.598-3.984-1.195c-2.19-.797-4.58-1.793-7.17-1.793H1055c-5.776.399-11.353 3.785-14.54 9.162v.001z"/><path d="M1080.095 937.087c-3.585.2-7.966 2.39-10.556 5.378-2.19 2.589-4.381 6.772-3.784 11.153 0 .2.2.399.598.598h.796c3.585 0 7.37-1.992 9.959-5.179 2.788-3.386 4.182-7.568 3.784-11.552-.2-.199-.597-.398-.797-.398z"/></g></g></svg>