<svg id="Capa_1" enable-background="new 0 0 510 510" height="512" viewBox="0 0 510 510" width="512" xmlns="http://www.w3.org/2000/svg" xmlns:xlink="http://www.w3.org/1999/xlink"><linearGradient id="lg1"><stop offset="0" stop-color="#99e6fc"/><stop offset=".4296" stop-color="#01d0fb"/><stop offset=".5256" stop-color="#08c6f7"/><stop offset=".692" stop-color="#1da9eb"/><stop offset=".9074" stop-color="#3f7cd9"/><stop offset="1" stop-color="#4f66d0"/></linearGradient><linearGradient id="SVGID_1_" gradientUnits="userSpaceOnUse" x1="-16.396" x2="323.783" xlink:href="#lg1" y1="358.674" y2="358.674"/><linearGradient id="SVGID_2_" gradientUnits="userSpaceOnUse" x1="-87.846" x2="280.155" xlink:href="#lg1" y1="358.674" y2="358.674"/><linearGradient id="SVGID_3_" gradientUnits="userSpaceOnUse" x1="-90.495" x2="214.436" xlink:href="#lg1" y1="356.415" y2="356.415"/><linearGradient id="SVGID_4_" gradientUnits="userSpaceOnUse" x1="181.594" x2="533.246" xlink:href="#lg1" y1="151.327" y2="151.327"/><linearGradient id="SVGID_5_" gradientUnits="userSpaceOnUse" x1="210.25" x2="380.381" xlink:href="#lg1" y1="263.526" y2="263.526"/><linearGradient id="SVGID_6_" gradientUnits="userSpaceOnUse" x1="119.5" x2="487.501" xlink:href="#lg1" y1="151.338" y2="151.338"/><linearGradient id="SVGID_7_" gradientUnits="userSpaceOnUse" x1="116.851" x2="421.782" xlink:href="#lg1" y1="149.08" y2="149.08"/><linearGradient id="SVGID_8_" gradientUnits="userSpaceOnUse" x1="172.595" x2="347.334" y1="255.001" y2="255.001"><stop offset="0" stop-color="#fe93bb"/><stop offset=".5595" stop-color="#925cb4"/><stop offset="1" stop-color="#5b3374"/></linearGradient><g><path d="m128.19 509.979c-23.516 0-47.032-8.951-64.935-26.853v-.001l-36.402-36.402c-35.805-35.805-35.805-94.064-.001-129.87l82.633-82.633c35.805-35.804 94.065-35.804 129.87-.001l36.402 36.402c17.345 17.345 26.896 40.406 26.896 64.935s-9.552 47.59-26.896 64.935l-82.633 82.633c-17.901 17.904-41.418 26.855-64.934 26.855zm-24.843-66.946c13.699 13.699 35.989 13.7 49.687 0l82.633-82.632c6.636-6.636 10.291-15.459 10.291-24.844 0-9.384-3.655-18.207-10.291-24.843l-36.402-36.402c-13.699-13.698-35.988-13.698-49.687.001l-82.633 82.632c-13.698 13.699-13.698 35.988.001 49.687z" fill="url(#SVGID_1_)"/><path d="m274.904 269.76-35.548-35.548c-23.067-23.068-55.451-31.25-85.15-24.594 16.399 3.675 31.982 11.857 44.718 24.594l36.402 36.402c7.07 7.07 12.82 15.101 17.181 23.782l-16.586 16.586c6.471 6.605 10.037 15.316 10.037 24.576 0 .189-.011.376-.014.564l5.216-5.216c4.052-4.052 11.054-1.237 11.063 4.494v.148c0 24.53-9.553 47.59-26.897 64.935l-82.632 82.632c-12.737 12.737-28.32 20.919-44.718 24.594 6.65 1.49 13.431 2.26 20.216 2.26 23.516 0 47.032-8.951 64.934-26.854l82.632-82.632c17.378-17.379 26.934-40.496 26.897-65.079-.038-24.661-10.313-48.206-27.751-65.644z" fill="url(#SVGID_2_)"/><g><path d="m66.944 356.935c-13.722 13.722-13.722 35.969 0 49.69l36.4 36.4c.94.94-11.11 5.78-23.06 5.78-6.53 0-13.04-1.45-17.37-5.78l-21.202-21.206c-22.113-22.116-22.111-57.97.003-80.085l67.429-67.429c6.85-6.85 15.85-10.28 24.84-10.28 7.09 0 14.18 2.14 20.22 6.39-1.62 1.15-3.18 2.44-4.63 3.89z" fill="url(#SVGID_3_)"/></g><path d="m335.537 302.634c-23.517 0-47.033-8.951-64.935-26.854l-36.402-36.402c-35.805-35.805-35.805-94.064-.001-129.87l82.633-82.633c35.806-35.807 94.065-35.806 129.869 0l36.402 36.402c17.344 17.345 26.897 40.406 26.897 64.935 0 24.53-9.553 47.59-26.897 64.936l-82.632 82.632c-17.903 17.903-41.419 26.854-64.934 26.854zm46.229-245.941c-8.996 0-17.993 3.425-24.843 10.274l-82.632 82.633c-13.698 13.699-13.698 35.988 0 49.687l36.402 36.401v.001c13.699 13.698 35.987 13.7 49.686 0l82.632-82.633c6.636-6.636 10.291-15.459 10.291-24.844 0-9.384-3.654-18.207-10.291-24.843l-36.401-36.402c-6.85-6.849-15.847-10.274-24.844-10.274z" fill="url(#SVGID_4_)"/><path d="m336.116 245.949c-9.074.148-18.192-3.186-25.156-10.007l-40.091 40.091c6.119 6.071 12.893 11.084 20.087 15.076z" fill="url(#SVGID_5_)"/><path d="m483.103 63.278-36.402-36.402c-23.067-23.068-55.451-31.25-85.15-24.594 16.399 3.675 31.982 11.857 44.718 24.594l36.402 36.402c17.345 17.345 26.897 40.405 26.897 64.935s-9.553 47.59-26.897 64.935l-82.632 82.632c-12.737 12.737-28.32 20.919-44.718 24.594 6.65 1.49 13.431 2.26 20.216 2.26 23.516 0 47.032-8.951 64.934-26.854l82.632-82.632c17.344-17.346 26.897-40.406 26.897-64.936 0-24.529-9.553-47.59-26.897-64.934z" fill="url(#SVGID_6_)"/><g><path d="m274.29 149.6c-13.721 13.722-13.721 35.968 0 49.69l36.4 36.4c.94.94-11.11 5.78-23.06 5.78-6.53 0-13.04-1.45-17.37-5.78l-21.202-21.206c-22.113-22.116-22.111-57.97.003-80.085l67.429-67.429c6.85-6.85 15.85-10.28 24.84-10.28 7.09 0 14.18 2.14 20.22 6.39-1.62 1.15-3.18 2.44-4.63 3.89z" fill="url(#SVGID_7_)"/></g><path d="m203.933 334.395c-7.255 0-14.51-2.768-20.046-8.303-11.071-11.071-11.071-29.021 0-40.091l102.091-102.091c11.07-11.071 29.022-11.071 40.091 0 11.071 11.071 11.071 29.021 0 40.091l-102.09 102.091c-5.536 5.535-12.791 8.303-20.046 8.303z" fill="url(#SVGID_8_)"/></g></svg>