<svg width="21" height="18" viewBox="0 0 21 18" fill="none" xmlns="http://www.w3.org/2000/svg">
<path d="M21 2.13092C20.2191 2.49231 19.3869 2.73185 18.5194 2.84815C19.4119 2.286 20.0931 1.40262 20.4133 0.337846C19.5812 0.861231 18.6624 1.23092 17.6833 1.43723C16.8932 0.549692 15.7671 0 14.5386 0C12.1551 0 10.2362 2.04092 10.2362 4.54292C10.2362 4.90292 10.2651 5.24908 10.3359 5.57862C6.75675 5.39446 3.58969 3.58477 1.46212 0.828C1.09069 1.50785 0.872813 2.286 0.872813 3.12369C0.872813 4.69662 1.64062 6.09092 2.78513 6.89815C2.09344 6.88431 1.41488 6.67246 0.84 6.33877C0.84 6.35262 0.84 6.37062 0.84 6.38862C0.84 8.59569 2.33231 10.4289 4.28925 10.8512C3.93881 10.9523 3.55687 11.0008 3.1605 11.0008C2.88488 11.0008 2.60663 10.9842 2.34544 10.9232C2.90325 12.7218 4.48612 14.0442 6.36825 14.0871C4.9035 15.2958 3.04369 16.0242 1.03031 16.0242C0.67725 16.0242 0.338625 16.0075 0 15.9618C1.90706 17.2592 4.16719 18 6.6045 18C14.5267 18 18.858 11.0769 18.858 5.076C18.858 4.87523 18.8514 4.68138 18.8423 4.48892C19.6967 3.84923 20.4146 3.05031 21 2.13092Z" fill="white"/>
</svg>
